<svg width="19" height="19" viewBox="0 0 19 19" fill="none" xmlns="http://www.w3.org/2000/svg">
<g clip-path="url(#clip0_1_3500)">
<g clip-path="url(#clip1_1_3500)">
<g clip-path="url(#clip2_1_3500)">
<path d="M10.6432 9.83008L10.4097 10.2346H10.8767L10.6432 9.83008ZM9.31016 11.1391L9.54366 10.7346H9.07666L9.31016 11.1391Z" fill="#EDECEC"/>
<path d="M0.310059 12.8301H18.3101V5.83008H0.310059V12.8301ZM0.457059 4.08008H18.1636C17.8666 3.34758 17.1491 2.83008 16.3101 2.83008H2.31006C1.47106 2.83008 0.753559 3.34758 0.457059 4.08008Z" fill="#EEEEEE"/>
<path d="M10.8767 8.4255H10.4097L10.6432 8.83L10.8767 8.4255ZM8.21065 8.4255H7.74365L7.97715 8.83L8.21065 8.4255ZM9.83215 10.2345L10.3547 9.33L9.83215 8.4255H8.78815L8.26565 9.33L8.78815 10.2345H9.83215ZM7.97715 9.83L7.74365 10.2345H8.21065L7.97715 9.83ZM9.31015 7.521L9.07665 7.9255H9.54365L9.31015 7.521Z" fill="#EDECEC"/>
<path d="M0.457059 4.08008C0.363059 4.31208 0.310059 4.56458 0.310059 4.83008V5.83008H18.3101V4.83008C18.3101 4.56458 18.2571 4.31208 18.1631 4.08008H0.457059Z" fill="#0038B8"/>
<path d="M0.457031 14.5801H18.1635C17.8665 15.3126 17.149 15.8301 16.31 15.8301H2.31003C1.47103 15.8301 0.753531 15.3126 0.457031 14.5801Z" fill="#EEEEEE"/>
<path d="M0.457059 14.58C0.363059 14.348 0.310059 14.0955 0.310059 13.83V12.83H18.3101V13.83C18.3101 14.0955 18.2571 14.348 18.1631 14.58H0.457059ZM8.49906 10.7345L9.31006 12.139L10.1211 10.7345H11.7426L10.9321 9.33L11.7431 7.9255H10.1216L9.31006 6.521L8.49906 7.9255H6.87756L7.68806 9.33L6.87706 10.7345H8.49906ZM9.31006 11.139L9.07656 10.7345H9.54356L9.31006 11.139ZM10.8766 8.4255L10.6431 8.83L10.4096 8.426L10.8766 8.4255ZM10.6431 9.83L10.8766 10.234H10.4096L10.6431 9.83ZM9.31006 7.521L9.54356 7.9255H9.07656L9.31006 7.521ZM8.78806 8.4255H9.83256L10.3546 9.33L9.83256 10.2345H8.78806L8.26556 9.33L8.78806 8.4255ZM8.21056 8.4255L7.97706 8.83L7.74356 8.426L8.21056 8.4255ZM7.97706 9.83L8.21056 10.234H7.74356L7.97706 9.83Z" fill="#0038B8"/>
</g>
</g>
</g>
<defs>
<clipPath id="clip0_1_3500">
<rect width="18" height="18" fill="white" transform="translate(0.310059 0.330078)"/>
</clipPath>
<clipPath id="clip1_1_3500">
<rect width="18" height="18" fill="white" transform="translate(0.310059 0.330078)"/>
</clipPath>
<clipPath id="clip2_1_3500">
<rect width="18" height="18" fill="white" transform="translate(0.310059 0.330078)"/>
</clipPath>
</defs>
</svg>
