<svg width="17" height="17" viewBox="0 0 17 17" fill="none" xmlns="http://www.w3.org/2000/svg">
<g clip-path="url(#clip0_1_3593)">
<g clip-path="url(#clip1_1_3593)">
<g clip-path="url(#clip2_1_3593)">
<path d="M10.4066 15.3211C10.4066 16.2086 9.68705 16.5264 8.79949 16.5264C7.91194 16.5264 7.19238 16.2086 7.19238 15.3211L7.59416 11.7051C7.59416 10.818 7.91194 10.9015 8.79949 10.9015C9.68705 10.9015 10.0048 10.818 10.0048 11.7051L10.4066 15.3211Z" fill="#662113"/>
<path d="M14.1855 13.0299C11.3882 10.6335 10.2553 7.20239 8.79972 7.20239C7.34417 7.20239 6.21128 10.6339 3.41395 13.0299C2.23839 14.0371 2.79839 14.6197 4.40995 14.5028C5.84639 14.3993 7.18995 14.0735 8.79972 14.0735C10.4095 14.0735 11.7535 14.3993 13.1891 14.5028C14.8011 14.6197 15.3606 14.0366 14.1855 13.0299Z" fill="#5C913B"/>
<path d="M13.2771 12.0801C11.1274 10.109 9.91936 7.28589 8.7998 7.28589C7.68114 7.28589 6.47269 10.109 4.32291 12.0801C2.61447 13.6463 6.56158 13.9979 8.7998 12.0801C11.0371 13.9983 14.9851 13.6463 13.2771 12.0801Z" fill="#3E721D"/>
<path d="M13.2771 10.4833C11.1274 8.64197 9.91936 6.00464 8.7998 6.00464C7.68114 6.00464 6.47269 8.64197 4.32291 10.4833C2.61447 11.9464 6.56158 12.2749 8.7998 10.4833C11.0371 12.2753 14.9851 11.9464 13.2771 10.4833Z" fill="#5C913B"/>
<path d="M12.2948 9.17584C10.617 7.73807 9.67386 5.67896 8.79964 5.67896C7.92631 5.67896 6.98275 7.73762 5.30453 9.17584C3.9712 10.3181 7.05208 10.5745 8.79964 9.17584C10.5463 10.5741 13.6285 10.3181 12.2948 9.17584Z" fill="#3E721D"/>
<path d="M12.2948 7.97935C10.617 6.54158 9.67386 4.48291 8.79964 4.48291C7.92631 4.48291 6.98275 6.54158 5.30453 7.97935C3.9712 9.12202 7.05208 9.37802 8.79964 7.97935C10.5463 9.37802 13.6285 9.12202 12.2948 7.97935Z" fill="#5C913B"/>
<path d="M11.6199 6.91675C10.2657 5.75675 9.50438 4.09497 8.79905 4.09497C8.09416 4.09497 7.33282 5.75675 5.97816 6.91675C4.90171 7.83897 7.38882 8.04564 8.79905 6.91675C10.2097 8.04564 12.6968 7.83897 11.6199 6.91675Z" fill="#3E721D"/>
<path d="M11.6199 6.01611C10.2657 4.85611 9.50438 3.19434 8.79905 3.19434C8.09416 3.19434 7.33282 4.85611 5.97816 6.01611C4.90171 6.93834 7.38882 7.145 8.79905 6.01611C10.2097 7.145 12.6968 6.93834 11.6199 6.01611Z" fill="#5C913B"/>
<path d="M10.946 4.69032C9.91579 3.80766 9.33668 2.54321 8.79979 2.54321C8.26335 2.54321 7.68379 3.80766 6.65313 4.69032C5.83402 5.3921 7.72646 5.54944 8.79979 4.69032C9.87268 5.54944 11.7656 5.3921 10.946 4.69032Z" fill="#3E721D"/>
<path d="M10.946 4.21079C9.91579 3.32768 9.33668 2.06323 8.79979 2.06323C8.26335 2.06323 7.68379 3.32768 6.65313 4.21079C5.83402 4.91257 7.72646 5.0699 8.79979 4.21079C9.87268 5.06945 11.7656 4.91212 10.946 4.21079Z" fill="#5C913B"/>
<path d="M7.92301 6.74862C8.2912 6.74862 8.58968 6.45014 8.58968 6.08195C8.58968 5.71376 8.2912 5.41528 7.92301 5.41528C7.55482 5.41528 7.25635 5.71376 7.25635 6.08195C7.25635 6.45014 7.55482 6.74862 7.92301 6.74862Z" fill="#FFCC4D"/>
<path d="M9.47873 12.7299C9.96965 12.7299 10.3676 12.332 10.3676 11.841C10.3676 11.3501 9.96965 10.9521 9.47873 10.9521C8.98781 10.9521 8.58984 11.3501 8.58984 11.841C8.58984 12.332 8.98781 12.7299 9.47873 12.7299Z" fill="#FFCC4D"/>
<path d="M10.5896 8.73003C11.2033 8.73003 11.7007 8.23257 11.7007 7.61892C11.7007 7.00527 11.2033 6.50781 10.5896 6.50781C9.97598 6.50781 9.47852 7.00527 9.47852 7.61892C9.47852 8.23257 9.97598 8.73003 10.5896 8.73003Z" fill="#DD2E44"/>
<path d="M5.0344 13.1745C5.52532 13.1745 5.92329 12.7765 5.92329 12.2856C5.92329 11.7947 5.52532 11.3967 5.0344 11.3967C4.54348 11.3967 4.14551 11.7947 4.14551 12.2856C4.14551 12.7765 4.54348 13.1745 5.0344 13.1745Z" fill="#DD2E44"/>
<path d="M6.81223 10.0634C7.30315 10.0634 7.70112 9.66545 7.70112 9.17453C7.70112 8.68361 7.30315 8.28564 6.81223 8.28564C6.32131 8.28564 5.92334 8.68361 5.92334 9.17453C5.92334 9.66545 6.32131 10.0634 6.81223 10.0634Z" fill="#A6D388"/>
<path d="M12.1452 11.841C12.6362 11.841 13.0341 11.443 13.0341 10.9521C13.0341 10.4612 12.6362 10.0632 12.1452 10.0632C11.6543 10.0632 11.2563 10.4612 11.2563 10.9521C11.2563 11.443 11.6543 11.841 12.1452 11.841Z" fill="#A6D388"/>
<path d="M9.20294 1.47612C9.26649 1.59834 9.43049 1.72012 9.56605 1.74678L10.1789 1.86634C10.3145 1.89301 10.3465 1.99523 10.2496 2.0939L9.81271 2.54012C9.71627 2.63878 9.65049 2.83212 9.66782 2.96901L9.74338 3.58856C9.76027 3.7259 9.67271 3.78767 9.54871 3.72634L8.99005 3.44856C8.86605 3.38723 8.66205 3.38456 8.53671 3.44278L7.97049 3.70678C7.84516 3.76456 7.75894 3.70056 7.77938 3.56367L7.87049 2.9459C7.89049 2.80945 7.83005 2.61478 7.73627 2.51345L7.31005 2.05701C7.21582 1.95612 7.25005 1.8539 7.38649 1.83123L8.00205 1.72723C8.13849 1.70456 8.30471 1.58678 8.37183 1.4659L8.67449 0.919673C8.7416 0.798785 8.8496 0.800118 8.91316 0.92234L9.20294 1.47612Z" fill="#FFAC33"/>
</g>
</g>
</g>
<defs>
<clipPath id="clip0_1_3593">
<rect width="16" height="16" fill="white" transform="translate(0.589844 0.72998)"/>
</clipPath>
<clipPath id="clip1_1_3593">
<rect width="16" height="16" fill="white" transform="translate(0.589844 0.72998)"/>
</clipPath>
<clipPath id="clip2_1_3593">
<rect width="16" height="16" fill="white" transform="translate(0.589844 0.72998)"/>
</clipPath>
</defs>
</svg>
