<svg width="17" height="17" viewBox="0 0 17 17" fill="none" xmlns="http://www.w3.org/2000/svg">
<g clip-path="url(#clip0_1_3572)">
<g clip-path="url(#clip1_1_3572)">
<g clip-path="url(#clip2_1_3572)">
<path d="M10.017 15.3211C10.017 16.2086 9.2974 16.5264 8.40985 16.5264C7.52229 16.5264 6.80273 16.2086 6.80273 15.3211L7.20451 11.7051C7.20451 10.818 7.52229 10.9015 8.40985 10.9015C9.2974 10.9015 9.61518 10.818 9.61518 11.7051L10.017 15.3211Z" fill="#662113"/>
<path d="M13.7959 13.0299C10.9985 10.6335 9.86563 7.20239 8.41007 7.20239C6.95452 7.20239 5.82163 10.6339 3.0243 13.0299C1.84874 14.0371 2.40874 14.6197 4.0203 14.5028C5.45674 14.3993 6.8003 14.0735 8.41007 14.0735C10.0199 14.0735 11.3639 14.3993 12.7994 14.5028C14.4114 14.6197 14.971 14.0366 13.7959 13.0299Z" fill="#5C913B"/>
<path d="M12.8875 12.0801C10.7377 10.109 9.52971 7.28589 8.41015 7.28589C7.29149 7.28589 6.08304 10.109 3.93327 12.0801C2.22482 13.6463 6.17193 13.9979 8.41015 12.0801C10.6475 13.9983 14.5955 13.6463 12.8875 12.0801Z" fill="#3E721D"/>
<path d="M12.8875 10.4833C10.7377 8.64197 9.52971 6.00464 8.41015 6.00464C7.29149 6.00464 6.08304 8.64197 3.93327 10.4833C2.22482 11.9464 6.17193 12.2749 8.41015 10.4833C10.6475 12.2753 14.5955 11.9464 12.8875 10.4833Z" fill="#5C913B"/>
<path d="M11.9051 9.17584C10.2273 7.73807 9.28421 5.67896 8.40999 5.67896C7.53666 5.67896 6.5931 7.73762 4.91488 9.17584C3.58155 10.3181 6.66244 10.5745 8.40999 9.17584C10.1567 10.5741 13.2389 10.3181 11.9051 9.17584Z" fill="#3E721D"/>
<path d="M11.9051 7.97935C10.2273 6.54158 9.28421 4.48291 8.40999 4.48291C7.53666 4.48291 6.5931 6.54158 4.91488 7.97935C3.58155 9.12202 6.66244 9.37802 8.40999 7.97935C10.1567 9.37802 13.2389 9.12202 11.9051 7.97935Z" fill="#5C913B"/>
<path d="M11.2303 6.91675C9.87606 5.75675 9.11473 4.09497 8.4094 4.09497C7.70451 4.09497 6.94318 5.75675 5.58851 6.91675C4.51206 7.83897 6.99918 8.04564 8.4094 6.91675C9.82007 8.04564 12.3072 7.83897 11.2303 6.91675Z" fill="#3E721D"/>
<path d="M11.2303 6.01611C9.87606 4.85611 9.11473 3.19434 8.4094 3.19434C7.70451 3.19434 6.94318 4.85611 5.58851 6.01611C4.51206 6.93834 6.99918 7.145 8.4094 6.01611C9.82007 7.145 12.3072 6.93834 11.2303 6.01611Z" fill="#5C913B"/>
<path d="M10.5564 4.69032C9.52614 3.80766 8.94703 2.54321 8.41014 2.54321C7.8737 2.54321 7.29414 3.80766 6.26348 4.69032C5.44437 5.3921 7.33681 5.54944 8.41014 4.69032C9.48303 5.54944 11.3759 5.3921 10.5564 4.69032Z" fill="#3E721D"/>
<path d="M10.5564 4.21079C9.52614 3.32768 8.94703 2.06323 8.41014 2.06323C7.8737 2.06323 7.29414 3.32768 6.26348 4.21079C5.44437 4.91257 7.33681 5.0699 8.41014 4.21079C9.48303 5.06945 11.3759 4.91212 10.5564 4.21079Z" fill="#5C913B"/>
<path d="M7.53337 6.74862C7.90156 6.74862 8.20003 6.45014 8.20003 6.08195C8.20003 5.71376 7.90156 5.41528 7.53337 5.41528C7.16518 5.41528 6.8667 5.71376 6.8667 6.08195C6.8667 6.45014 7.16518 6.74862 7.53337 6.74862Z" fill="#FFCC4D"/>
<path d="M9.08908 12.7299C9.58 12.7299 9.97797 12.332 9.97797 11.841C9.97797 11.3501 9.58 10.9521 9.08908 10.9521C8.59816 10.9521 8.2002 11.3501 8.2002 11.841C8.2002 12.332 8.59816 12.7299 9.08908 12.7299Z" fill="#FFCC4D"/>
<path d="M10.2 8.73003C10.8136 8.73003 11.3111 8.23257 11.3111 7.61892C11.3111 7.00527 10.8136 6.50781 10.2 6.50781C9.58633 6.50781 9.08887 7.00527 9.08887 7.61892C9.08887 8.23257 9.58633 8.73003 10.2 8.73003Z" fill="#DD2E44"/>
<path d="M4.64475 13.1745C5.13567 13.1745 5.53364 12.7765 5.53364 12.2856C5.53364 11.7947 5.13567 11.3967 4.64475 11.3967C4.15383 11.3967 3.75586 11.7947 3.75586 12.2856C3.75586 12.7765 4.15383 13.1745 4.64475 13.1745Z" fill="#DD2E44"/>
<path d="M6.42258 10.0634C6.9135 10.0634 7.31147 9.66545 7.31147 9.17453C7.31147 8.68361 6.9135 8.28564 6.42258 8.28564C5.93166 8.28564 5.53369 8.68361 5.53369 9.17453C5.53369 9.66545 5.93166 10.0634 6.42258 10.0634Z" fill="#A6D388"/>
<path d="M11.7556 11.841C12.2465 11.841 12.6445 11.443 12.6445 10.9521C12.6445 10.4612 12.2465 10.0632 11.7556 10.0632C11.2647 10.0632 10.8667 10.4612 10.8667 10.9521C10.8667 11.443 11.2647 11.841 11.7556 11.841Z" fill="#A6D388"/>
<path d="M8.81329 1.47612C8.87684 1.59834 9.04084 1.72012 9.1764 1.74678L9.78929 1.86634C9.92484 1.89301 9.95684 1.99523 9.85995 2.0939L9.42306 2.54012C9.32662 2.63878 9.26084 2.83212 9.27818 2.96901L9.35373 3.58856C9.37062 3.7259 9.28307 3.78767 9.15907 3.72634L8.6004 3.44856C8.4764 3.38723 8.2724 3.38456 8.14706 3.44278L7.58084 3.70678C7.45551 3.76456 7.36929 3.70056 7.38973 3.56367L7.48084 2.9459C7.50084 2.80945 7.4404 2.61478 7.34662 2.51345L6.9204 2.05701C6.82618 1.95612 6.8604 1.8539 6.99684 1.83123L7.6124 1.72723C7.74884 1.70456 7.91507 1.58678 7.98218 1.4659L8.28484 0.919673C8.35195 0.798785 8.45995 0.800118 8.52351 0.92234L8.81329 1.47612Z" fill="#FFAC33"/>
</g>
</g>
</g>
<defs>
<clipPath id="clip0_1_3572">
<rect width="16" height="16" fill="white" transform="translate(0.200195 0.72998)"/>
</clipPath>
<clipPath id="clip1_1_3572">
<rect width="16" height="16" fill="white" transform="translate(0.200195 0.72998)"/>
</clipPath>
<clipPath id="clip2_1_3572">
<rect width="16" height="16" fill="white" transform="translate(0.200195 0.72998)"/>
</clipPath>
</defs>
</svg>
