<svg width="18" height="18" viewBox="0 0 18 18" fill="none" xmlns="http://www.w3.org/2000/svg">
<g clip-path="url(#clip0_1_3446)">
<g clip-path="url(#clip1_1_3446)">
<g clip-path="url(#clip2_1_3446)">
<path d="M16.1598 2.5335C14.1513 0.524966 10.8949 0.524966 8.88588 2.5335C7.30342 4.11643 6.97348 6.4717 7.88535 8.38317L6.05788 10.2102C5.75922 10.5093 5.66542 10.9302 5.76622 11.311L4.84548 12.2313C4.62195 12.0073 4.26122 12.0073 4.03768 12.2313L3.22988 13.0396C3.00635 13.2631 3.00635 13.6243 3.22988 13.8478L2.82528 14.251C2.60175 14.028 2.24055 14.028 2.01748 14.251L1.61335 14.6556C1.38982 14.8792 1.38982 15.2404 1.61335 15.4639C1.62035 15.4714 1.63015 15.4732 1.63715 15.4793C1.26662 16.0342 1.32542 16.7916 1.81542 17.282C2.37308 17.8397 3.27795 17.8397 3.83562 17.282L10.3106 10.8075C12.2226 11.7198 14.5778 11.3894 16.1603 9.80603C18.1679 7.79843 18.1679 4.54203 16.1598 2.5335ZM15.352 4.95783C14.9054 5.40397 14.1812 5.40397 13.7355 4.95783C13.2894 4.5117 13.2894 3.7879 13.7355 3.3413C14.1812 2.89517 14.9054 2.89517 15.352 3.3413C15.7982 3.7879 15.7982 4.5117 15.352 4.95783Z" fill="#C1694F"/>
</g>
</g>
</g>
<defs>
<clipPath id="clip0_1_3446">
<rect width="16.8" height="16.8" fill="white" transform="translate(0.939941 0.940186)"/>
</clipPath>
<clipPath id="clip1_1_3446">
<rect width="16.8" height="16.8" fill="white" transform="translate(0.939941 0.940186)"/>
</clipPath>
<clipPath id="clip2_1_3446">
<rect width="16.8" height="16.8" fill="white" transform="translate(0.939941 0.940186)"/>
</clipPath>
</defs>
</svg>
