<svg width="25" height="25" viewBox="0 0 25 25" fill="none" xmlns="http://www.w3.org/2000/svg">
<g clip-path="url(#clip0_1_3217)">
<g clip-path="url(#clip1_1_3217)">
<g clip-path="url(#clip2_1_3217)">
<path d="M12.1602 24.8401C18.7876 24.8401 24.1602 19.4675 24.1602 12.8401C24.1602 6.21267 18.7876 0.840088 12.1602 0.840088C5.53274 0.840088 0.160156 6.21267 0.160156 12.8401C0.160156 19.4675 5.53274 24.8401 12.1602 24.8401Z" fill="#FFCC4D"/>
<path d="M7.17027 16.5873C7.20027 16.7067 7.94893 19.5067 12.1603 19.5067C16.3723 19.5067 17.1203 16.7067 17.1503 16.5873C17.1869 16.4427 17.1216 16.2927 16.9923 16.218C16.8623 16.144 16.6996 16.166 16.5923 16.2693C16.5796 16.282 15.2896 17.5067 12.1603 17.5067C9.03093 17.5067 7.74027 16.282 7.72827 16.27C7.66427 16.2067 7.57893 16.1733 7.4936 16.1733C7.4376 16.1733 7.38093 16.1873 7.3296 16.216C7.19893 16.2907 7.1336 16.442 7.17027 16.5873Z" fill="#664500"/>
<path d="M8.16032 12.1735C9.08079 12.1735 9.82699 11.1288 9.82699 9.84017C9.82699 8.5515 9.08079 7.50684 8.16032 7.50684C7.23984 7.50684 6.49365 8.5515 6.49365 9.84017C6.49365 11.1288 7.23984 12.1735 8.16032 12.1735Z" fill="#664500"/>
<path d="M16.1603 12.1735C17.0808 12.1735 17.827 11.1288 17.827 9.84017C17.827 8.5515 17.0808 7.50684 16.1603 7.50684C15.2398 7.50684 14.4937 8.5515 14.4937 9.84017C14.4937 11.1288 15.2398 12.1735 16.1603 12.1735Z" fill="#664500"/>
</g>
</g>
</g>
<defs>
<clipPath id="clip0_1_3217">
<rect width="24" height="24" fill="white" transform="translate(0.160156 0.840088)"/>
</clipPath>
<clipPath id="clip1_1_3217">
<rect width="24" height="24" fill="white" transform="translate(0.160156 0.840088)"/>
</clipPath>
<clipPath id="clip2_1_3217">
<rect width="24" height="24" fill="white" transform="translate(0.160156 0.840088)"/>
</clipPath>
</defs>
</svg>
