<svg width="25" height="25" viewBox="0 0 25 25" fill="none" xmlns="http://www.w3.org/2000/svg">
<g clip-path="url(#clip0_1_3275)">
<g clip-path="url(#clip1_1_3275)">
<g clip-path="url(#clip2_1_3275)">
<path d="M12.1099 24.8401C18.7373 24.8401 24.1099 19.4675 24.1099 12.8401C24.1099 6.21267 18.7373 0.840088 12.1099 0.840088C5.48245 0.840088 0.109863 6.21267 0.109863 12.8401C0.109863 19.4675 5.48245 24.8401 12.1099 24.8401Z" fill="#FFCC4D"/>
<path d="M18.3331 16.5928C18.2144 16.4855 18.0371 16.4788 17.9098 16.5735C17.8838 16.5928 15.2951 18.5068 12.1098 18.5068C8.93242 18.5068 6.33508 16.5928 6.30975 16.5735C6.18242 16.4788 6.00508 16.4868 5.88642 16.5928C5.76842 16.6995 5.74175 16.8755 5.82375 17.0115C5.90975 17.1548 7.96842 20.5068 12.1098 20.5068C16.2511 20.5068 18.3104 17.1548 18.3958 17.0115C18.4778 16.8748 18.4518 16.6995 18.3331 16.5928Z" fill="#664500"/>
<path d="M12.1099 18.5675C12.0112 18.5675 11.9159 18.5602 11.8179 18.5568V21.5675H12.4012V18.5562C12.3045 18.5595 12.2085 18.5675 12.1099 18.5675Z" fill="#65471B"/>
<path d="M14.7763 18.1734C14.787 18.1707 13.8096 18.4254 13.1456 18.4974C12.9016 18.5254 12.6543 18.548 12.401 18.5567V21.568H13.443C14.1763 21.568 14.7763 20.968 14.7763 20.2347V18.1734ZM9.44296 18.1734C9.43229 18.1707 10.4096 18.4254 11.0736 18.4974C11.3176 18.5254 11.565 18.548 11.8183 18.5567V21.568H10.7763C10.043 21.568 9.44296 20.968 9.44296 20.2347V18.1734Z" fill="white"/>
<path d="M18.3333 16.5928C18.2146 16.4854 18.0373 16.4788 17.9099 16.5735C17.8899 16.5881 16.4039 17.6854 14.3026 18.2201C14.0073 18.2954 13.0599 18.5068 12.1119 18.5074C11.1626 18.5074 10.2126 18.2954 9.91727 18.2201C7.81594 17.6854 6.32994 16.5881 6.30994 16.5735C6.18327 16.4788 6.00527 16.4854 5.8866 16.5928C5.76794 16.6994 5.74194 16.8748 5.82394 17.0114C5.8886 17.1194 7.0806 19.0561 9.44327 19.9988V18.7795C9.4326 18.7768 10.4099 19.0315 11.0739 19.1034C11.3179 19.1314 11.5653 19.1541 11.8186 19.1628C11.9159 19.1661 12.0113 19.1734 12.1099 19.1734C12.2086 19.1734 12.3039 19.1661 12.4019 19.1628C12.6553 19.1541 12.9026 19.1321 13.1466 19.1034C13.8106 19.0315 14.7879 18.7768 14.7773 18.7795V19.9988C17.1399 19.0561 18.3319 17.1194 18.3966 17.0114C18.4779 16.8748 18.4519 16.6994 18.3333 16.5928ZM17.8593 10.1895C17.8593 11.3321 17.2339 12.2588 16.4619 12.2588C15.6906 12.2588 15.0646 11.3321 15.0646 10.1895C15.0646 9.04678 15.6899 8.12012 16.4619 8.12012C17.2339 8.12012 17.8593 9.04678 17.8593 10.1895ZM6.4146 10.1895C6.4146 11.3321 7.03994 12.2588 7.81194 12.2588C8.58327 12.2588 9.20927 11.3321 9.20927 10.1895C9.20927 9.04678 8.58394 8.12012 7.81194 8.12012C7.03994 8.12012 6.4146 9.04678 6.4146 10.1895Z" fill="#65471B"/>
<path d="M23.315 7.2582C23.201 7.14754 22.4704 7.44087 21.731 7.0642C20.2057 6.28687 16.351 5.53687 13.8417 7.31487C13.573 7.50487 12.4504 7.53687 12.1364 7.52354C11.8224 7.53754 10.6997 7.50554 10.431 7.31487C7.92238 5.53687 4.06771 6.28687 2.54238 7.0642C1.80304 7.44087 1.07238 7.14754 0.958378 7.2582C0.793711 7.41754 0.793711 8.05554 0.959044 8.21554C1.12304 8.37487 1.94371 8.55887 2.10704 9.03687C2.27171 9.51554 2.27304 12.3422 3.58238 13.3195C4.80838 14.2342 7.66838 14.5095 9.48104 13.4782C11.0624 12.5789 11.007 10.6855 11.297 9.55754C11.4004 9.15554 11.6917 8.95287 12.137 8.95287C12.5824 8.95287 12.8737 9.15554 12.977 9.55754C13.267 10.6849 13.211 12.5789 14.793 13.4782C16.6057 14.5089 19.4657 14.2335 20.691 13.3195C22.001 12.3429 22.0024 9.51554 22.1664 9.03687C22.3297 8.55887 23.1504 8.3742 23.3144 8.21554C23.4797 8.05554 23.4804 7.41754 23.315 7.2582ZM9.85238 9.69154C9.80105 10.4282 9.66971 11.8429 8.78771 12.3449C8.24705 12.6529 7.54238 12.8402 6.80505 12.8402H6.80438C5.98771 12.8402 4.85571 12.6089 4.41304 12.2789C3.85971 11.8662 3.64904 10.1675 3.56971 9.5322C3.51904 9.12754 3.38304 8.13887 3.82838 7.98687C4.53504 7.7462 5.52104 7.5582 6.52971 7.5582C6.99171 7.5582 8.54371 7.58687 9.29971 8.0522C9.96971 8.46354 9.88105 9.2862 9.85238 9.69154ZM20.7044 9.52287C20.625 10.1589 20.4144 11.8662 19.861 12.2789C19.4184 12.6089 18.2864 12.8402 17.4697 12.8402H17.469C16.731 12.8402 16.027 12.6529 15.4857 12.3449C14.6037 11.8435 14.4724 10.4375 14.421 9.70087C14.393 9.29554 14.3037 8.46687 14.9737 8.05554C15.7304 7.5902 17.2817 7.5582 17.7437 7.5582C18.7524 7.5582 19.7377 7.74287 20.445 7.98354C20.8904 8.13554 20.755 9.1182 20.7044 9.52287Z" fill="#292F33"/>
</g>
</g>
</g>
<defs>
<clipPath id="clip0_1_3275">
<rect width="24" height="24" fill="white" transform="translate(0.109863 0.840088)"/>
</clipPath>
<clipPath id="clip1_1_3275">
<rect width="24" height="24" fill="white" transform="translate(0.109863 0.840088)"/>
</clipPath>
<clipPath id="clip2_1_3275">
<rect width="24" height="24" fill="white" transform="translate(0.109863 0.840088)"/>
</clipPath>
</defs>
</svg>
