<svg width="25" height="25" viewBox="0 0 25 25" fill="none" xmlns="http://www.w3.org/2000/svg">
<g clip-path="url(#clip0_1_3197)">
<g clip-path="url(#clip1_1_3197)">
<g clip-path="url(#clip2_1_3197)">
<path d="M20.027 3.61266C19.699 3.44932 19.5643 3.04666 19.7277 2.71866L20.441 1.28799C20.6043 0.959991 21.007 0.825325 21.335 0.988658C21.663 1.15199 21.7977 1.55466 21.6343 1.88266L20.921 3.31332C20.7577 3.64132 20.355 3.77599 20.027 3.61266ZM20.6803 5.07866L20.6623 5.02332C20.551 4.69066 20.7317 4.32799 21.0643 4.21666L23.667 3.35266C23.999 3.24132 24.363 3.42199 24.4737 3.75466L24.4917 3.80999C24.603 4.14266 24.4217 4.50599 24.089 4.61732L21.487 5.48066C21.155 5.59199 20.7917 5.41132 20.6803 5.07866ZM21.023 6.58799C20.8597 6.91599 20.9943 7.31866 21.3223 7.48199L22.753 8.19532C23.081 8.35866 23.4837 8.22399 23.647 7.89599C23.8103 7.56799 23.6757 7.16532 23.3477 7.00199L21.917 6.28866C21.589 6.12532 21.1863 6.25999 21.023 6.58799Z" fill="#FA743E"/>
<path d="M8.0099 22.1908C7.31523 21.9581 5.93123 21.5568 6.22456 19.2068L6.65523 15.7574C6.7359 15.1108 7.4399 14.9141 8.2079 14.5501C8.87523 14.2334 10.4846 13.1481 10.8806 9.97878C11.2259 7.20812 10.7039 2.83078 10.5672 1.77412L7.51523 1.42145L4.4619 1.06812C4.08723 2.06612 2.5799 6.20812 2.2839 8.98478C1.9459 12.1608 3.26523 13.5848 3.84256 14.0454C4.50723 14.5748 5.1479 14.9268 5.07856 15.5748C5.0099 16.2228 4.96056 16.6761 4.71056 19.0314C4.4599 21.3861 3.02056 21.4608 2.29123 21.5288C0.906563 21.6574 0.829896 22.7834 1.49923 22.8541C2.1699 22.9261 4.98923 23.2561 4.98923 23.2561C4.98923 23.2561 7.8099 23.5788 8.47856 23.6614C9.14656 23.7461 9.32856 22.6321 8.0099 22.1908Z" fill="#E1E8ED"/>
<path d="M9.77857 3.18413C9.52323 3.34613 8.2059 4.05613 6.61657 4.18947C5.51457 4.2828 4.14923 4.1428 3.92523 4.88347C3.47323 6.37747 3.1139 7.69747 2.96923 9.05813C2.69457 11.6348 3.5879 12.8775 4.12257 13.3781L4.13723 13.3908C4.20257 13.4435 4.83857 13.9295 6.03723 14.0681C7.2279 14.2061 7.9819 13.8861 8.06857 13.8468C8.0779 13.8428 8.08057 13.8408 8.08923 13.8361C8.72457 13.4701 9.8759 12.4641 10.1966 9.89413C10.4326 7.99947 10.2426 5.27147 10.0672 3.49613C10.0539 3.36013 10.0339 3.02213 9.77857 3.18413Z" fill="#FFCC4D"/>
<path d="M8.82453 5.62538C9.06201 5.62538 9.25453 5.43286 9.25453 5.19538C9.25453 4.9579 9.06201 4.76538 8.82453 4.76538C8.58705 4.76538 8.39453 4.9579 8.39453 5.19538C8.39453 5.43286 8.58705 5.62538 8.82453 5.62538Z" fill="#FFD983"/>
<path d="M7.4173 7.058C7.65479 7.058 7.8473 6.86548 7.8473 6.628C7.8473 6.39052 7.65479 6.198 7.4173 6.198C7.17982 6.198 6.9873 6.39052 6.9873 6.628C6.9873 6.86548 7.17982 7.058 7.4173 7.058Z" fill="#FFD983"/>
<path d="M9.03059 8.70937C9.26807 8.70937 9.46059 8.51685 9.46059 8.27937C9.46059 8.04188 9.26807 7.84937 9.03059 7.84937C8.7931 7.84937 8.60059 8.04188 8.60059 8.27937C8.60059 8.51685 8.7931 8.70937 9.03059 8.70937Z" fill="#FFD983"/>
<path d="M6.70539 9.78285C6.94287 9.78285 7.13539 9.59033 7.13539 9.35285C7.13539 9.11537 6.94287 8.92285 6.70539 8.92285C6.46791 8.92285 6.27539 9.11537 6.27539 9.35285C6.27539 9.59033 6.46791 9.78285 6.70539 9.78285Z" fill="#FFD983"/>
<path d="M5.33137 8.00014C5.56885 8.00014 5.76137 7.80762 5.76137 7.57014C5.76137 7.33265 5.56885 7.14014 5.33137 7.14014C5.09388 7.14014 4.90137 7.33265 4.90137 7.57014C4.90137 7.80762 5.09388 8.00014 5.33137 8.00014Z" fill="#FFD983"/>
<path d="M5.10187 5.9662C5.33936 5.9662 5.53187 5.77368 5.53187 5.5362C5.53187 5.29872 5.33936 5.1062 5.10187 5.1062C4.86439 5.1062 4.67188 5.29872 4.67188 5.5362C4.67188 5.77368 4.86439 5.9662 5.10187 5.9662Z" fill="#FFD983"/>
<path d="M14.4521 23.1581C15.1467 22.9255 16.5307 22.5241 16.2374 20.1741L15.8067 16.7248C15.7261 16.0781 15.0221 15.8815 14.2541 15.5175C13.5867 15.2008 11.9774 14.1155 11.5814 10.9461C11.2361 8.17547 11.7581 3.79813 11.8947 2.74147L14.9467 2.3888L17.9987 2.03613C18.3734 3.03413 19.8807 7.17613 20.1767 9.9528C20.5147 13.1288 19.1954 14.5528 18.6181 15.0135C17.9534 15.5428 17.3127 15.8948 17.3821 16.5428C17.4507 17.1908 17.5001 17.6441 17.7501 19.9995C18.0007 22.3541 19.4401 22.4288 20.1694 22.4968C21.5541 22.6255 21.6307 23.7515 20.9614 23.8221C20.2907 23.8941 17.4714 24.2241 17.4714 24.2241C17.4714 24.2241 14.6507 24.5468 13.9821 24.6295C13.3154 24.7135 13.1334 23.6001 14.4521 23.1581Z" fill="#E1E8ED"/>
<path d="M12.6834 4.15142C12.9388 4.31342 14.2568 5.02342 15.8454 5.15675C16.9474 5.24942 18.3134 5.10942 18.5374 5.85075C18.9894 7.34475 19.3488 8.66475 19.4934 10.0254C19.7681 12.6021 18.8748 13.8448 18.3401 14.3454L18.3254 14.3581C18.2601 14.4108 17.6241 14.8968 16.4254 15.0354C15.2348 15.1734 14.4808 14.8534 14.3941 14.8141C14.3848 14.8101 14.3821 14.8081 14.3734 14.8034C13.7381 14.4374 12.5868 13.4314 12.2661 10.8614C12.0301 8.96675 12.2201 6.23875 12.3954 4.46342C12.4081 4.32742 12.4281 3.98942 12.6834 4.15142Z" fill="#FFCC4D"/>
<path d="M13.637 6.5934C13.8745 6.5934 14.067 6.40088 14.067 6.1634C14.067 5.92592 13.8745 5.7334 13.637 5.7334C13.3995 5.7334 13.207 5.92592 13.207 6.1634C13.207 6.40088 13.3995 6.5934 13.637 6.5934Z" fill="#FFD983"/>
<path d="M15.0447 8.02553C15.2822 8.02553 15.4747 7.83301 15.4747 7.59553C15.4747 7.35805 15.2822 7.16553 15.0447 7.16553C14.8073 7.16553 14.6147 7.35805 14.6147 7.59553C14.6147 7.83301 14.8073 8.02553 15.0447 8.02553Z" fill="#FFD983"/>
<path d="M13.431 9.67665C13.6685 9.67665 13.861 9.48413 13.861 9.24665C13.861 9.00917 13.6685 8.81665 13.431 8.81665C13.1935 8.81665 13.001 9.00917 13.001 9.24665C13.001 9.48413 13.1935 9.67665 13.431 9.67665Z" fill="#FFD983"/>
<path d="M15.7567 10.7509C15.9941 10.7509 16.1867 10.5584 16.1867 10.3209C16.1867 10.0834 15.9941 9.89087 15.7567 9.89087C15.5192 9.89087 15.3267 10.0834 15.3267 10.3209C15.3267 10.5584 15.5192 10.7509 15.7567 10.7509Z" fill="#FFD983"/>
<path d="M17.1307 8.96742C17.3682 8.96742 17.5607 8.7749 17.5607 8.53742C17.5607 8.29994 17.3682 8.10742 17.1307 8.10742C16.8932 8.10742 16.7007 8.29994 16.7007 8.53742C16.7007 8.7749 16.8932 8.96742 17.1307 8.96742Z" fill="#FFD983"/>
<path d="M17.3597 6.93397C17.5972 6.93397 17.7897 6.74146 17.7897 6.50397C17.7897 6.26649 17.5972 6.07397 17.3597 6.07397C17.1222 6.07397 16.9297 6.26649 16.9297 6.50397C16.9297 6.74146 17.1222 6.93397 17.3597 6.93397Z" fill="#FFD983"/>
</g>
</g>
</g>
<defs>
<clipPath id="clip0_1_3197">
<rect width="24" height="24" fill="white" transform="translate(0.589844 0.840088)"/>
</clipPath>
<clipPath id="clip1_1_3197">
<rect width="24" height="24" fill="white" transform="translate(0.589844 0.840088)"/>
</clipPath>
<clipPath id="clip2_1_3197">
<rect width="24" height="24" fill="white" transform="translate(0.589844 0.840088)"/>
</clipPath>
</defs>
</svg>
