<svg width="17" height="17" viewBox="0 0 17 17" fill="none" xmlns="http://www.w3.org/2000/svg">
<g clip-path="url(#clip0_1_3548)">
<g clip-path="url(#clip1_1_3548)">
<g clip-path="url(#clip2_1_3548)">
<path d="M16.0296 9.88346C16.0296 13.5644 13.0438 16.5501 9.36296 16.5501C5.68118 16.5501 2.69629 13.5644 2.69629 9.88346C2.69629 6.20169 5.68118 3.2168 9.36296 3.2168C13.0438 3.2168 16.0296 6.20169 16.0296 9.88346Z" fill="#FFCC4D"/>
<path d="M10.1914 1.05409C10.1574 0.920546 10.0831 0.800708 9.97864 0.710855C9.87416 0.621003 9.74455 0.565493 9.60742 0.551867C9.48647 0.538992 9.36425 0.557196 9.25231 0.604756L6.68564 1.69187C5.21275 2.1692 5.30075 2.1252 5.07408 2.2612C4.66742 2.50431 4.18208 2.93365 3.31364 3.76209C2.57542 4.46609 0.0558613 4.90298 0.0478613 7.34876C0.0447502 8.30031 0.784306 9.07987 1.80742 9.07676C2.88431 9.0732 3.50342 8.50342 3.79942 8.1172C3.97809 7.88423 4.20966 7.69714 4.47497 7.57142C6.22164 6.73809 5.47764 6.00609 6.77942 4.33542C6.8082 4.299 6.82862 4.25668 6.83922 4.21148C6.84983 4.16628 6.85035 4.11931 6.84077 4.07388C6.83118 4.02845 6.81172 3.98569 6.78376 3.94863C6.7558 3.91157 6.72002 3.88111 6.67897 3.85942L9.72697 2.07098C9.99719 1.91231 10.1172 1.62476 10.0372 1.32698L10.0794 1.30431C10.1231 1.28084 10.1578 1.24356 10.1781 1.19829C10.1983 1.15302 10.203 1.10231 10.1914 1.05409Z" fill="#F4900C"/>
<path d="M10.1734 1.1007C10.1647 1.0822 10.1523 1.06563 10.1371 1.05193C10.1219 1.03824 10.1041 1.0277 10.0848 1.02092C10.0655 1.01414 10.0451 1.01126 10.0247 1.01244C10.0042 1.01362 9.98424 1.01885 9.96585 1.02781L8.76674 1.60292C8.81373 1.43097 8.79991 1.24808 8.72763 1.08514C8.69319 1.01099 8.6456 0.943677 8.58718 0.886475L8.24763 1.03003C8.33464 1.06437 8.40523 1.13068 8.44496 1.21536C8.53785 1.41714 8.47252 1.71314 8.16807 1.89003L7.01918 2.44114C7.13874 2.20114 7.1694 1.95536 7.11252 1.75581C7.09129 1.68301 7.05761 1.61443 7.01296 1.55314L6.70585 1.68336C6.75697 1.72355 6.79452 1.77847 6.8134 1.8407C6.90052 2.14692 6.6654 2.61714 6.12007 2.87314C5.59963 3.11759 5.43829 3.50914 5.25118 3.96292C5.1654 4.17047 5.06852 4.40559 4.92496 4.65314C4.54318 5.31092 3.59918 6.37981 3.17829 6.79359C3.16373 6.80791 3.15213 6.82497 3.14416 6.84378C3.13619 6.86259 3.13201 6.88279 3.13184 6.90322C3.13168 6.92365 3.13554 6.94391 3.1432 6.96284C3.15087 6.98178 3.16219 6.99902 3.17652 7.01359C3.19084 7.02815 3.2079 7.03975 3.22671 7.04772C3.24552 7.05569 3.26572 7.05987 3.28615 7.06004C3.30658 7.0602 3.32684 7.05634 3.34577 7.04868C3.36471 7.04101 3.38195 7.02969 3.39652 7.01536C3.80318 6.61625 4.77918 5.5247 5.19429 4.80959L5.19607 4.80647L5.19652 4.80603C5.59785 4.06825 6.03785 3.78914 6.29785 3.84159C6.48407 3.87892 6.53296 4.08381 6.5454 4.20292C6.55072 4.24305 6.57147 4.27954 6.60326 4.30462C6.63504 4.3297 6.67535 4.34139 6.71562 4.33723C6.75589 4.33306 6.79295 4.31336 6.81893 4.28231C6.84491 4.25125 6.85775 4.21129 6.85474 4.17092C6.81918 3.8287 6.63385 3.59181 6.35874 3.5367C6.18052 3.50025 5.95029 3.54603 5.70185 3.71581C5.82363 3.47492 5.97118 3.28781 6.25296 3.15581C6.27518 3.14559 6.29296 3.13225 6.31385 3.12159C6.31829 3.11981 6.32318 3.1207 6.32807 3.11847L10.0383 1.33892C10.0374 1.33492 10.0383 1.33136 10.037 1.32736L10.0787 1.3047C10.1061 1.28965 10.13 1.26901 10.1488 1.24412C10.1676 1.21923 10.181 1.19066 10.1881 1.16025C10.1874 1.1396 10.1824 1.11932 10.1734 1.1007Z" fill="#B55005"/>
<path d="M9.36317 13.55C7.55162 13.55 6.62717 13.3242 6.58851 13.3144C6.47415 13.2858 6.37585 13.2129 6.31518 13.1118C6.25451 13.0107 6.23645 12.8897 6.26495 12.7753C6.29403 12.6614 6.36685 12.5636 6.4676 12.503C6.56836 12.4424 6.68893 12.424 6.80317 12.4518C6.82051 12.4562 7.68406 12.6611 9.36273 12.6611C11.0498 12.6611 11.9138 12.454 11.9227 12.4518C11.9793 12.4377 12.0382 12.4349 12.0959 12.4435C12.1536 12.4522 12.209 12.4721 12.259 12.5021C12.309 12.5322 12.3526 12.5718 12.3873 12.6187C12.422 12.6657 12.4471 12.7189 12.4612 12.7755C12.4753 12.8322 12.4781 12.891 12.4694 12.9487C12.4608 13.0064 12.4409 13.0618 12.4108 13.1118C12.3807 13.1618 12.3411 13.2054 12.2942 13.2401C12.2473 13.2748 12.194 13.2999 12.1374 13.314C12.0992 13.3242 11.1747 13.55 9.36317 13.55ZM8.02984 6.77222H6.25206C6.13419 6.77222 6.02114 6.81904 5.93779 6.90239C5.85444 6.98574 5.80762 7.09879 5.80762 7.21666C5.80762 7.33454 5.85444 7.44758 5.93779 7.53093C6.02114 7.61428 6.13419 7.66111 6.25206 7.66111H6.48273C6.34095 7.89755 6.25206 8.20688 6.25206 8.54999C6.25206 9.28688 6.65028 9.88333 7.14095 9.88333C7.63162 9.88333 8.02984 9.28644 8.02984 8.54999C8.02984 8.20688 7.94095 7.89755 7.79917 7.66111H8.02984C8.14771 7.66111 8.26076 7.61428 8.34411 7.53093C8.42746 7.44758 8.47428 7.33454 8.47428 7.21666C8.47428 7.09879 8.42746 6.98574 8.34411 6.90239C8.26076 6.81904 8.14771 6.77222 8.02984 6.77222ZM12.4743 6.77222H10.6965C10.5786 6.77222 10.4656 6.81904 10.3822 6.90239C10.2989 6.98574 10.2521 7.09879 10.2521 7.21666C10.2521 7.33454 10.2989 7.44758 10.3822 7.53093C10.4656 7.61428 10.5786 7.66111 10.6965 7.66111H10.9272C10.7854 7.89755 10.6965 8.20688 10.6965 8.54999C10.6965 9.28644 11.0947 9.88333 11.5854 9.88333C12.0761 9.88333 12.4743 9.28688 12.4743 8.54999C12.4743 8.20688 12.3854 7.89755 12.2436 7.66111H12.4743C12.5922 7.66111 12.7052 7.61428 12.7886 7.53093C12.8719 7.44758 12.9187 7.33454 12.9187 7.21666C12.9187 7.09879 12.8719 6.98574 12.7886 6.90239C12.7052 6.81904 12.5922 6.77222 12.4743 6.77222Z" fill="#65471B"/>
</g>
</g>
</g>
<defs>
<clipPath id="clip0_1_3548">
<rect width="16" height="16" fill="white" transform="translate(0.0297852 0.550049)"/>
</clipPath>
<clipPath id="clip1_1_3548">
<rect width="16" height="16" fill="white" transform="translate(0.0297852 0.550049)"/>
</clipPath>
<clipPath id="clip2_1_3548">
<rect width="16" height="16" fill="white" transform="translate(0.0297852 0.550049)"/>
</clipPath>
</defs>
</svg>
