<svg width="17" height="17" viewBox="0 0 17 17" fill="none" xmlns="http://www.w3.org/2000/svg">
<g clip-path="url(#clip0_1_3562)">
<g clip-path="url(#clip1_1_3562)">
<g clip-path="url(#clip2_1_3562)">
<path d="M16.4701 9.88346C16.4701 13.5644 13.4843 16.5501 9.80339 16.5501C6.12161 16.5501 3.13672 13.5644 3.13672 9.88346C3.13672 6.20169 6.12161 3.2168 9.80339 3.2168C13.4843 3.2168 16.4701 6.20169 16.4701 9.88346Z" fill="#FFCC4D"/>
<path d="M10.6318 1.05409C10.5978 0.920546 10.5236 0.800708 10.4191 0.710855C10.3146 0.621003 10.185 0.565493 10.0478 0.551867C9.9269 0.538992 9.80468 0.557196 9.69273 0.604756L7.12607 1.69187C5.65318 2.1692 5.74118 2.1252 5.51451 2.2612C5.10785 2.50431 4.62251 2.93365 3.75407 3.76209C3.01585 4.46609 0.496291 4.90298 0.488291 7.34876C0.48518 8.30031 1.22474 9.07987 2.24785 9.07676C3.32474 9.0732 3.94385 8.50342 4.23985 8.1172C4.41852 7.88423 4.65009 7.69714 4.9154 7.57142C6.66207 6.73809 5.91807 6.00609 7.21985 4.33542C7.24863 4.299 7.26905 4.25668 7.27965 4.21148C7.29026 4.16628 7.29078 4.11931 7.2812 4.07388C7.27161 4.02845 7.25215 3.98569 7.22419 3.94863C7.19623 3.91157 7.16045 3.88111 7.1194 3.85942L10.1674 2.07098C10.4376 1.91231 10.5576 1.62476 10.4776 1.32698L10.5198 1.30431C10.5635 1.28084 10.5982 1.24356 10.6185 1.19829C10.6388 1.15302 10.6434 1.10231 10.6318 1.05409Z" fill="#F4900C"/>
<path d="M10.6138 1.1007C10.6051 1.0822 10.5928 1.06563 10.5775 1.05193C10.5623 1.03824 10.5446 1.0277 10.5253 1.02092C10.506 1.01414 10.4855 1.01126 10.4651 1.01244C10.4447 1.01362 10.4247 1.01885 10.4063 1.02781L9.20717 1.60292C9.25416 1.43097 9.24034 1.24808 9.16806 1.08514C9.13362 1.01099 9.08603 0.943677 9.02761 0.886475L8.68806 1.03003C8.77507 1.06437 8.84566 1.13068 8.88539 1.21536C8.97828 1.41714 8.91295 1.71314 8.6085 1.89003L7.45961 2.44114C7.57917 2.20114 7.60983 1.95536 7.55295 1.75581C7.53172 1.68301 7.49804 1.61443 7.45339 1.55314L7.14628 1.68336C7.1974 1.72355 7.23495 1.77847 7.25383 1.8407C7.34095 2.14692 7.10583 2.61714 6.5605 2.87314C6.04006 3.11759 5.87872 3.50914 5.69161 3.96292C5.60583 4.17047 5.50895 4.40559 5.36539 4.65314C4.98361 5.31092 4.03961 6.37981 3.61872 6.79359C3.60416 6.80791 3.59256 6.82497 3.58459 6.84378C3.57662 6.86259 3.57244 6.88279 3.57227 6.90322C3.57211 6.92365 3.57597 6.94391 3.58363 6.96284C3.5913 6.98178 3.60262 6.99902 3.61695 7.01359C3.63127 7.02815 3.64833 7.03975 3.66714 7.04772C3.68595 7.05569 3.70615 7.05987 3.72658 7.06004C3.74701 7.0602 3.76727 7.05634 3.7862 7.04868C3.80514 7.04101 3.82238 7.02969 3.83695 7.01536C4.24361 6.61625 5.21961 5.5247 5.63472 4.80959L5.6365 4.80647L5.63695 4.80603C6.03828 4.06825 6.47828 3.78914 6.73828 3.84159C6.9245 3.87892 6.97339 4.08381 6.98583 4.20292C6.99115 4.24305 7.0119 4.27954 7.04369 4.30462C7.07547 4.3297 7.11578 4.34139 7.15605 4.33723C7.19632 4.33306 7.23338 4.31336 7.25936 4.28231C7.28534 4.25125 7.29818 4.21129 7.29517 4.17092C7.25961 3.8287 7.07428 3.59181 6.79917 3.5367C6.62095 3.50025 6.39072 3.54603 6.14228 3.71581C6.26406 3.47492 6.41161 3.28781 6.69339 3.15581C6.71561 3.14559 6.73339 3.13225 6.75428 3.12159C6.75872 3.11981 6.76361 3.1207 6.7685 3.11847L10.4787 1.33892C10.4778 1.33492 10.4787 1.33136 10.4774 1.32736L10.5192 1.3047C10.5465 1.28965 10.5704 1.26901 10.5892 1.24412C10.6081 1.21923 10.6214 1.19066 10.6285 1.16025C10.6278 1.1396 10.6228 1.11932 10.6138 1.1007Z" fill="#B55005"/>
<path d="M9.8036 13.55C7.99205 13.55 7.0676 13.3242 7.02894 13.3144C6.91458 13.2858 6.81628 13.2129 6.75561 13.1118C6.69494 13.0107 6.67688 12.8897 6.70538 12.7753C6.73446 12.6614 6.80728 12.5636 6.90803 12.503C7.00879 12.4424 7.12936 12.424 7.2436 12.4518C7.26094 12.4562 8.12449 12.6611 9.80316 12.6611C11.4903 12.6611 12.3543 12.454 12.3632 12.4518C12.4198 12.4377 12.4786 12.4349 12.5363 12.4435C12.594 12.4522 12.6494 12.4721 12.6994 12.5021C12.7494 12.5322 12.793 12.5718 12.8277 12.6187C12.8624 12.6657 12.8875 12.7189 12.9016 12.7755C12.9157 12.8322 12.9185 12.891 12.9099 12.9487C12.9012 13.0064 12.8813 13.0618 12.8512 13.1118C12.8212 13.1618 12.7815 13.2054 12.7346 13.2401C12.6877 13.2748 12.6344 13.2999 12.5778 13.314C12.5396 13.3242 11.6152 13.55 9.8036 13.55ZM8.47027 6.77222H6.69249C6.57462 6.77222 6.46157 6.81904 6.37822 6.90239C6.29487 6.98574 6.24805 7.09879 6.24805 7.21666C6.24805 7.33454 6.29487 7.44758 6.37822 7.53093C6.46157 7.61428 6.57462 7.66111 6.69249 7.66111H6.92316C6.78138 7.89755 6.69249 8.20688 6.69249 8.54999C6.69249 9.28688 7.09071 9.88333 7.58138 9.88333C8.07205 9.88333 8.47027 9.28644 8.47027 8.54999C8.47027 8.20688 8.38138 7.89755 8.2396 7.66111H8.47027C8.58814 7.66111 8.70119 7.61428 8.78454 7.53093C8.86789 7.44758 8.91471 7.33454 8.91471 7.21666C8.91471 7.09879 8.86789 6.98574 8.78454 6.90239C8.70119 6.81904 8.58814 6.77222 8.47027 6.77222ZM12.9147 6.77222H11.1369C11.0191 6.77222 10.906 6.81904 10.8227 6.90239C10.7393 6.98574 10.6925 7.09879 10.6925 7.21666C10.6925 7.33454 10.7393 7.44758 10.8227 7.53093C10.906 7.61428 11.0191 7.66111 11.1369 7.66111H11.3676C11.2258 7.89755 11.1369 8.20688 11.1369 8.54999C11.1369 9.28644 11.5352 9.88333 12.0258 9.88333C12.5165 9.88333 12.9147 9.28688 12.9147 8.54999C12.9147 8.20688 12.8258 7.89755 12.684 7.66111H12.9147C13.0326 7.66111 13.1456 7.61428 13.229 7.53093C13.3123 7.44758 13.3592 7.33454 13.3592 7.21666C13.3592 7.09879 13.3123 6.98574 13.229 6.90239C13.1456 6.81904 13.0326 6.77222 12.9147 6.77222Z" fill="#65471B"/>
</g>
</g>
</g>
<defs>
<clipPath id="clip0_1_3562">
<rect width="16" height="16" fill="white" transform="translate(0.470215 0.550049)"/>
</clipPath>
<clipPath id="clip1_1_3562">
<rect width="16" height="16" fill="white" transform="translate(0.470215 0.550049)"/>
</clipPath>
<clipPath id="clip2_1_3562">
<rect width="16" height="16" fill="white" transform="translate(0.470215 0.550049)"/>
</clipPath>
</defs>
</svg>
