<svg width="17" height="17" viewBox="0 0 17 17" fill="none" xmlns="http://www.w3.org/2000/svg">
<g clip-path="url(#clip0_1_3555)">
<g clip-path="url(#clip1_1_3555)">
<g clip-path="url(#clip2_1_3555)">
<path d="M16.2498 9.88346C16.2498 13.5644 13.2641 16.5501 9.58317 16.5501C5.90139 16.5501 2.9165 13.5644 2.9165 9.88346C2.9165 6.20169 5.90139 3.2168 9.58317 3.2168C13.2641 3.2168 16.2498 6.20169 16.2498 9.88346Z" fill="#FFCC4D"/>
<path d="M10.4116 1.05409C10.3776 0.920546 10.3033 0.800708 10.1989 0.710855C10.0944 0.621003 9.96476 0.565493 9.82763 0.551867C9.70669 0.538992 9.58446 0.557196 9.47252 0.604756L6.90585 1.69187C5.43296 2.1692 5.52096 2.1252 5.2943 2.2612C4.88763 2.50431 4.4023 2.93365 3.53385 3.76209C2.79563 4.46609 0.276076 4.90298 0.268076 7.34876C0.264965 8.30031 1.00452 9.07987 2.02763 9.07676C3.10452 9.0732 3.72363 8.50342 4.01963 8.1172C4.1983 7.88423 4.42987 7.69714 4.69519 7.57142C6.44185 6.73809 5.69785 6.00609 6.99963 4.33542C7.02842 4.299 7.04884 4.25668 7.05944 4.21148C7.07004 4.16628 7.07057 4.11931 7.06098 4.07388C7.0514 4.02845 7.03193 3.98569 7.00397 3.94863C6.97601 3.91157 6.94024 3.88111 6.89919 3.85942L9.94719 2.07098C10.2174 1.91231 10.3374 1.62476 10.2574 1.32698L10.2996 1.30431C10.3433 1.28084 10.378 1.24356 10.3983 1.19829C10.4185 1.15302 10.4232 1.10231 10.4116 1.05409Z" fill="#F4900C"/>
<path d="M10.3936 1.1007C10.3849 1.0822 10.3725 1.06563 10.3573 1.05193C10.3421 1.03824 10.3244 1.0277 10.3051 1.02092C10.2858 1.01414 10.2653 1.01126 10.2449 1.01244C10.2244 1.01362 10.2045 1.01885 10.1861 1.02781L8.98695 1.60292C9.03394 1.43097 9.02013 1.24808 8.94784 1.08514C8.9134 1.01099 8.86582 0.943677 8.8074 0.886475L8.46784 1.03003C8.55485 1.06437 8.62545 1.13068 8.66517 1.21536C8.75806 1.41714 8.69273 1.71314 8.38829 1.89003L7.2394 2.44114C7.35895 2.20114 7.38962 1.95536 7.33273 1.75581C7.31151 1.68301 7.27782 1.61443 7.23317 1.55314L6.92606 1.68336C6.97719 1.72355 7.01473 1.77847 7.03362 1.8407C7.12073 2.14692 6.88562 2.61714 6.34029 2.87314C5.81984 3.11759 5.65851 3.50914 5.4714 3.96292C5.38562 4.17047 5.28873 4.40559 5.14517 4.65314C4.7634 5.31092 3.8194 6.37981 3.39851 6.79359C3.38395 6.80791 3.37235 6.82497 3.36438 6.84378C3.35641 6.86259 3.35222 6.88279 3.35206 6.90322C3.35189 6.92365 3.35575 6.94391 3.36342 6.96284C3.37108 6.98178 3.3824 6.99902 3.39673 7.01359C3.41106 7.02815 3.42812 7.03975 3.44693 7.04772C3.46574 7.05569 3.48593 7.05987 3.50636 7.06004C3.52679 7.0602 3.54705 7.05634 3.56599 7.04868C3.58493 7.04101 3.60217 7.02969 3.61673 7.01536C4.0234 6.61625 4.9994 5.5247 5.41451 4.80959L5.41629 4.80647L5.41673 4.80603C5.81806 4.06825 6.25806 3.78914 6.51806 3.84159C6.70429 3.87892 6.75317 4.08381 6.76562 4.20292C6.77093 4.24305 6.79169 4.27954 6.82347 4.30462C6.85525 4.3297 6.89556 4.34139 6.93584 4.33723C6.97611 4.33306 7.01317 4.31336 7.03914 4.28231C7.06512 4.25125 7.07797 4.21129 7.07495 4.17092C7.0394 3.8287 6.85406 3.59181 6.57895 3.5367C6.40073 3.50025 6.17051 3.54603 5.92206 3.71581C6.04384 3.47492 6.1914 3.28781 6.47317 3.15581C6.4954 3.14559 6.51318 3.13225 6.53406 3.12159C6.53851 3.11981 6.5434 3.1207 6.54829 3.11847L10.2585 1.33892C10.2576 1.33492 10.2585 1.33136 10.2572 1.32736L10.299 1.3047C10.3263 1.28965 10.3502 1.26901 10.369 1.24412C10.3878 1.21923 10.4012 1.19066 10.4083 1.16025C10.4076 1.1396 10.4026 1.11932 10.3936 1.1007Z" fill="#B55005"/>
<path d="M9.58339 13.55C7.77183 13.55 6.84739 13.3242 6.80872 13.3144C6.69437 13.2858 6.59606 13.2129 6.53539 13.1118C6.47473 13.0107 6.45666 12.8897 6.48517 12.7753C6.51425 12.6614 6.58706 12.5636 6.68782 12.503C6.78857 12.4424 6.90915 12.424 7.02339 12.4518C7.04072 12.4562 7.90428 12.6611 9.58294 12.6611C11.2701 12.6611 12.1341 12.454 12.1429 12.4518C12.1996 12.4377 12.2584 12.4349 12.3161 12.4435C12.3738 12.4522 12.4292 12.4721 12.4792 12.5021C12.5292 12.5322 12.5728 12.5718 12.6075 12.6187C12.6422 12.6657 12.6673 12.7189 12.6814 12.7755C12.6955 12.8322 12.6983 12.891 12.6896 12.9487C12.681 13.0064 12.6611 13.0618 12.631 13.1118C12.6009 13.1618 12.5613 13.2054 12.5144 13.2401C12.4675 13.2748 12.4142 13.2999 12.3576 13.314C12.3194 13.3242 11.3949 13.55 9.58339 13.55ZM8.25005 6.77222H6.47228C6.3544 6.77222 6.24136 6.81904 6.15801 6.90239C6.07466 6.98574 6.02783 7.09879 6.02783 7.21666C6.02783 7.33454 6.07466 7.44758 6.15801 7.53093C6.24136 7.61428 6.3544 7.66111 6.47228 7.66111H6.70294C6.56117 7.89755 6.47228 8.20688 6.47228 8.54999C6.47228 9.28688 6.8705 9.88333 7.36117 9.88333C7.85183 9.88333 8.25005 9.28644 8.25005 8.54999C8.25005 8.20688 8.16117 7.89755 8.01939 7.66111H8.25005C8.36793 7.66111 8.48097 7.61428 8.56432 7.53093C8.64767 7.44758 8.6945 7.33454 8.6945 7.21666C8.6945 7.09879 8.64767 6.98574 8.56432 6.90239C8.48097 6.81904 8.36793 6.77222 8.25005 6.77222ZM12.6945 6.77222H10.9167C10.7988 6.77222 10.6858 6.81904 10.6025 6.90239C10.5191 6.98574 10.4723 7.09879 10.4723 7.21666C10.4723 7.33454 10.5191 7.44758 10.6025 7.53093C10.6858 7.61428 10.7988 7.66111 10.9167 7.66111H11.1474C11.0056 7.89755 10.9167 8.20688 10.9167 8.54999C10.9167 9.28644 11.3149 9.88333 11.8056 9.88333C12.2963 9.88333 12.6945 9.28688 12.6945 8.54999C12.6945 8.20688 12.6056 7.89755 12.4638 7.66111H12.6945C12.8124 7.66111 12.9254 7.61428 13.0088 7.53093C13.0921 7.44758 13.1389 7.33454 13.1389 7.21666C13.1389 7.09879 13.0921 6.98574 13.0088 6.90239C12.9254 6.81904 12.8124 6.77222 12.6945 6.77222Z" fill="#65471B"/>
</g>
</g>
</g>
<defs>
<clipPath id="clip0_1_3555">
<rect width="16" height="16" fill="white" transform="translate(0.25 0.550049)"/>
</clipPath>
<clipPath id="clip1_1_3555">
<rect width="16" height="16" fill="white" transform="translate(0.25 0.550049)"/>
</clipPath>
<clipPath id="clip2_1_3555">
<rect width="16" height="16" fill="white" transform="translate(0.25 0.550049)"/>
</clipPath>
</defs>
</svg>
