<svg width="52" height="41" viewBox="0 0 52 41" fill="none" xmlns="http://www.w3.org/2000/svg">
<g clip-path="url(#clip0_1_766)">
<g clip-path="url(#clip1_1_766)">
<path d="M16.4716 15.0322C16.2868 15.1926 16.1005 15.3515 15.9181 15.5149C15.2729 16.0933 14.7885 16.7659 14.6177 17.6049C14.4947 18.1559 14.4989 18.7255 14.6298 19.2749C14.7607 19.8242 15.0153 20.3403 15.3762 20.7876C15.748 21.2652 16.1913 21.6619 16.7813 21.8915C16.8504 21.918 16.9203 21.9415 17.0049 21.9724C16.9273 22.1704 16.8605 22.3654 16.7775 22.5553C16.2969 23.6591 15.672 24.6805 14.8188 25.5666C14.6575 25.7304 14.4833 25.8824 14.2978 26.0213C13.6768 26.4997 12.9781 26.6837 12.1901 26.4629C11.7973 26.354 11.4091 26.2318 11.0178 26.1177C10.6192 25.99 10.2038 25.9157 9.78347 25.897C9.25712 25.8852 8.77424 26.0346 8.28515 26.2038C7.91906 26.3408 7.54473 26.457 7.16412 26.5519C6.56401 26.6881 6.02058 26.5129 5.52373 26.1935C5.03477 25.8658 4.6137 25.4554 4.28159 24.983C3.41625 23.828 2.76635 22.5409 2.36017 21.1777C1.99567 19.968 1.90806 18.6984 2.1032 17.454C2.27865 16.345 2.71495 15.3442 3.53631 14.517C4.39028 13.6605 5.44221 13.308 6.67348 13.4242C7.28678 13.4816 7.87214 13.6502 8.45905 13.8121C8.70359 13.8798 8.95357 13.9305 9.20122 13.9901C9.54803 14.0642 9.9096 14.0472 10.2469 13.9408C10.7306 13.8069 11.208 13.6546 11.6878 13.5199C12.3939 13.3104 13.1434 13.2679 13.8709 13.3963C14.8273 13.5714 15.5835 14.0586 16.2162 14.7415C16.2938 14.8269 16.3714 14.9137 16.4491 15.0005C16.4576 15.0104 16.4651 15.021 16.4716 15.0322Z" fill="#292B2E"/>
<path d="M12.875 9.44727C12.8955 9.63722 12.9043 9.82814 12.9014 10.0191C12.8356 10.9996 12.4 11.925 11.674 12.6263C11.3425 12.956 10.9753 13.2452 10.5235 13.4152C10.1353 13.5624 9.72932 13.5904 9.32019 13.6191C9.31398 13.6191 9.30699 13.6124 9.30078 13.6095C9.35901 11.3569 10.5569 9.89985 12.875 9.44727Z" fill="#292B2E"/>
<path d="M21.5801 12.1249C22.8271 11.9328 24.0889 11.8395 25.3523 11.846C27.2931 11.846 28.7169 12.2743 29.6221 13.0448C30.4574 13.7299 30.9543 14.7793 30.9543 16.062C30.9543 17.3675 30.5475 18.3955 29.7797 19.1447C28.7386 20.1948 27.0455 20.7313 25.1256 20.7313C24.5387 20.7313 23.9968 20.7099 23.545 20.6032V26.383H21.5801V12.1249ZM23.545 19.0814C23.9735 19.1888 24.5162 19.2286 25.1706 19.2286C27.5415 19.2286 28.9871 18.1372 28.9871 16.1459C28.9871 14.2406 27.5648 13.3208 25.3965 13.3208C24.5387 13.3208 23.8835 13.3848 23.545 13.4679V19.0814Z" fill="#292B2E"/>
<path d="M38.0406 26.3818L37.8854 25.0756H37.8178C37.2076 25.8895 36.0323 26.6173 34.4749 26.6173C32.2624 26.6173 31.1328 25.1404 31.1328 23.6414C31.1328 21.1393 33.482 19.7669 37.7045 19.7882V19.5741C37.7045 18.7182 37.456 17.1765 35.2202 17.1765C34.204 17.1765 33.1427 17.4767 32.3749 17.9477L31.9231 16.7063C32.8268 16.1492 34.1364 15.7856 35.5137 15.7856C38.8566 15.7856 39.6694 17.9477 39.6694 20.0237V23.896C39.6694 24.7953 39.7144 25.6732 39.8495 26.3796L38.0406 26.3818ZM37.7472 21.0944C35.5796 21.0517 33.1179 21.4153 33.1179 23.4272C33.1179 24.6473 33.9757 25.2258 34.9927 25.2258C36.415 25.2258 37.3217 24.3692 37.6323 23.492C37.7023 23.2988 37.7403 23.0965 37.7448 22.8922L37.7472 21.0944Z" fill="#292B2E"/>
<path d="M42.3062 16.022L44.6996 22.1439C44.948 22.829 45.219 23.6422 45.3983 24.2633H45.4434C45.6467 23.6422 45.8727 22.8504 46.142 22.1012L48.3135 16.022H50.4134L47.4323 23.4067C46.0093 26.9604 45.0389 28.7788 43.6834 29.8929C42.713 30.7068 41.7426 31.0277 41.2449 31.113L40.7481 29.5294C41.3845 29.3293 41.9747 29.0158 42.4871 28.6058C43.2083 28.039 43.7803 27.3207 44.1577 26.5078C44.2486 26.315 44.313 26.1656 44.313 26.0582C44.313 25.9507 44.268 25.8013 44.1772 25.5658L40.1387 16.022H42.3062Z" fill="#292B2E"/>
</g>
</g>
<defs>
<clipPath id="clip0_1_766">
<rect width="51" height="40" fill="white" transform="translate(0.5 0.279785)"/>
</clipPath>
<clipPath id="clip1_1_766">
<rect width="51" height="40" fill="white" transform="translate(0.5 0.279785)"/>
</clipPath>
</defs>
</svg>
