<svg width="96" height="97" viewBox="0 0 96 97" fill="none" xmlns="http://www.w3.org/2000/svg">
<g filter="url(#filter0_d_1_1680)">
<rect x="24" y="18.73" width="48" height="48" rx="24" fill="white" shape-rendering="crispEdges"/>
<rect x="24.5" y="19.23" width="47" height="47" rx="23.5" stroke="#E4E6EA" shape-rendering="crispEdges"/>
<path d="M49.5514 46.5618L46.1869 43.1973C46.1246 43.135 46.0778 43.0632 46.0464 42.982C46.0155 42.9012 46 42.8172 46 42.73C46 42.6428 46.0155 42.5585 46.0464 42.4773C46.0778 42.3965 46.1246 42.325 46.1869 42.2627L49.5514 38.8982C49.6636 38.7861 49.7944 38.73 49.9439 38.73C50.0935 38.73 50.2243 38.7861 50.3364 38.8982C50.4486 39.0104 50.5047 39.1412 50.5047 39.2907C50.5047 39.4403 50.4486 39.5711 50.3364 39.6833L47.2897 42.73L50.3364 45.7767C50.4486 45.8889 50.5047 46.0197 50.5047 46.1693C50.5047 46.3188 50.4486 46.4496 50.3364 46.5618C50.2243 46.6739 50.0935 46.73 49.9439 46.73C49.7944 46.73 49.6636 46.6739 49.5514 46.5618Z" fill="#292B2E"/>
</g>
<defs>
<filter id="filter0_d_1_1680" x="0" y="0.72998" width="96" height="96" filterUnits="userSpaceOnUse" color-interpolation-filters="sRGB">
<feFlood flood-opacity="0" result="BackgroundImageFix"/>
<feColorMatrix in="SourceAlpha" type="matrix" values="0 0 0 0 0 0 0 0 0 0 0 0 0 0 0 0 0 0 127 0" result="hardAlpha"/>
<feOffset dy="6"/>
<feGaussianBlur stdDeviation="12"/>
<feComposite in2="hardAlpha" operator="out"/>
<feColorMatrix type="matrix" values="0 0 0 0 0 0 0 0 0 0 0 0 0 0 0 0 0 0 0.16 0"/>
<feBlend mode="normal" in2="BackgroundImageFix" result="effect1_dropShadow_1_1680"/>
<feBlend mode="normal" in="SourceGraphic" in2="effect1_dropShadow_1_1680" result="shape"/>
</filter>
</defs>
</svg>
