<svg width="24" height="25" viewBox="0 0 24 25" fill="none" xmlns="http://www.w3.org/2000/svg">
<g clip-path="url(#clip0_1_1068)">
<g clip-path="url(#clip1_1_1068)">
<path fill-rule="evenodd" clip-rule="evenodd" d="M6 21.6225C6 20.587 6.86099 19.7475 7.92308 19.7475C8.98516 19.7475 9.84615 20.587 9.84615 21.6225C9.84615 22.658 8.98516 23.4975 7.92308 23.4975C6.86099 23.4975 6 22.658 6 21.6225ZM17.2019 19.7475C16.1398 19.7475 15.2788 20.587 15.2788 21.6225C15.2788 22.658 16.1398 23.4975 17.2019 23.4975C18.264 23.4975 19.125 22.658 19.125 21.6225C19.125 20.587 18.264 19.7475 17.2019 19.7475Z" fill="#292B2E"/>
<path d="M1 5.6225H2.875L3.86184 8.7475M3.86184 8.7475L6.625 17.4975H18.5L21 8.7475H3.86184Z" stroke="#292B2E" stroke-width="1.625" stroke-linecap="round" stroke-linejoin="round"/>
</g>
</g>
<defs>
<clipPath id="clip0_1_1068">
<rect width="24" height="24" fill="white" transform="translate(0 0.809998)"/>
</clipPath>
<clipPath id="clip1_1_1068">
<rect width="24" height="24" fill="white" transform="translate(0 0.809998)"/>
</clipPath>
</defs>
</svg>
