<svg width="37" height="37" viewBox="0 0 37 37" fill="none" xmlns="http://www.w3.org/2000/svg">
<g clip-path="url(#clip0_1_239)">
<g clip-path="url(#clip1_1_239)">
<path d="M11.6968 26.8667V27.4651C11.6968 27.6359 11.7576 27.7776 11.8792 27.8902C12.0007 28.0027 12.1441 28.059 12.3094 28.059C12.4746 28.059 12.6132 28.0012 12.7253 27.8857C12.8375 27.7701 12.8935 27.627 12.8935 27.4562V26.8578C12.8935 26.6871 12.8357 26.5454 12.7199 26.4328C12.6042 26.3202 12.4608 26.264 12.2897 26.264C12.1187 26.264 11.9771 26.3217 11.8649 26.4372C11.7529 26.5528 11.6968 26.696 11.6968 26.8667ZM23.4064 26.8667V27.4651C23.4064 27.6359 23.4642 27.7776 23.58 27.8902C23.6957 28.0027 23.8391 28.059 24.0102 28.059C24.1813 28.059 24.3228 28.0012 24.435 27.8857C24.547 27.7701 24.6031 27.627 24.6031 27.4562V26.8578C24.6031 26.6871 24.5452 26.5454 24.4296 26.4328C24.3138 26.3202 24.1704 26.264 23.9994 26.264C23.8283 26.264 23.6867 26.3217 23.5746 26.4372C23.4624 26.5528 23.4064 26.696 23.4064 26.8667ZM11.6968 18.4019V22.1154C11.6968 22.2849 11.7547 22.427 11.8704 22.5417C11.9862 22.6564 12.1295 22.7137 12.3005 22.7137C12.4716 22.7137 12.6132 22.6564 12.7253 22.5417C12.8375 22.427 12.8935 22.2849 12.8935 22.1154V18.4019C12.8935 18.2442 12.8357 18.105 12.7199 17.9844C12.6042 17.8639 12.4608 17.8036 12.2897 17.8036C12.1187 17.8036 11.9771 17.8639 11.8649 17.9844C11.7529 18.105 11.6968 18.2442 11.6968 18.4019ZM17.5026 23.7073V27.4606C17.5026 27.6302 17.5605 27.7723 17.6762 27.8869C17.792 28.0017 17.9353 28.059 18.1064 28.059C18.2774 28.059 18.4191 28.0017 18.5311 27.8869C18.6433 27.7723 18.6994 27.6302 18.6994 27.4606V23.7073C18.6994 23.5378 18.6415 23.3957 18.5257 23.281C18.4101 23.1663 18.2666 23.109 18.0956 23.109C17.9245 23.109 17.783 23.1663 17.6708 23.281C17.5587 23.3957 17.5026 23.5378 17.5026 23.7073ZM17.5026 18.4152V19.0135C17.5026 19.1784 17.5634 19.3172 17.685 19.4298C17.8066 19.5424 17.9499 19.5987 18.1152 19.5987C18.2804 19.5987 18.4191 19.5409 18.5311 19.4254C18.6433 19.3099 18.6994 19.1668 18.6994 18.9962V18.3978C18.6994 18.2389 18.6415 18.1002 18.5257 17.9815C18.4101 17.8629 18.2666 17.8036 18.0956 17.8036C17.9245 17.8036 17.783 17.8643 17.6708 17.9857C17.5587 18.107 17.5026 18.2502 17.5026 18.4152ZM23.4064 18.4019V22.1154C23.4064 22.2849 23.4642 22.427 23.58 22.5417C23.6957 22.6564 23.8391 22.7137 24.0102 22.7137C24.1813 22.7137 24.3228 22.6564 24.435 22.5417C24.547 22.427 24.6031 22.2849 24.6031 22.1154V18.4019C24.6031 18.2442 24.5452 18.105 24.4296 17.9844C24.3138 17.8639 24.1704 17.8036 23.9994 17.8036C23.8283 17.8036 23.6867 17.8639 23.5746 17.9844C23.4624 18.105 23.4064 18.2442 23.4064 18.4019ZM10.297 31.3572C9.71771 31.3572 9.22838 31.1575 8.82903 30.7581C8.42968 30.3588 8.23001 29.8695 8.23001 29.2901V14.4555C8.23001 14.173 8.28682 13.9036 8.40043 13.6475C8.51407 13.3914 8.6679 13.1664 8.86191 12.9724L15.3024 6.51379C15.4963 6.33186 15.7218 6.18408 15.9787 6.07045C16.2356 5.95683 16.5106 5.90002 16.8037 5.90002H25.963C26.5423 5.90002 27.0316 6.0997 27.431 6.49905C27.8303 6.89839 28.03 7.38772 28.03 7.96704V29.2901C28.03 29.8695 27.8303 30.3588 27.431 30.7581C27.0316 31.1575 26.5423 31.3572 25.963 31.3572H10.297ZM10.297 30.1604H25.963C26.1806 30.1604 26.38 30.0698 26.5613 29.8885C26.7426 29.7072 26.8333 29.5077 26.8333 29.2901V7.96704C26.8333 7.74945 26.7426 7.55 26.5613 7.36869C26.38 7.18738 26.1806 7.09672 25.963 7.09672H16.4637L9.42674 14.1337V29.2901C9.42674 29.5077 9.51737 29.7072 9.69863 29.8885C9.87998 30.0698 10.0794 30.1604 10.297 30.1604ZM10.297 30.1604H9.42674H26.8333H10.297Z" fill="#1C1B1F"/>
</g>
</g>
<defs>
<clipPath id="clip0_1_239">
<rect width="36" height="36" fill="white" transform="translate(0.130005 0.5)"/>
</clipPath>
<clipPath id="clip1_1_239">
<rect width="36" height="36" fill="white" transform="translate(0.130005 0.5)"/>
</clipPath>
</defs>
</svg>
