<svg width="48" height="49" viewBox="0 0 48 49" fill="none" xmlns="http://www.w3.org/2000/svg">
<g clip-path="url(#clip0_1_1706)">
<g clip-path="url(#clip1_1_1706)">
<path d="M13.1116 35.2791C11.8379 33.9457 10.8342 32.4211 10.1006 30.7052C9.36685 28.9892 9 27.2318 9 25.4329C9 23.4355 9.3673 21.5246 10.1019 19.7002C10.8365 17.8759 11.9641 16.2034 13.4846 14.6829C14.7538 13.4031 16.3705 12.4043 18.3346 11.6865C20.2987 10.9687 22.4237 10.4426 24.7096 10.108C26.9955 9.77332 29.3526 9.58613 31.7808 9.5464C34.209 9.50663 36.5346 9.53932 38.7577 9.64445C38.8962 11.8855 38.9494 14.2284 38.9173 16.6733C38.8853 19.1182 38.6955 21.4833 38.3481 23.7685C38.0007 26.0538 37.4571 28.1747 36.7173 30.1313C35.9776 32.0878 34.9769 33.7 33.7152 34.9679C32.2307 36.4933 30.6013 37.6252 28.827 38.3637C27.0526 39.1021 25.224 39.4714 23.3412 39.4714C21.4086 39.4714 19.5545 39.1182 17.7788 38.4118C16.0032 37.7054 14.4475 36.6611 13.1116 35.2791ZM16.2615 35.7983C17.2487 36.4932 18.3692 37.0227 19.6231 37.3868C20.8769 37.7509 22.1156 37.9329 23.3391 37.9329C25.0047 37.9329 26.6345 37.5983 28.2284 36.9291C29.8223 36.2598 31.2898 35.238 32.6308 33.8637C33.3721 33.1175 34.0506 32.1156 34.6662 30.8579C35.2817 29.6002 35.8005 28.0438 36.2225 26.1887C36.6446 24.3335 36.9534 22.1624 37.149 19.6752C37.3445 17.188 37.3885 14.329 37.2808 11.0983C34.968 11.0316 32.666 11.0476 30.375 11.1464C28.084 11.2451 25.9372 11.4752 23.9346 11.8368C21.932 12.1983 20.132 12.6874 18.5346 13.3041C16.9372 13.9207 15.6538 14.7175 14.6846 15.6944C13.259 17.1278 12.2115 18.6701 11.5423 20.3214C10.8731 21.9726 10.5384 23.5419 10.5384 25.0291C10.5384 26.6803 10.8865 28.3553 11.5827 30.0541C12.2788 31.7528 13.2423 33.1483 14.4731 34.2406C15.4448 31.5893 16.85 29.1432 18.6885 26.9021C20.5269 24.6611 22.9449 22.6239 25.9423 20.7906C23.4269 22.9829 21.3846 25.2682 19.8154 27.6464C18.2462 30.0246 17.0615 32.7419 16.2615 35.7983Z" fill="#1C1B1F"/>
</g>
</g>
<defs>
<clipPath id="clip0_1_1706">
<rect width="48" height="48" fill="white" transform="translate(0 0.530029)"/>
</clipPath>
<clipPath id="clip1_1_1706">
<rect width="48" height="48" fill="white" transform="translate(0 0.530029)"/>
</clipPath>
</defs>
</svg>
