<svg width="13" height="13" viewBox="0 0 13 13" fill="none" xmlns="http://www.w3.org/2000/svg">
<g clip-path="url(#clip0_1_2230)">
<g clip-path="url(#clip1_1_2230)">
<g clip-path="url(#clip2_1_2230)">
<path d="M4.5496 8.29119L10.8681 1.97267C11.0068 1.83399 11.1888 1.76465 11.4142 1.76465C11.6395 1.76465 11.8215 1.83399 11.9602 1.97267C12.0989 2.11134 12.1682 2.29336 12.1682 2.51871C12.1682 2.74406 12.0989 2.92608 11.9602 3.06476L5.19965 9.79931C5.00897 9.99 4.79228 10.0853 4.5496 10.0853C4.30691 10.0853 4.09023 9.99 3.89954 9.79931L1.29933 7.2251C1.16065 7.08643 1.09131 6.90441 1.09131 6.67905C1.09131 6.4537 1.16065 6.27169 1.29933 6.13301C1.438 5.99433 1.62002 5.92499 1.84537 5.92499C2.07072 5.92499 2.25274 5.99433 2.39142 6.13301L4.5496 8.29119Z" fill="white"/>
</g>
</g>
</g>
<defs>
<clipPath id="clip0_1_2230">
<rect width="12" height="12" fill="white" transform="translate(0.629883 0.380005)"/>
</clipPath>
<clipPath id="clip1_1_2230">
<rect width="12" height="12" fill="white" transform="translate(0.629883 0.380005)"/>
</clipPath>
<clipPath id="clip2_1_2230">
<rect width="12" height="9.23077" fill="white" transform="translate(0.629883 1.76465)"/>
</clipPath>
</defs>
</svg>
