<svg width="54" height="41" viewBox="0 0 54 41" fill="none" xmlns="http://www.w3.org/2000/svg">
<g clip-path="url(#clip0_1_740)">
<g clip-path="url(#clip1_1_740)">
<g clip-path="url(#clip2_1_740)">
<path fill-rule="evenodd" clip-rule="evenodd" d="M25.0351 26.1576V20.0453H28.194C29.4885 20.0453 30.5811 19.6121 31.4718 18.7578L31.6855 18.5412C33.3125 16.7725 33.2056 14.0171 31.4718 12.3808C30.6048 11.5144 29.4172 11.0452 28.194 11.0692H23.123V26.1576H25.0351ZM25.0354 18.1925V12.9224H28.2423C28.9312 12.9224 29.5845 13.1871 30.0715 13.6684C31.1049 14.6791 31.1286 16.3636 30.1309 17.4104C29.6439 17.9278 28.955 18.2165 28.2423 18.1925H25.0354ZM40.605 16.6406C39.7855 15.8826 38.6692 15.4976 37.256 15.4976C35.439 15.4976 34.0733 16.1714 33.1707 17.5069L34.8571 18.5778C35.4746 17.6634 36.3178 17.2061 37.3866 17.2061C38.0636 17.2061 38.7167 17.4588 39.2274 17.916C39.7262 18.3492 40.0112 18.9749 40.0112 19.6366V20.0818C39.2749 19.6727 38.3486 19.4562 37.2085 19.4562C35.8784 19.4562 34.8096 19.769 34.0139 20.4067C33.2182 21.0444 32.8144 21.8867 32.8144 22.9575C32.7907 23.9321 33.2063 24.8586 33.9426 25.4843C34.6908 26.1581 35.6409 26.495 36.7572 26.495C38.0754 26.495 39.1205 25.9054 39.9162 24.7263H39.9993V26.1581H41.8282V19.7931C41.8282 18.4575 41.4244 17.3986 40.605 16.6406ZM35.4156 24.2569C35.0236 23.9681 34.7861 23.4988 34.7861 22.9935C34.7861 22.428 35.0474 21.9587 35.5581 21.5857C36.0808 21.2127 36.734 21.0202 37.5061 21.0202C38.5751 21.0082 39.4065 21.2488 40.0004 21.7301C40.0004 22.5483 39.6797 23.2582 39.0502 23.8598C38.48 24.4373 37.708 24.7622 36.9003 24.7622C36.3658 24.7742 35.8432 24.5938 35.4156 24.2569ZM45.9368 30.6942L52.326 15.8345H50.2477L47.2907 23.2463H47.255L44.2267 15.8345H42.1484L46.3406 25.4963L43.9654 30.6942H45.9368Z" fill="#3C4043"/>
<path d="M18.4337 18.722C18.4337 18.1325 18.3862 17.5429 18.2912 16.9653H10.2275V20.2983H14.8472C14.6572 21.3691 14.0397 22.3317 13.1371 22.9333V25.0991H15.8923C17.5074 23.5951 18.4337 21.3691 18.4337 18.722Z" fill="#4285F4"/>
<path d="M10.228 27.1926C12.5319 27.1926 14.4795 26.4225 15.8927 25.099L13.1375 22.9332C12.3656 23.4626 11.3799 23.7634 10.228 23.7634C7.9953 23.7634 6.10704 22.2353 5.43012 20.1899H2.5918V22.4278C4.04065 25.3517 6.99773 27.1926 10.228 27.1926Z" fill="#34A853"/>
<path d="M5.43016 20.1899C5.07382 19.119 5.07382 17.9519 5.43016 16.869V14.6431H2.59138C1.36798 17.0856 1.36798 19.9733 2.59138 22.4159L5.43016 20.1899Z" fill="#FBBC04"/>
<path d="M10.228 13.2954C11.4512 13.2714 12.6269 13.7406 13.5057 14.5949L15.9521 12.1163C14.3964 10.6483 12.3537 9.84218 10.228 9.86625C6.99773 9.86625 4.04065 11.7192 2.5918 14.643L5.43012 16.881C6.10704 14.8235 7.9953 13.2954 10.228 13.2954Z" fill="#EA4335"/>
</g>
</g>
</g>
<defs>
<clipPath id="clip0_1_740">
<rect width="53" height="40" fill="white" transform="translate(0.5 0.279785)"/>
</clipPath>
<clipPath id="clip1_1_740">
<rect width="53" height="40" fill="white" transform="translate(0.5 0.279785)"/>
</clipPath>
<clipPath id="clip2_1_740">
<rect width="53" height="22" fill="white" transform="translate(0.5 9.27979)"/>
</clipPath>
</defs>
</svg>
