<svg width="2519" height="23" viewBox="0 0 2519 23" fill="none" xmlns="http://www.w3.org/2000/svg">
<path d="M0.899902 22.4677C59.9234 22.4677 96.277 0.512573 158.262 0.512573C220.247 0.512573 253.639 22.4677 315.624 22.4677C377.609 22.4677 411.001 0.512573 472.986 0.512573C534.971 0.512573 567.342 22.4677 630.348 22.4677" stroke="#E8EAEF" stroke-width="1.02117" stroke-miterlimit="6.9189"/>
<path d="M630.246 22.4677C689.269 22.4677 725.623 0.512573 787.608 0.512573C849.593 0.512573 882.985 22.4677 944.97 22.4677C1006.95 22.4677 1040.35 0.512573 1102.33 0.512573C1164.32 0.512573 1196.69 22.4677 1259.69 22.4677" stroke="#E8EAEF" stroke-width="1.02117" stroke-miterlimit="6.9189"/>
<path d="M1259.49 22.4677C1318.51 22.4677 1354.87 0.512573 1416.85 0.512573C1478.84 0.512573 1512.23 22.4677 1574.21 22.4677C1636.2 22.4677 1669.59 0.512573 1731.58 0.512573C1793.56 0.512573 1825.93 22.4677 1888.94 22.4677" stroke="#E8EAEF" stroke-width="1.02117" stroke-miterlimit="6.9189"/>
<path d="M1888.84 22.4677C1947.86 22.4677 1984.21 0.512573 2046.2 0.512573C2108.18 0.512573 2141.57 22.4677 2203.56 22.4677C2265.54 22.4677 2298.94 0.512573 2360.92 0.512573C2422.91 0.512573 2455.28 22.4677 2518.28 22.4677" stroke="#E8EAEF" stroke-width="1.02117" stroke-miterlimit="6.9189"/>
</svg>
