<svg width="2519" height="24" viewBox="0 0 2519 24" fill="none" xmlns="http://www.w3.org/2000/svg">
<path d="M0.899902 23.05C59.9234 23.05 96.277 1.09491 158.262 1.09491C220.247 1.09491 253.639 23.05 315.624 23.05C377.609 23.05 411.001 1.09491 472.986 1.09491C534.971 1.09491 567.342 23.05 630.348 23.05" stroke="#DDE0E6" stroke-width="1.02117" stroke-miterlimit="5.2973"/>
<path d="M630.246 23.05C689.269 23.05 725.623 1.09491 787.608 1.09491C849.593 1.09491 882.985 23.05 944.97 23.05C1006.95 23.05 1040.35 1.09491 1102.33 1.09491C1164.32 1.09491 1196.69 23.05 1259.69 23.05" stroke="#DDE0E6" stroke-width="1.02117" stroke-miterlimit="5.2973"/>
<path d="M1259.49 23.05C1318.51 23.05 1354.87 1.09491 1416.85 1.09491C1478.84 1.09491 1512.23 23.05 1574.21 23.05C1636.2 23.05 1669.59 1.09491 1731.58 1.09491C1793.56 1.09491 1825.93 23.05 1888.94 23.05" stroke="#DDE0E6" stroke-width="1.02117" stroke-miterlimit="5.2973"/>
<path d="M1888.84 23.05C1947.86 23.05 1984.21 1.09491 2046.2 1.09491C2108.18 1.09491 2141.57 23.05 2203.56 23.05C2265.54 23.05 2298.94 1.09491 2360.92 1.09491C2422.91 1.09491 2455.28 23.05 2518.28 23.05" stroke="#DDE0E6" stroke-width="1.02117" stroke-miterlimit="5.2973"/>
</svg>
