<svg width="2519" height="24" viewBox="0 0 2519 24" fill="none" xmlns="http://www.w3.org/2000/svg">
<path d="M0.899902 23.3382C59.9234 23.3382 96.277 1.38309 158.262 1.38309C220.247 1.38309 253.639 23.3382 315.624 23.3382C377.609 23.3382 411.001 1.38309 472.986 1.38309C534.971 1.38309 567.342 23.3382 630.348 23.3382" stroke="#D5D9E1" stroke-width="1.02117" stroke-miterlimit="4.3243"/>
<path d="M630.246 23.3382C689.269 23.3382 725.623 1.38309 787.608 1.38309C849.593 1.38309 882.985 23.3382 944.97 23.3382C1006.95 23.3382 1040.35 1.38309 1102.33 1.38309C1164.32 1.38309 1196.69 23.3382 1259.69 23.3382" stroke="#D5D9E1" stroke-width="1.02117" stroke-miterlimit="4.3243"/>
<path d="M1259.49 23.3382C1318.51 23.3382 1354.87 1.38309 1416.85 1.38309C1478.84 1.38309 1512.23 23.3382 1574.21 23.3382C1636.2 23.3382 1669.59 1.38309 1731.58 1.38309C1793.56 1.38309 1825.93 23.3382 1888.94 23.3382" stroke="#D5D9E1" stroke-width="1.02117" stroke-miterlimit="4.3243"/>
<path d="M1888.84 23.3382C1947.86 23.3382 1984.21 1.38309 2046.2 1.38309C2108.18 1.38309 2141.57 23.3382 2203.56 23.3382C2265.54 23.3382 2298.94 1.38309 2360.92 1.38309C2422.91 1.38309 2455.28 23.3382 2518.28 23.3382" stroke="#D5D9E1" stroke-width="1.02117" stroke-miterlimit="4.3243"/>
</svg>
