<svg width="2519" height="24" viewBox="0 0 2519 24" fill="none" xmlns="http://www.w3.org/2000/svg">
<path d="M0.899902 22.8862C59.9234 22.8862 96.277 0.931091 158.262 0.931091C220.247 0.931091 253.639 22.8862 315.624 22.8862C377.609 22.8862 411.001 0.931091 472.986 0.931091C534.971 0.931091 567.342 22.8862 630.348 22.8862" stroke="#D4D8E0" stroke-width="1.02117" stroke-miterlimit="4.1622"/>
<path d="M630.246 22.8862C689.269 22.8862 725.623 0.931122 787.608 0.931122C849.593 0.931122 882.985 22.8862 944.97 22.8862C1006.95 22.8862 1040.35 0.931122 1102.33 0.931122C1164.32 0.931122 1196.69 22.8862 1259.69 22.8862" stroke="#D4D8E0" stroke-width="1.02117" stroke-miterlimit="4.1622"/>
<path d="M1259.49 22.8862C1318.51 22.8862 1354.87 0.931122 1416.85 0.931122C1478.84 0.931122 1512.23 22.8862 1574.21 22.8862C1636.2 22.8862 1669.59 0.931122 1731.58 0.931122C1793.56 0.931122 1825.93 22.8862 1888.94 22.8862" stroke="#D4D8E0" stroke-width="1.02117" stroke-miterlimit="4.1622"/>
<path d="M1888.84 22.8862C1947.86 22.8862 1984.21 0.931122 2046.2 0.931122C2108.18 0.931122 2141.57 22.8862 2203.56 22.8862C2265.54 22.8862 2298.94 0.931122 2360.92 0.931122C2422.91 0.931122 2455.28 22.8862 2518.28 22.8862" stroke="#D4D8E0" stroke-width="1.02117" stroke-miterlimit="4.1622"/>
</svg>
