<svg width="2519" height="24" viewBox="0 0 2519 24" fill="none" xmlns="http://www.w3.org/2000/svg">
<path d="M0.899902 23.3716C59.9234 23.3716 96.277 1.4165 158.262 1.4165C220.247 1.4165 253.639 23.3716 315.624 23.3716C377.609 23.3716 411.001 1.4165 472.986 1.4165C534.971 1.4165 567.342 23.3716 630.348 23.3716" stroke="#EBEDF0" stroke-width="1.02117" stroke-miterlimit="7.2432"/>
<path d="M630.246 23.3716C689.269 23.3716 725.623 1.4165 787.608 1.4165C849.593 1.4165 882.985 23.3716 944.97 23.3716C1006.95 23.3716 1040.35 1.4165 1102.33 1.4165C1164.32 1.4165 1196.69 23.3716 1259.69 23.3716" stroke="#EBEDF0" stroke-width="1.02117" stroke-miterlimit="7.2432"/>
<path d="M1259.49 23.3716C1318.51 23.3716 1354.87 1.4165 1416.85 1.4165C1478.84 1.4165 1512.23 23.3716 1574.21 23.3716C1636.2 23.3716 1669.59 1.4165 1731.58 1.4165C1793.56 1.4165 1825.93 23.3716 1888.94 23.3716" stroke="#EBEDF0" stroke-width="1.02117" stroke-miterlimit="7.2432"/>
<path d="M1888.84 23.3716C1947.86 23.3716 1984.21 1.4165 2046.2 1.4165C2108.18 1.4165 2141.57 23.3716 2203.56 23.3716C2265.54 23.3716 2298.94 1.4165 2360.92 1.4165C2422.91 1.4165 2455.28 23.3716 2518.28 23.3716" stroke="#EBEDF0" stroke-width="1.02117" stroke-miterlimit="7.2432"/>
</svg>
