<svg width="2519" height="24" viewBox="0 0 2519 24" fill="none" xmlns="http://www.w3.org/2000/svg">
<path d="M0.899902 22.6315C59.9234 22.6315 96.277 0.676392 158.262 0.676392C220.247 0.676392 253.639 22.6315 315.624 22.6315C377.609 22.6315 411.001 0.676392 472.986 0.676392C534.971 0.676392 567.342 22.6315 630.348 22.6315" stroke="#F1F2F5" stroke-width="1.02117" stroke-miterlimit="8.0541"/>
<path d="M630.246 22.6315C689.269 22.6315 725.623 0.676392 787.608 0.676392C849.593 0.676392 882.985 22.6315 944.97 22.6315C1006.95 22.6315 1040.35 0.676392 1102.33 0.676392C1164.32 0.676392 1196.69 22.6315 1259.69 22.6315" stroke="#F1F2F5" stroke-width="1.02117" stroke-miterlimit="8.0541"/>
<path d="M1259.49 22.6315C1318.51 22.6315 1354.87 0.676392 1416.85 0.676392C1478.84 0.676392 1512.23 22.6315 1574.21 22.6315C1636.2 22.6315 1669.59 0.676392 1731.58 0.676392C1793.56 0.676392 1825.93 22.6315 1888.94 22.6315" stroke="#F1F2F5" stroke-width="1.02117" stroke-miterlimit="8.0541"/>
<path d="M1888.84 22.6315C1947.86 22.6315 1984.21 0.676392 2046.2 0.676392C2108.18 0.676392 2141.57 22.6315 2203.56 22.6315C2265.54 22.6315 2298.94 0.676392 2360.92 0.676392C2422.91 0.676392 2455.28 22.6315 2518.28 22.6315" stroke="#F1F2F5" stroke-width="1.02117" stroke-miterlimit="8.0541"/>
</svg>
