<svg width="2519" height="24" viewBox="0 0 2519 24" fill="none" xmlns="http://www.w3.org/2000/svg">
<path d="M0.899902 23.0835C59.9234 23.0835 96.277 1.12842 158.262 1.12842C220.247 1.12842 253.639 23.0835 315.624 23.0835C377.609 23.0835 411.001 1.12842 472.986 1.12842C534.971 1.12842 567.342 23.0835 630.348 23.0835" stroke="#F2F3F5" stroke-width="1.02117" stroke-miterlimit="8.2162"/>
<path d="M630.246 23.0835C689.269 23.0835 725.623 1.12842 787.608 1.12842C849.593 1.12842 882.985 23.0835 944.97 23.0835C1006.95 23.0835 1040.35 1.12842 1102.33 1.12842C1164.32 1.12842 1196.69 23.0835 1259.69 23.0835" stroke="#F2F3F5" stroke-width="1.02117" stroke-miterlimit="8.2162"/>
<path d="M1259.49 23.0835C1318.51 23.0835 1354.87 1.12842 1416.85 1.12842C1478.84 1.12842 1512.23 23.0835 1574.21 23.0835C1636.2 23.0835 1669.59 1.12842 1731.58 1.12842C1793.56 1.12842 1825.93 23.0835 1888.94 23.0835" stroke="#F2F3F5" stroke-width="1.02117" stroke-miterlimit="8.2162"/>
<path d="M1888.84 23.0835C1947.86 23.0835 1984.21 1.12842 2046.2 1.12842C2108.18 1.12842 2141.57 23.0835 2203.56 23.0835C2265.54 23.0835 2298.94 1.12842 2360.92 1.12842C2422.91 1.12842 2455.28 23.0835 2518.28 23.0835" stroke="#F2F3F5" stroke-width="1.02117" stroke-miterlimit="8.2162"/>
</svg>
