<svg width="2519" height="24" viewBox="0 0 2519 24" fill="none" xmlns="http://www.w3.org/2000/svg">
<path d="M0.899902 23.3039C59.9234 23.3039 96.277 1.34875 158.262 1.34875C220.247 1.34875 253.639 23.3039 315.624 23.3039C377.609 23.3039 411.001 1.34875 472.986 1.34875C534.971 1.34875 567.342 23.3039 630.348 23.3039" stroke="#E0E3E9" stroke-width="1.02117" stroke-miterlimit="5.7838"/>
<path d="M630.246 23.3039C689.269 23.3039 725.623 1.34875 787.608 1.34875C849.593 1.34875 882.985 23.3039 944.97 23.3039C1006.95 23.3039 1040.35 1.34875 1102.33 1.34875C1164.32 1.34875 1196.69 23.3039 1259.69 23.3039" stroke="#E0E3E9" stroke-width="1.02117" stroke-miterlimit="5.7838"/>
<path d="M1259.49 23.3039C1318.51 23.3039 1354.87 1.34875 1416.85 1.34875C1478.84 1.34875 1512.23 23.3039 1574.21 23.3039C1636.2 23.3039 1669.59 1.34875 1731.58 1.34875C1793.56 1.34875 1825.93 23.3039 1888.94 23.3039" stroke="#E0E3E9" stroke-width="1.02117" stroke-miterlimit="5.7838"/>
<path d="M1888.84 23.3039C1947.86 23.3039 1984.21 1.34875 2046.2 1.34875C2108.18 1.34875 2141.57 23.3039 2203.56 23.3039C2265.54 23.3039 2298.94 1.34875 2360.92 1.34875C2422.91 1.34875 2455.28 23.3039 2518.28 23.3039" stroke="#E0E3E9" stroke-width="1.02117" stroke-miterlimit="5.7838"/>
</svg>
