<svg width="2519" height="24" viewBox="0 0 2519 24" fill="none" xmlns="http://www.w3.org/2000/svg">
<path d="M0.899902 23.2078C59.9234 23.2078 96.277 1.25269 158.262 1.25269C220.247 1.25269 253.639 23.2078 315.624 23.2078C377.609 23.2078 411.001 1.25269 472.986 1.25269C534.971 1.25269 567.342 23.2078 630.348 23.2078" stroke="#E2E5EA" stroke-width="1.02117" stroke-miterlimit="6.1081"/>
<path d="M630.246 23.2078C689.269 23.2078 725.623 1.25269 787.608 1.25269C849.593 1.25269 882.985 23.2078 944.97 23.2078C1006.95 23.2078 1040.35 1.25269 1102.33 1.25269C1164.32 1.25269 1196.69 23.2078 1259.69 23.2078" stroke="#E2E5EA" stroke-width="1.02117" stroke-miterlimit="6.1081"/>
<path d="M1259.49 23.2078C1318.51 23.2078 1354.87 1.25269 1416.85 1.25269C1478.84 1.25269 1512.23 23.2078 1574.21 23.2078C1636.2 23.2078 1669.59 1.25269 1731.58 1.25269C1793.56 1.25269 1825.93 23.2078 1888.94 23.2078" stroke="#E2E5EA" stroke-width="1.02117" stroke-miterlimit="6.1081"/>
<path d="M1888.84 23.2078C1947.86 23.2078 1984.21 1.25269 2046.2 1.25269C2108.18 1.25269 2141.57 23.2078 2203.56 23.2078C2265.54 23.2078 2298.94 1.25269 2360.92 1.25269C2422.91 1.25269 2455.28 23.2078 2518.28 23.2078" stroke="#E2E5EA" stroke-width="1.02117" stroke-miterlimit="6.1081"/>
</svg>
