<svg width="2519" height="24" viewBox="0 0 2519 24" fill="none" xmlns="http://www.w3.org/2000/svg">
<path d="M0.899902 22.5981C59.9234 22.5981 96.277 0.642944 158.262 0.642944C220.247 0.642944 253.639 22.5981 315.624 22.5981C377.609 22.5981 411.001 0.642944 472.986 0.642944C534.971 0.642944 567.342 22.5981 630.348 22.5981" stroke="#DBDFE5" stroke-width="1.02117" stroke-miterlimit="5.1351"/>
<path d="M630.246 22.5981C689.269 22.5981 725.623 0.642944 787.608 0.642944C849.593 0.642944 882.985 22.5981 944.97 22.5981C1006.95 22.5981 1040.35 0.642944 1102.33 0.642944C1164.32 0.642944 1196.69 22.5981 1259.69 22.5981" stroke="#DBDFE5" stroke-width="1.02117" stroke-miterlimit="5.1351"/>
<path d="M1259.49 22.5981C1318.51 22.5981 1354.87 0.642944 1416.85 0.642944C1478.84 0.642944 1512.23 22.5981 1574.21 22.5981C1636.2 22.5981 1669.59 0.642944 1731.58 0.642944C1793.56 0.642944 1825.93 22.5981 1888.94 22.5981" stroke="#DBDFE5" stroke-width="1.02117" stroke-miterlimit="5.1351"/>
<path d="M1888.84 22.5981C1947.86 22.5981 1984.21 0.642944 2046.2 0.642944C2108.18 0.642944 2141.57 22.5981 2203.56 22.5981C2265.54 22.5981 2298.94 0.642944 2360.92 0.642944C2422.91 0.642944 2455.28 22.5981 2518.28 22.5981" stroke="#DBDFE5" stroke-width="1.02117" stroke-miterlimit="5.1351"/>
</svg>
