<svg width="2519" height="24" viewBox="0 0 2519 24" fill="none" xmlns="http://www.w3.org/2000/svg">
<path d="M0.899902 23.2421C59.9234 23.2421 96.277 1.28702 158.262 1.28702C220.247 1.28702 253.639 23.2421 315.624 23.2421C377.609 23.2421 411.001 1.28702 472.986 1.28702C534.971 1.28702 567.342 23.2421 630.348 23.2421" stroke="#D8DBE2" stroke-width="1.02117" stroke-miterlimit="4.6486"/>
<path d="M630.246 23.2421C689.269 23.2421 725.623 1.28702 787.608 1.28702C849.593 1.28702 882.985 23.2421 944.97 23.2421C1006.95 23.2421 1040.35 1.28702 1102.33 1.28702C1164.32 1.28702 1196.69 23.2421 1259.69 23.2421" stroke="#D8DBE2" stroke-width="1.02117" stroke-miterlimit="4.6486"/>
<path d="M1259.49 23.2421C1318.51 23.2421 1354.87 1.28702 1416.85 1.28702C1478.84 1.28702 1512.23 23.2421 1574.21 23.2421C1636.2 23.2421 1669.59 1.28702 1731.58 1.28702C1793.56 1.28702 1825.93 23.2421 1888.94 23.2421" stroke="#D8DBE2" stroke-width="1.02117" stroke-miterlimit="4.6486"/>
<path d="M1888.84 23.2421C1947.86 23.2421 1984.21 1.28702 2046.2 1.28702C2108.18 1.28702 2141.57 23.2421 2203.56 23.2421C2265.54 23.2421 2298.94 1.28702 2360.92 1.28702C2422.91 1.28702 2455.28 23.2421 2518.28 23.2421" stroke="#D8DBE2" stroke-width="1.02117" stroke-miterlimit="4.6486"/>
</svg>
