<svg width="2519" height="24" viewBox="0 0 2519 24" fill="none" xmlns="http://www.w3.org/2000/svg">
<path d="M0.899902 22.8518C59.9234 22.8518 96.277 0.896729 158.262 0.896729C220.247 0.896729 253.639 22.8518 315.624 22.8518C377.609 22.8518 411.001 0.896729 472.986 0.896729C534.971 0.896729 567.342 22.8518 630.348 22.8518" stroke="#DFE2E8" stroke-width="1.02117" stroke-miterlimit="5.6216"/>
<path d="M630.246 22.8518C689.269 22.8518 725.623 0.896729 787.608 0.896729C849.593 0.896729 882.985 22.8518 944.97 22.8518C1006.95 22.8518 1040.35 0.896729 1102.33 0.896729C1164.32 0.896729 1196.69 22.8518 1259.69 22.8518" stroke="#DFE2E8" stroke-width="1.02117" stroke-miterlimit="5.6216"/>
<path d="M1259.49 22.8518C1318.51 22.8518 1354.87 0.896729 1416.85 0.896729C1478.84 0.896729 1512.23 22.8518 1574.21 22.8518C1636.2 22.8518 1669.59 0.896729 1731.58 0.896729C1793.56 0.896729 1825.93 22.8518 1888.94 22.8518" stroke="#DFE2E8" stroke-width="1.02117" stroke-miterlimit="5.6216"/>
<path d="M1888.84 22.8518C1947.86 22.8518 1984.21 0.896729 2046.2 0.896729C2108.18 0.896729 2141.57 22.8518 2203.56 22.8518C2265.54 22.8518 2298.94 0.896729 2360.92 0.896729C2422.91 0.896729 2455.28 22.8518 2518.28 22.8518" stroke="#DFE2E8" stroke-width="1.02117" stroke-miterlimit="5.6216"/>
</svg>
