<svg width="2519" height="24" viewBox="0 0 2519 24" fill="none" xmlns="http://www.w3.org/2000/svg">
<path d="M0.899902 22.9196C59.9234 22.9196 96.277 0.964478 158.262 0.964478C220.247 0.964478 253.639 22.9196 315.624 22.9196C377.609 22.9196 411.001 0.964478 472.986 0.964478C534.971 0.964478 567.342 22.9196 630.348 22.9196" stroke="#EAECEF" stroke-width="1.02117" stroke-miterlimit="7.0811"/>
<path d="M630.246 22.9196C689.269 22.9196 725.623 0.964478 787.608 0.964478C849.593 0.964478 882.985 22.9196 944.97 22.9196C1006.95 22.9196 1040.35 0.964478 1102.33 0.964478C1164.32 0.964478 1196.69 22.9196 1259.69 22.9196" stroke="#EAECEF" stroke-width="1.02117" stroke-miterlimit="7.0811"/>
<path d="M1259.49 22.9196C1318.51 22.9196 1354.87 0.964478 1416.85 0.964478C1478.84 0.964478 1512.23 22.9196 1574.21 22.9196C1636.2 22.9196 1669.59 0.964478 1731.58 0.964478C1793.56 0.964478 1825.93 22.9196 1888.94 22.9196" stroke="#EAECEF" stroke-width="1.02117" stroke-miterlimit="7.0811"/>
<path d="M1888.84 22.9196C1947.86 22.9196 1984.21 0.964478 2046.2 0.964478C2108.18 0.964478 2141.57 22.9196 2203.56 22.9196C2265.54 22.9196 2298.94 0.964478 2360.92 0.964478C2422.91 0.964478 2455.28 22.9196 2518.28 22.9196" stroke="#EAECEF" stroke-width="1.02117" stroke-miterlimit="7.0811"/>
</svg>
