<svg width="2519" height="24" viewBox="0 0 2519 24" fill="none" xmlns="http://www.w3.org/2000/svg">
<path d="M0.899902 22.5354C59.9234 22.5354 96.277 0.580322 158.262 0.580322C220.247 0.580322 253.639 22.5354 315.624 22.5354C377.609 22.5354 411.001 0.580322 472.986 0.580322C534.971 0.580322 567.24 22.5354 630.246 22.5354" stroke="#F3F4F6" stroke-width="1.02117" stroke-miterlimit="8.3784"/>
<path d="M630.246 22.5354C689.269 22.5354 725.623 0.580322 787.608 0.580322C849.593 0.580322 882.883 22.5354 944.868 22.5354C1006.85 22.5354 1040.24 0.580322 1102.23 0.580322C1164.21 0.580322 1196.59 22.5354 1259.59 22.5354" stroke="#F3F4F6" stroke-width="1.02117" stroke-miterlimit="8.3784"/>
<path d="M1259.49 22.5354C1318.51 22.5354 1354.87 0.580322 1416.85 0.580322C1478.84 0.580322 1512.23 22.5354 1574.21 22.5354C1636.2 22.5354 1669.59 0.580322 1731.58 0.580322C1793.56 0.580322 1825.93 22.5354 1888.94 22.5354" stroke="#F3F4F6" stroke-width="1.02117" stroke-miterlimit="8.3784"/>
<path d="M1888.84 22.5354C1947.86 22.5354 1984.21 0.580322 2046.2 0.580322C2108.18 0.580322 2141.57 22.5354 2203.56 22.5354C2265.54 22.5354 2298.94 0.580322 2360.92 0.580322C2422.91 0.580322 2455.28 22.5354 2518.28 22.5354" stroke="#F3F4F6" stroke-width="1.02117" stroke-miterlimit="8.3784"/>
</svg>
