<svg width="2519" height="24" viewBox="0 0 2519 24" fill="none" xmlns="http://www.w3.org/2000/svg">
<path d="M0.899902 22.6933C59.9234 22.6933 96.277 0.738159 158.262 0.738159C220.247 0.738159 253.639 22.6933 315.624 22.6933C377.609 22.6933 411.001 0.738159 472.986 0.738159C534.971 0.738159 567.342 22.6933 630.348 22.6933" stroke="#F9FAFB" stroke-width="1.02117" stroke-miterlimit="9.1892"/>
<path d="M630.246 22.6933C689.269 22.6933 725.623 0.738159 787.608 0.738159C849.593 0.738159 882.985 22.6933 944.97 22.6933C1006.95 22.6933 1040.35 0.738159 1102.33 0.738159C1164.32 0.738159 1196.69 22.6933 1259.69 22.6933" stroke="#F9FAFB" stroke-width="1.02117" stroke-miterlimit="9.1892"/>
<path d="M1259.49 22.6933C1318.51 22.6933 1354.87 0.738159 1416.85 0.738159C1478.84 0.738159 1512.23 22.6933 1574.21 22.6933C1636.2 22.6933 1669.59 0.738159 1731.58 0.738159C1793.56 0.738159 1825.93 22.6933 1888.94 22.6933" stroke="#F9FAFB" stroke-width="1.02117" stroke-miterlimit="9.1892"/>
<path d="M1888.84 22.6933C1947.86 22.6933 1984.21 0.738159 2046.2 0.738159C2108.18 0.738159 2141.57 22.6933 2203.56 22.6933C2265.54 22.6933 2298.94 0.738159 2360.92 0.738159C2422.91 0.738159 2455.28 22.6933 2518.28 22.6933" stroke="#F9FAFB" stroke-width="1.02117" stroke-miterlimit="9.1892"/>
</svg>
