<svg width="2519" height="24" viewBox="0 0 2519 24" fill="none" xmlns="http://www.w3.org/2000/svg">
<path d="M0.899902 22.7276C59.9234 22.7276 96.277 0.772461 158.262 0.772461C220.247 0.772461 253.639 22.7276 315.624 22.7276C377.609 22.7276 411.001 0.772461 472.986 0.772461C534.971 0.772461 567.342 22.7276 630.348 22.7276" stroke="#EEF0F3" stroke-width="1.02117" stroke-miterlimit="7.7297"/>
<path d="M630.246 22.7276C689.269 22.7276 725.623 0.772461 787.608 0.772461C849.593 0.772461 882.985 22.7276 944.97 22.7276C1006.95 22.7276 1040.35 0.772461 1102.33 0.772461C1164.32 0.772461 1196.69 22.7276 1259.69 22.7276" stroke="#EEF0F3" stroke-width="1.02117" stroke-miterlimit="7.7297"/>
<path d="M1259.49 22.7276C1318.51 22.7276 1354.87 0.772461 1416.85 0.772461C1478.84 0.772461 1512.23 22.7276 1574.21 22.7276C1636.2 22.7276 1669.59 0.772461 1731.58 0.772461C1793.56 0.772461 1825.93 22.7276 1888.94 22.7276" stroke="#EEF0F3" stroke-width="1.02117" stroke-miterlimit="7.7297"/>
<path d="M1888.84 22.7276C1947.86 22.7276 1984.21 0.772461 2046.2 0.772461C2108.18 0.772461 2141.57 22.7276 2203.56 22.7276C2265.54 22.7276 2298.94 0.772461 2360.92 0.772461C2422.91 0.772461 2455.28 22.7276 2518.28 22.7276" stroke="#EEF0F3" stroke-width="1.02117" stroke-miterlimit="7.7297"/>
</svg>
