<svg width="2519" height="24" viewBox="0 0 2519 24" fill="none" xmlns="http://www.w3.org/2000/svg">
<path d="M0.899902 22.6598C59.9234 22.6598 96.277 0.704712 158.262 0.704712C220.247 0.704712 253.639 22.6598 315.624 22.6598C377.609 22.6598 411.001 0.704712 472.986 0.704712C534.971 0.704712 567.342 22.6598 630.348 22.6598" stroke="#E4E6EB" stroke-width="1.02117" stroke-miterlimit="6.2703"/>
<path d="M630.246 22.6598C689.269 22.6598 725.623 0.704712 787.608 0.704712C849.593 0.704712 882.985 22.6598 944.97 22.6598C1006.95 22.6598 1040.35 0.704712 1102.33 0.704712C1164.32 0.704712 1196.69 22.6598 1259.69 22.6598" stroke="#E4E6EB" stroke-width="1.02117" stroke-miterlimit="6.2703"/>
<path d="M1259.49 22.6598C1318.51 22.6598 1354.87 0.704712 1416.85 0.704712C1478.84 0.704712 1512.23 22.6598 1574.21 22.6598C1636.2 22.6598 1669.59 0.704712 1731.58 0.704712C1793.56 0.704712 1825.93 22.6598 1888.94 22.6598" stroke="#E4E6EB" stroke-width="1.02117" stroke-miterlimit="6.2703"/>
<path d="M1888.84 22.6598C1947.86 22.6598 1984.21 0.704712 2046.2 0.704712C2108.18 0.704712 2141.57 22.6598 2203.56 22.6598C2265.54 22.6598 2298.94 0.704712 2360.92 0.704712C2422.91 0.704712 2455.28 22.6598 2518.28 22.6598" stroke="#E4E6EB" stroke-width="1.02117" stroke-miterlimit="6.2703"/>
</svg>
