<svg width="2519" height="24" viewBox="0 0 2519 24" fill="none" xmlns="http://www.w3.org/2000/svg">
<path d="M0.899902 23.1117C59.9234 23.1117 96.277 1.15662 158.262 1.15662C220.247 1.15662 253.639 23.1117 315.624 23.1117C377.609 23.1117 411.001 1.15662 472.986 1.15662C534.971 1.15662 567.342 23.1117 630.348 23.1117" stroke="#E5E7EC" stroke-width="1.02117" stroke-miterlimit="6.4324"/>
<path d="M630.246 23.1117C689.269 23.1117 725.623 1.15662 787.608 1.15662C849.593 1.15662 882.985 23.1117 944.97 23.1117C1006.95 23.1117 1040.35 1.15662 1102.33 1.15662C1164.32 1.15662 1196.69 23.1117 1259.69 23.1117" stroke="#E5E7EC" stroke-width="1.02117" stroke-miterlimit="6.4324"/>
<path d="M1259.49 23.1117C1318.51 23.1117 1354.87 1.15662 1416.85 1.15662C1478.84 1.15662 1512.23 23.1117 1574.21 23.1117C1636.2 23.1117 1669.59 1.15662 1731.58 1.15662C1793.56 1.15662 1825.93 23.1117 1888.94 23.1117" stroke="#E5E7EC" stroke-width="1.02117" stroke-miterlimit="6.4324"/>
<path d="M1888.84 23.1117C1947.86 23.1117 1984.21 1.15662 2046.2 1.15662C2108.18 1.15662 2141.57 23.1117 2203.56 23.1117C2265.54 23.1117 2298.94 1.15662 2360.92 1.15662C2422.91 1.15662 2455.28 23.1117 2518.28 23.1117" stroke="#E5E7EC" stroke-width="1.02117" stroke-miterlimit="6.4324"/>
</svg>
