<svg width="2519" height="24" viewBox="0 0 2519 24" fill="none" xmlns="http://www.w3.org/2000/svg">
<path d="M0.899902 22.6941C59.9234 22.6941 96.277 0.739014 158.262 0.739014C220.247 0.739014 253.639 22.6941 315.624 22.6941C377.609 22.6941 410.899 0.739014 472.884 0.739014C534.869 0.739014 567.24 22.6941 630.246 22.6941" stroke="#D9DCE3" stroke-width="1.02117" stroke-miterlimit="4.8108"/>
<path d="M630.246 22.6941C689.269 22.6941 725.623 0.739014 787.608 0.739014C849.593 0.739014 882.985 22.6941 944.97 22.6941C1006.95 22.6941 1040.24 0.739014 1102.13 0.739014C1164.11 0.739014 1196.48 22.6941 1259.49 22.6941" stroke="#D9DCE3" stroke-width="1.02117" stroke-miterlimit="4.8108"/>
<path d="M1259.49 22.6941C1318.51 22.6941 1354.87 0.739014 1416.85 0.739014C1478.84 0.739014 1512.23 22.6941 1574.21 22.6941C1636.2 22.6941 1669.59 0.739014 1731.58 0.739014C1793.56 0.739014 1825.93 22.6941 1888.94 22.6941" stroke="#D9DCE3" stroke-width="1.02117" stroke-miterlimit="4.8108"/>
<path d="M1888.84 22.6941C1947.86 22.6941 1984.21 0.739014 2046.2 0.739014C2108.18 0.739014 2141.57 22.6941 2203.56 22.6941C2265.54 22.6941 2298.94 0.739014 2360.92 0.739014C2422.91 0.739014 2455.28 22.6941 2518.28 22.6941" stroke="#D9DCE3" stroke-width="1.02117" stroke-miterlimit="4.8108"/>
</svg>
