<svg width="2519" height="24" viewBox="0 0 2519 24" fill="none" xmlns="http://www.w3.org/2000/svg">
<path d="M0.899902 23.0491C59.9234 23.0491 96.277 1.09399 158.262 1.09399C220.247 1.09399 253.639 23.0491 315.624 23.0491C377.609 23.0491 411.001 1.09399 472.986 1.09399C534.971 1.09399 567.342 23.0491 630.348 23.0491" stroke="#FDFDFD" stroke-width="1.02117" stroke-miterlimit="9.6757"/>
<path d="M630.246 23.0492C689.269 23.0492 725.623 1.09412 787.608 1.09412C849.593 1.09412 882.985 23.0492 944.97 23.0492C1006.95 23.0492 1040.35 1.09412 1102.33 1.09412C1164.32 1.09412 1196.69 23.0492 1259.69 23.0492" stroke="#FDFDFD" stroke-width="1.02117" stroke-miterlimit="9.6757"/>
<path d="M1259.49 23.0492C1318.51 23.0492 1354.87 1.09412 1416.85 1.09412C1478.84 1.09412 1512.23 23.0492 1574.21 23.0492C1636.2 23.0492 1669.59 1.09412 1731.58 1.09412C1793.56 1.09412 1825.93 23.0492 1888.94 23.0492" stroke="#FDFDFD" stroke-width="1.02117" stroke-miterlimit="9.6757"/>
<path d="M1888.84 23.0492C1947.86 23.0492 1984.21 1.09412 2046.2 1.09412C2108.18 1.09412 2141.57 23.0492 2203.56 23.0492C2265.54 23.0492 2298.94 1.09412 2360.92 1.09412C2422.91 1.09412 2455.28 23.0492 2518.28 23.0492" stroke="#FDFDFD" stroke-width="1.02117" stroke-miterlimit="9.6757"/>
</svg>
