<svg width="2519" height="24" viewBox="0 0 2519 24" fill="none" xmlns="http://www.w3.org/2000/svg">
<path d="M0.899902 22.9875C59.9234 22.9875 96.277 1.03235 158.262 1.03235C220.247 1.03235 253.639 22.9875 315.624 22.9875C377.609 22.9875 411.001 1.03235 472.986 1.03235C534.971 1.03235 567.342 22.9875 630.348 22.9875" stroke="#F4F5F7" stroke-width="1.02117" stroke-miterlimit="8.5405"/>
<path d="M630.246 22.9875C689.269 22.9875 725.623 1.03235 787.608 1.03235C849.593 1.03235 882.985 22.9875 944.97 22.9875C1006.95 22.9875 1040.35 1.03235 1102.33 1.03235C1164.32 1.03235 1196.69 22.9875 1259.69 22.9875" stroke="#F4F5F7" stroke-width="1.02117" stroke-miterlimit="8.5405"/>
<path d="M1259.49 22.9875C1318.51 22.9875 1354.87 1.03235 1416.85 1.03235C1478.84 1.03235 1512.23 22.9875 1574.21 22.9875C1636.2 22.9875 1669.59 1.03235 1731.58 1.03235C1793.56 1.03235 1825.93 22.9875 1888.94 22.9875" stroke="#F4F5F7" stroke-width="1.02117" stroke-miterlimit="8.5405"/>
<path d="M1888.84 22.9875C1947.86 22.9875 1984.21 1.03235 2046.2 1.03235C2108.18 1.03235 2141.57 22.9875 2203.56 22.9875C2265.54 22.9875 2298.94 1.03235 2360.92 1.03235C2422.91 1.03235 2455.28 22.9875 2518.28 22.9875" stroke="#F4F5F7" stroke-width="1.02117" stroke-miterlimit="8.5405"/>
</svg>
