<svg width="2519" height="24" viewBox="0 0 2519 24" fill="none" xmlns="http://www.w3.org/2000/svg">
<path d="M0.899902 22.7902C59.9234 22.7902 96.277 0.835052 158.262 0.835052C220.247 0.835052 253.639 22.7902 315.624 22.7902C377.609 22.7902 411.001 0.835052 472.986 0.835052C534.971 0.835052 567.342 22.7902 630.348 22.7902" stroke="#D7DAE2" stroke-width="1.02117" stroke-miterlimit="4.4865"/>
<path d="M630.246 22.7902C689.269 22.7902 725.623 0.835052 787.608 0.835052C849.593 0.835052 882.985 22.7902 944.97 22.7902C1006.95 22.7902 1040.35 0.835052 1102.33 0.835052C1164.32 0.835052 1196.69 22.7902 1259.69 22.7902" stroke="#D7DAE2" stroke-width="1.02117" stroke-miterlimit="4.4865"/>
<path d="M1259.49 22.7902C1318.51 22.7902 1354.87 0.835052 1416.85 0.835052C1478.84 0.835052 1512.23 22.7902 1574.21 22.7902C1636.2 22.7902 1669.59 0.835052 1731.58 0.835052C1793.56 0.835052 1825.93 22.7902 1888.94 22.7902" stroke="#D7DAE2" stroke-width="1.02117" stroke-miterlimit="4.4865"/>
<path d="M1888.84 22.7902C1947.86 22.7902 1984.21 0.835052 2046.2 0.835052C2108.18 0.835052 2141.57 22.7902 2203.56 22.7902C2265.54 22.7902 2298.94 0.835052 2360.92 0.835052C2422.91 0.835052 2455.28 22.7902 2518.28 22.7902" stroke="#D7DAE2" stroke-width="1.02117" stroke-miterlimit="4.4865"/>
</svg>
