<svg width="2519" height="24" viewBox="0 0 2519 24" fill="none" xmlns="http://www.w3.org/2000/svg">
<path d="M0.899902 22.953C59.9234 22.953 96.277 0.997925 158.262 0.997925C220.247 0.997925 253.639 22.953 315.624 22.953C377.609 22.953 411.001 0.997925 472.986 0.997925C534.971 0.997925 567.342 22.953 630.348 22.953" stroke="white" stroke-width="1.02117" stroke-miterlimit="10"/>
<path d="M630.246 22.9532C689.269 22.9532 725.623 0.998047 787.608 0.998047C849.593 0.998047 882.985 22.9532 944.97 22.9532C1006.95 22.9532 1040.35 0.998047 1102.33 0.998047C1164.32 0.998047 1196.69 22.9532 1259.69 22.9532" stroke="white" stroke-width="1.02117" stroke-miterlimit="10"/>
<path d="M1259.49 22.9532C1318.51 22.9532 1354.87 0.998047 1416.85 0.998047C1478.84 0.998047 1512.23 22.9532 1574.21 22.9532C1636.2 22.9532 1669.59 0.998047 1731.58 0.998047C1793.56 0.998047 1825.93 22.9532 1888.94 22.9532" stroke="white" stroke-width="1.02117" stroke-miterlimit="10"/>
<path d="M1888.84 22.9532C1947.86 22.9532 1984.21 0.998047 2046.2 0.998047C2108.18 0.998047 2141.57 22.9532 2203.56 22.9532C2265.54 22.9532 2298.94 0.998047 2360.92 0.998047C2422.91 0.998047 2455.28 22.9532 2518.28 22.9532" stroke="white" stroke-width="1.02117" stroke-miterlimit="10"/>
</svg>
