<svg width="2519" height="24" viewBox="0 0 2519 24" fill="none" xmlns="http://www.w3.org/2000/svg">
<path d="M0.899902 22.501C59.9234 22.501 96.277 0.545898 158.262 0.545898C220.247 0.545898 253.639 22.501 315.624 22.501C377.609 22.501 411.001 0.545898 472.986 0.545898C534.971 0.545898 567.342 22.501 630.348 22.501" stroke="#FEFEFE" stroke-width="1.02117" stroke-miterlimit="9.8378"/>
<path d="M630.246 22.5011C689.269 22.5011 725.623 0.546021 787.608 0.546021C849.593 0.546021 882.985 22.5011 944.97 22.5011C1006.95 22.5011 1040.35 0.546021 1102.33 0.546021C1164.32 0.546021 1196.69 22.5011 1259.69 22.5011" stroke="#FEFEFE" stroke-width="1.02117" stroke-miterlimit="9.8378"/>
<path d="M1259.49 22.5011C1318.51 22.5011 1354.87 0.546021 1416.85 0.546021C1478.84 0.546021 1512.23 22.5011 1574.21 22.5011C1636.2 22.5011 1669.59 0.546021 1731.58 0.546021C1793.56 0.546021 1825.93 22.5011 1888.94 22.5011" stroke="#FEFEFE" stroke-width="1.02117" stroke-miterlimit="9.8378"/>
<path d="M1888.84 22.5011C1947.86 22.5011 1984.21 0.546021 2046.2 0.546021C2108.18 0.546021 2141.57 22.5011 2203.56 22.5011C2265.54 22.5011 2298.94 0.546021 2360.92 0.546021C2422.91 0.546021 2455.28 22.5011 2518.28 22.5011" stroke="#FEFEFE" stroke-width="1.02117" stroke-miterlimit="9.8378"/>
</svg>
