<svg width="2519" height="24" viewBox="0 0 2519 24" fill="none" xmlns="http://www.w3.org/2000/svg">
<path d="M0.899902 23.1795C59.9234 23.1795 96.277 1.22437 158.262 1.22437C220.247 1.22437 253.639 23.1795 315.624 23.1795C377.609 23.1795 411.001 1.22437 472.986 1.22437C534.971 1.22437 567.342 23.1795 630.348 23.1795" stroke="#F0F1F4" stroke-width="1.02117" stroke-miterlimit="7.8919"/>
<path d="M630.246 23.1795C689.269 23.1795 725.623 1.22437 787.608 1.22437C849.593 1.22437 882.985 23.1795 944.97 23.1795C1006.95 23.1795 1040.35 1.22437 1102.33 1.22437C1164.32 1.22437 1196.69 23.1795 1259.69 23.1795" stroke="#F0F1F4" stroke-width="1.02117" stroke-miterlimit="7.8919"/>
<path d="M1259.49 23.1795C1318.51 23.1795 1354.87 1.22437 1416.85 1.22437C1478.84 1.22437 1512.23 23.1795 1574.21 23.1795C1636.2 23.1795 1669.59 1.22437 1731.58 1.22437C1793.56 1.22437 1825.93 23.1795 1888.94 23.1795" stroke="#F0F1F4" stroke-width="1.02117" stroke-miterlimit="7.8919"/>
<path d="M1888.84 23.1795C1947.86 23.1795 1984.21 1.22437 2046.2 1.22437C2108.18 1.22437 2141.57 23.1795 2203.56 23.1795C2265.54 23.1795 2298.94 1.22437 2360.92 1.22437C2422.91 1.22437 2455.28 23.1795 2518.28 23.1795" stroke="#F0F1F4" stroke-width="1.02117" stroke-miterlimit="7.8919"/>
</svg>
