<svg width="2519" height="24" viewBox="0 0 2519 24" fill="none" xmlns="http://www.w3.org/2000/svg">
<path d="M0.899902 22.7892C59.9234 22.7892 96.277 0.834106 158.262 0.834106C220.247 0.834106 253.639 22.7892 315.624 22.7892C377.609 22.7892 411.001 0.834106 472.986 0.834106C534.971 0.834106 567.342 22.7892 630.348 22.7892" stroke="#F7F7F9" stroke-width="1.02117" stroke-miterlimit="8.8649"/>
<path d="M630.246 22.7892C689.269 22.7892 725.623 0.834106 787.608 0.834106C849.593 0.834106 882.985 22.7892 944.97 22.7892C1006.95 22.7892 1040.35 0.834106 1102.33 0.834106C1164.32 0.834106 1196.69 22.7892 1259.69 22.7892" stroke="#F7F7F9" stroke-width="1.02117" stroke-miterlimit="8.8649"/>
<path d="M1259.49 22.7892C1318.51 22.7892 1354.87 0.834106 1416.85 0.834106C1478.84 0.834106 1512.23 22.7892 1574.21 22.7892C1636.2 22.7892 1669.59 0.834106 1731.58 0.834106C1793.56 0.834106 1825.93 22.7892 1888.94 22.7892" stroke="#F7F7F9" stroke-width="1.02117" stroke-miterlimit="8.8649"/>
<path d="M1888.84 22.7892C1947.86 22.7892 1984.21 0.834106 2046.2 0.834106C2108.18 0.834106 2141.57 22.7892 2203.56 22.7892C2265.54 22.7892 2298.94 0.834106 2360.92 0.834106C2422.91 0.834106 2455.28 22.7892 2518.28 22.7892" stroke="#F7F7F9" stroke-width="1.02117" stroke-miterlimit="8.8649"/>
</svg>
