<svg width="2519" height="24" viewBox="0 0 2519 24" fill="none" xmlns="http://www.w3.org/2000/svg">
<path d="M0.899902 23.4394C59.9234 23.4394 96.277 1.48425 158.262 1.48425C220.247 1.48425 253.639 23.4394 315.624 23.4394C377.609 23.4394 411.001 1.48425 472.986 1.48425C534.971 1.48425 567.342 23.4394 630.348 23.4394" stroke="#F5F6F8" stroke-width="1.02117" stroke-miterlimit="8.7027"/>
<path d="M630.246 23.4394C689.269 23.4394 725.623 1.48425 787.608 1.48425C849.593 1.48425 882.985 23.4394 944.97 23.4394C1006.95 23.4394 1040.35 1.48425 1102.33 1.48425C1164.32 1.48425 1196.69 23.4394 1259.69 23.4394" stroke="#F5F6F8" stroke-width="1.02117" stroke-miterlimit="8.7027"/>
<path d="M1259.49 23.4394C1318.51 23.4394 1354.87 1.48425 1416.85 1.48425C1478.84 1.48425 1512.23 23.4394 1574.21 23.4394C1636.2 23.4394 1669.59 1.48425 1731.58 1.48425C1793.56 1.48425 1825.93 23.4394 1888.94 23.4394" stroke="#F5F6F8" stroke-width="1.02117" stroke-miterlimit="8.7027"/>
<path d="M1888.84 23.4394C1947.86 23.4394 1984.21 1.48425 2046.2 1.48425C2108.18 1.48425 2141.57 23.4394 2203.56 23.4394C2265.54 23.4394 2298.94 1.48425 2360.92 1.48425C2422.91 1.48425 2455.28 23.4394 2518.28 23.4394" stroke="#F5F6F8" stroke-width="1.02117" stroke-miterlimit="8.7027"/>
</svg>
