<svg width="2519" height="24" viewBox="0 0 2519 24" fill="none" xmlns="http://www.w3.org/2000/svg">
<path d="M0.899902 23.1451C59.9234 23.1451 96.277 1.19006 158.262 1.19006C220.247 1.19006 253.639 23.1451 315.624 23.1451C377.609 23.1451 411.001 1.19006 472.986 1.19006C534.971 1.19006 567.342 23.1451 630.348 23.1451" stroke="#FAFBFC" stroke-width="1.02117" stroke-miterlimit="9.3514"/>
<path d="M630.246 23.1451C689.269 23.1451 725.623 1.19006 787.608 1.19006C849.593 1.19006 882.985 23.1451 944.97 23.1451C1006.95 23.1451 1040.35 1.19006 1102.33 1.19006C1164.32 1.19006 1196.69 23.1451 1259.69 23.1451" stroke="#FAFBFC" stroke-width="1.02117" stroke-miterlimit="9.3514"/>
<path d="M1259.49 23.1451C1318.51 23.1451 1354.87 1.19006 1416.85 1.19006C1478.84 1.19006 1512.23 23.1451 1574.21 23.1451C1636.2 23.1451 1669.59 1.19006 1731.58 1.19006C1793.56 1.19006 1825.93 23.1451 1888.94 23.1451" stroke="#FAFBFC" stroke-width="1.02117" stroke-miterlimit="9.3514"/>
<path d="M1888.84 23.1451C1947.86 23.1451 1984.21 1.19006 2046.2 1.19006C2108.18 1.19006 2141.57 23.1451 2203.56 23.1451C2265.54 23.1451 2298.94 1.19006 2360.92 1.19006C2422.91 1.19006 2455.28 23.1451 2518.28 23.1451" stroke="#FAFBFC" stroke-width="1.02117" stroke-miterlimit="9.3514"/>
</svg>
