<svg width="2519" height="24" viewBox="0 0 2519 24" fill="none" xmlns="http://www.w3.org/2000/svg">
<path d="M0.899902 23.4343C59.9234 23.4343 96.277 1.47916 158.262 1.47916C220.247 1.47916 253.639 23.4343 315.624 23.4343C377.609 23.4343 410.899 1.47916 472.884 1.47916C534.869 1.47916 567.24 23.4343 630.246 23.4343" stroke="#D3D7DF" stroke-width="1.02117"/>
<path d="M630.246 23.4343C689.167 23.4343 725.521 1.47916 787.506 1.47916C849.49 1.47916 882.883 23.4343 944.868 23.4343C1006.85 23.4343 1040.24 1.47916 1102.13 1.47916C1164.11 1.47916 1196.48 23.4343 1259.49 23.4343" stroke="#D3D7DF" stroke-width="1.02117"/>
<path d="M1259.49 23.4343C1318.51 23.4343 1354.87 1.47916 1416.85 1.47916C1478.84 1.47916 1512.23 23.4343 1574.21 23.4343C1636.2 23.4343 1669.59 1.47916 1731.58 1.47916C1793.56 1.47916 1825.93 23.4343 1888.94 23.4343" stroke="#D3D7DF" stroke-width="1.02117"/>
<path d="M1888.84 23.4343C1947.86 23.4343 1984.21 1.47916 2046.2 1.47916C2108.18 1.47916 2141.57 23.4343 2203.56 23.4343C2265.54 23.4343 2298.94 1.47916 2360.92 1.47916C2422.91 1.47916 2455.28 23.4343 2518.28 23.4343" stroke="#D3D7DF" stroke-width="1.02117"/>
</svg>
