<svg width="2519" height="24" viewBox="0 0 2519 24" fill="none" xmlns="http://www.w3.org/2000/svg">
<path d="M0.899902 23.1462C59.9234 23.1462 96.277 1.19104 158.262 1.19104C220.247 1.19104 253.639 23.1462 315.624 23.1462C377.609 23.1462 411.001 1.19104 472.986 1.19104C534.971 1.19104 567.342 23.1462 630.348 23.1462" stroke="#DADDE4" stroke-width="1.02117" stroke-miterlimit="4.973"/>
<path d="M630.246 23.1462C689.269 23.1462 725.623 1.19104 787.608 1.19104C849.593 1.19104 882.985 23.1462 944.97 23.1462C1006.95 23.1462 1040.35 1.19104 1102.33 1.19104C1164.32 1.19104 1196.69 23.1462 1259.69 23.1462" stroke="#DADDE4" stroke-width="1.02117" stroke-miterlimit="4.973"/>
<path d="M1259.49 23.1462C1318.51 23.1462 1354.87 1.19104 1416.85 1.19104C1478.84 1.19104 1512.23 23.1462 1574.21 23.1462C1636.2 23.1462 1669.59 1.19104 1731.58 1.19104C1793.56 1.19104 1825.93 23.1462 1888.94 23.1462" stroke="#DADDE4" stroke-width="1.02117" stroke-miterlimit="4.973"/>
<path d="M1888.84 23.1462C1947.86 23.1462 1984.21 1.19104 2046.2 1.19104C2108.18 1.19104 2141.57 23.1462 2203.56 23.1462C2265.54 23.1462 2298.94 1.19104 2360.92 1.19104C2422.91 1.19104 2455.28 23.1462 2518.28 23.1462" stroke="#DADDE4" stroke-width="1.02117" stroke-miterlimit="4.973"/>
</svg>
