<svg width="2519" height="24" viewBox="0 0 2519 24" fill="none" xmlns="http://www.w3.org/2000/svg">
<path d="M0.899902 22.5638C59.9234 22.5638 96.277 0.608643 158.262 0.608643C220.247 0.608643 253.639 22.5638 315.624 22.5638C377.609 22.5638 411.001 0.608643 472.986 0.608643C534.971 0.608643 567.342 22.5638 630.348 22.5638" stroke="#E6E8ED" stroke-width="1.02117" stroke-miterlimit="6.5946"/>
<path d="M630.246 22.5638C689.269 22.5638 725.623 0.608643 787.608 0.608643C849.593 0.608643 882.985 22.5638 944.97 22.5638C1006.95 22.5638 1040.35 0.608643 1102.33 0.608643C1164.32 0.608643 1196.69 22.5638 1259.69 22.5638" stroke="#E6E8ED" stroke-width="1.02117" stroke-miterlimit="6.5946"/>
<path d="M1259.49 22.5638C1318.51 22.5638 1354.87 0.608643 1416.85 0.608643C1478.84 0.608643 1512.23 22.5638 1574.21 22.5638C1636.2 22.5638 1669.59 0.608643 1731.58 0.608643C1793.56 0.608643 1825.93 22.5638 1888.94 22.5638" stroke="#E6E8ED" stroke-width="1.02117" stroke-miterlimit="6.5946"/>
<path d="M1888.84 22.5638C1947.86 22.5638 1984.21 0.608643 2046.2 0.608643C2108.18 0.608643 2141.57 22.5638 2203.56 22.5638C2265.54 22.5638 2298.94 0.608643 2360.92 0.608643C2422.91 0.608643 2455.28 22.5638 2518.28 22.5638" stroke="#E6E8ED" stroke-width="1.02117" stroke-miterlimit="6.5946"/>
</svg>
