<svg width="2519" height="24" viewBox="0 0 2519 24" fill="none" xmlns="http://www.w3.org/2000/svg">
<path d="M0.899902 22.5971C59.9234 22.5971 96.277 0.641968 158.262 0.641968C220.247 0.641968 253.639 22.5971 315.624 22.5971C377.609 22.5971 411.001 0.641968 472.986 0.641968C534.971 0.641968 567.342 22.5971 630.348 22.5971" stroke="#FBFCFC" stroke-width="1.02117" stroke-miterlimit="9.5135"/>
<path d="M630.246 22.5972C689.269 22.5972 725.623 0.64209 787.608 0.64209C849.593 0.64209 882.985 22.5972 944.97 22.5972C1006.95 22.5972 1040.35 0.64209 1102.33 0.64209C1164.32 0.64209 1196.69 22.5972 1259.69 22.5972" stroke="#FBFCFC" stroke-width="1.02117" stroke-miterlimit="9.5135"/>
<path d="M1259.49 22.5972C1318.51 22.5972 1354.87 0.64209 1416.85 0.64209C1478.84 0.64209 1512.23 22.5972 1574.21 22.5972C1636.2 22.5972 1669.59 0.64209 1731.58 0.64209C1793.56 0.64209 1825.93 22.5972 1888.94 22.5972" stroke="#FBFCFC" stroke-width="1.02117" stroke-miterlimit="9.5135"/>
<path d="M1888.84 22.5972C1947.86 22.5972 1984.21 0.64209 2046.2 0.64209C2108.18 0.64209 2141.57 22.5972 2203.56 22.5972C2265.54 22.5972 2298.94 0.64209 2360.92 0.64209C2422.91 0.64209 2455.28 22.5972 2518.28 22.5972" stroke="#FBFCFC" stroke-width="1.02117" stroke-miterlimit="9.5135"/>
</svg>
