<svg width="2519" height="24" viewBox="0 0 2519 24" fill="none" xmlns="http://www.w3.org/2000/svg">
<path d="M0.899902 22.502C59.9234 22.502 96.277 0.546936 158.262 0.546936C220.247 0.546936 253.639 22.502 315.624 22.502C377.609 22.502 411.001 0.546936 472.986 0.546936C534.971 0.546936 567.342 22.502 630.348 22.502" stroke="#DEE1E7" stroke-width="1.02117" stroke-miterlimit="5.4595"/>
<path d="M630.246 22.502C689.269 22.502 725.623 0.546936 787.608 0.546936C849.593 0.546936 882.985 22.502 944.97 22.502C1006.95 22.502 1040.35 0.546936 1102.33 0.546936C1164.32 0.546936 1196.69 22.502 1259.69 22.502" stroke="#DEE1E7" stroke-width="1.02117" stroke-miterlimit="5.4595"/>
<path d="M1259.49 22.502C1318.51 22.502 1354.87 0.546936 1416.85 0.546936C1478.84 0.546936 1512.23 22.502 1574.21 22.502C1636.2 22.502 1669.59 0.546936 1731.58 0.546936C1793.56 0.546936 1825.93 22.502 1888.94 22.502" stroke="#DEE1E7" stroke-width="1.02117" stroke-miterlimit="5.4595"/>
<path d="M1888.84 22.502C1947.86 22.502 1984.21 0.546936 2046.2 0.546936C2108.18 0.546936 2141.57 22.502 2203.56 22.502C2265.54 22.502 2298.94 0.546936 2360.92 0.546936C2422.91 0.546936 2455.28 22.502 2518.28 22.502" stroke="#DEE1E7" stroke-width="1.02117" stroke-miterlimit="5.4595"/>
</svg>
