<svg width="2519" height="24" viewBox="0 0 2519 24" fill="none" xmlns="http://www.w3.org/2000/svg">
<path d="M0.899902 23.0157C59.9234 23.0157 96.277 1.06055 158.262 1.06055C220.247 1.06055 253.639 23.0157 315.624 23.0157C377.609 23.0157 411.001 1.06055 472.986 1.06055C534.971 1.06055 567.24 23.0157 630.246 23.0157" stroke="#E7E9EE" stroke-width="1.02117" stroke-miterlimit="6.7568"/>
<path d="M630.246 23.0157C689.269 23.0157 725.623 1.06055 787.608 1.06055C849.593 1.06055 882.883 23.0157 944.868 23.0157C1006.85 23.0157 1040.24 1.06055 1102.23 1.06055C1164.21 1.06055 1196.59 23.0157 1259.59 23.0157" stroke="#E7E9EE" stroke-width="1.02117" stroke-miterlimit="6.7568"/>
<path d="M1259.49 23.0157C1318.51 23.0157 1354.87 1.06055 1416.85 1.06055C1478.84 1.06055 1512.23 23.0157 1574.21 23.0157C1636.2 23.0157 1669.59 1.06055 1731.58 1.06055C1793.56 1.06055 1825.93 23.0157 1888.94 23.0157" stroke="#E7E9EE" stroke-width="1.02117" stroke-miterlimit="6.7568"/>
<path d="M1888.84 23.0157C1947.86 23.0157 1984.21 1.06055 2046.2 1.06055C2108.18 1.06055 2141.57 23.0157 2203.56 23.0157C2265.54 23.0157 2298.94 1.06055 2360.92 1.06055C2422.91 1.06055 2455.28 23.0157 2518.28 23.0157" stroke="#E7E9EE" stroke-width="1.02117" stroke-miterlimit="6.7568"/>
</svg>
