<svg width="2519" height="24" viewBox="0 0 2519 24" fill="none" xmlns="http://www.w3.org/2000/svg">
<path d="M0.899902 23.2755C59.9234 23.2755 96.277 1.32043 158.262 1.32043C220.247 1.32043 253.639 23.2755 315.624 23.2755C377.609 23.2755 411.001 1.32043 472.986 1.32043C534.971 1.32043 567.24 23.2755 630.246 23.2755" stroke="#EDEFF2" stroke-width="1.02117" stroke-miterlimit="7.5676"/>
<path d="M630.246 23.2755C689.269 23.2755 725.623 1.32043 787.608 1.32043C849.593 1.32043 882.883 23.2755 944.868 23.2755C1006.85 23.2755 1040.24 1.32043 1102.23 1.32043C1164.21 1.32043 1196.59 23.2755 1259.59 23.2755" stroke="#EDEFF2" stroke-width="1.02117" stroke-miterlimit="7.5676"/>
<path d="M1259.49 23.2755C1318.51 23.2755 1354.87 1.32043 1416.85 1.32043C1478.84 1.32043 1512.23 23.2755 1574.21 23.2755C1636.2 23.2755 1669.59 1.32043 1731.58 1.32043C1793.56 1.32043 1825.93 23.2755 1888.94 23.2755" stroke="#EDEFF2" stroke-width="1.02117" stroke-miterlimit="7.5676"/>
<path d="M1888.84 23.2755C1947.86 23.2755 1984.21 1.32043 2046.2 1.32043C2108.18 1.32043 2141.57 23.2755 2203.56 23.2755C2265.54 23.2755 2298.94 1.32043 2360.92 1.32043C2422.91 1.32043 2455.28 23.2755 2518.28 23.2755" stroke="#EDEFF2" stroke-width="1.02117" stroke-miterlimit="7.5676"/>
</svg>
