<svg width="2519" height="24" viewBox="0 0 2519 24" fill="none" xmlns="http://www.w3.org/2000/svg">
<path d="M0.899902 22.8236C59.9234 22.8236 96.277 0.86853 158.262 0.86853C220.247 0.86853 253.639 22.8236 315.624 22.8236C377.609 22.8236 411.001 0.86853 472.986 0.86853C534.971 0.86853 567.342 22.8236 630.348 22.8236" stroke="#ECEEF1" stroke-width="1.02117" stroke-miterlimit="7.4054"/>
<path d="M630.246 22.8236C689.269 22.8236 725.623 0.86853 787.608 0.86853C849.593 0.86853 882.985 22.8236 944.97 22.8236C1006.95 22.8236 1040.35 0.86853 1102.33 0.86853C1164.32 0.86853 1196.69 22.8236 1259.69 22.8236" stroke="#ECEEF1" stroke-width="1.02117" stroke-miterlimit="7.4054"/>
<path d="M1259.49 22.8236C1318.51 22.8236 1354.87 0.86853 1416.85 0.86853C1478.84 0.86853 1512.23 22.8236 1574.21 22.8236C1636.2 22.8236 1669.59 0.86853 1731.58 0.86853C1793.56 0.86853 1825.93 22.8236 1888.94 22.8236" stroke="#ECEEF1" stroke-width="1.02117" stroke-miterlimit="7.4054"/>
<path d="M1888.84 22.8236C1947.86 22.8236 1984.21 0.86853 2046.2 0.86853C2108.18 0.86853 2141.57 22.8236 2203.56 22.8236C2265.54 22.8236 2298.94 0.86853 2360.92 0.86853C2422.91 0.86853 2455.28 22.8236 2518.28 22.8236" stroke="#ECEEF1" stroke-width="1.02117" stroke-miterlimit="7.4054"/>
</svg>
