<svg width="2519" height="24" viewBox="0 0 2519 24" fill="none" xmlns="http://www.w3.org/2000/svg">
<path d="M0.899902 23.2412C59.9234 23.2412 96.277 1.28613 158.262 1.28613C220.247 1.28613 253.639 23.2412 315.624 23.2412C377.609 23.2412 411.001 1.28613 472.986 1.28613C534.971 1.28613 567.342 23.2412 630.348 23.2412" stroke="#F8F9FA" stroke-width="1.02117" stroke-miterlimit="9.027"/>
<path d="M630.246 23.2412C689.269 23.2412 725.623 1.28613 787.608 1.28613C849.593 1.28613 882.985 23.2412 944.97 23.2412C1006.95 23.2412 1040.35 1.28613 1102.33 1.28613C1164.32 1.28613 1196.69 23.2412 1259.69 23.2412" stroke="#F8F9FA" stroke-width="1.02117" stroke-miterlimit="9.027"/>
<path d="M1259.49 23.2412C1318.51 23.2412 1354.87 1.28613 1416.85 1.28613C1478.84 1.28613 1512.23 23.2412 1574.21 23.2412C1636.2 23.2412 1669.59 1.28613 1731.58 1.28613C1793.56 1.28613 1825.93 23.2412 1888.94 23.2412" stroke="#F8F9FA" stroke-width="1.02117" stroke-miterlimit="9.027"/>
<path d="M1888.84 23.2412C1947.86 23.2412 1984.21 1.28613 2046.2 1.28613C2108.18 1.28613 2141.57 23.2412 2203.56 23.2412C2265.54 23.2412 2298.94 1.28613 2360.92 1.28613C2422.91 1.28613 2455.28 23.2412 2518.28 23.2412" stroke="#F8F9FA" stroke-width="1.02117" stroke-miterlimit="9.027"/>
</svg>
