<svg width="150" height="53" viewBox="0 0 150 53" fill="none" xmlns="http://www.w3.org/2000/svg">
<g clip-path="url(#clip0_1_962)">
<g clip-path="url(#clip1_1_962)">
<path d="M61.1987 18.7722C59.6223 17.8377 57.845 17.3704 55.8668 17.3704C54.0021 17.3477 52.1662 17.8323 50.5555 18.7722C48.9912 19.6818 47.7025 20.9979 46.8259 22.5809C45.9233 24.212 45.4604 26.0499 45.4827 27.914C45.462 29.784 45.9247 31.6277 46.8259 33.2663C47.6927 34.8557 48.9747 36.1801 50.535 37.0981C52.1114 38.0336 53.8886 38.5013 55.8668 38.5013C57.845 38.5013 59.6223 38.0336 61.1987 37.0981C62.7613 36.1782 64.0491 34.8565 64.9282 33.2704C65.8415 31.6357 66.3116 29.7906 66.2918 27.9181C66.3132 26.0515 65.8429 24.2122 64.9282 22.585C64.0441 21.0065 62.7572 19.6909 61.1987 18.7722ZM59.8759 32.3036C59.3736 32.8669 58.755 33.3146 58.0628 33.6157C57.3707 33.9168 56.6215 34.0642 55.8668 34.0477C54.2359 34.0477 52.8996 33.4731 51.8577 32.324C50.8159 31.175 50.295 29.705 50.295 27.914C50.295 26.1495 50.8159 24.6927 51.8577 23.5436C52.8996 22.3945 54.2359 21.8218 55.8668 21.8254C57.4705 21.8254 58.8068 22.4 59.8759 23.549C60.945 24.6981 61.4796 26.155 61.4796 27.9195C61.4796 29.675 60.945 31.1363 59.8759 32.3036ZM69.7841 9.87313H74.595V37.9368H69.7841V9.87313ZM115.006 9.87313H119.817V37.9368H115.006V9.87313ZM138.098 17.9309V28.1581C138.098 29.789 137.677 31.0454 136.835 31.9272C135.994 32.809 134.891 33.25 133.527 33.25C132.245 33.25 131.257 32.889 130.561 32.1672C129.866 31.4454 129.518 30.2295 129.518 28.5195V17.9309H124.707V29.3172C124.707 32.15 125.355 34.2613 126.652 35.6513C127.948 37.0413 129.731 37.7363 132 37.7363C133.417 37.7363 134.593 37.5022 135.528 37.034C136.506 36.532 137.367 35.8284 138.055 34.9695L138.094 35.0895V37.214C138.094 38.8722 137.673 40.1486 136.831 41.0431C135.99 41.9377 134.834 42.3854 133.364 42.3863C131.348 42.3863 130.03 41.6445 129.409 40.1609L125.433 42.2063C125.964 43.1991 126.693 44.0725 127.575 44.7727C129.03 45.9363 130.961 46.5177 133.369 46.5168C136.363 46.5168 138.701 45.6681 140.385 43.9709C142.069 42.2736 142.91 40.0081 142.909 37.1745V17.9309H138.098ZM108.352 13.6436C108.936 13.6363 109.507 13.8102 109.988 14.1413L112.034 10.7472C111.561 10.3713 111.042 10.0578 110.489 9.8145C109.7 9.45086 108.65 9.26904 107.341 9.26904C105.738 9.26904 104.395 9.79677 103.312 10.8522C102.229 11.9077 101.688 13.3577 101.688 15.2022V17.9295H98.4423V22.139H101.696V37.9368H106.507V22.1404H111.297V17.9309H106.507V15.7654C106.507 14.3509 107.122 13.6436 108.352 13.6436ZM93.0764 19.2345C91.5 17.9909 89.5091 17.3695 87.1036 17.3704C84.7518 17.3704 82.9077 17.8704 81.5714 18.8704C80.235 19.8704 79.2909 21.3704 78.7391 23.3704L83.0318 24.149C83.2173 23.2354 83.5923 22.529 84.1568 22.0368C84.7841 21.4913 85.7127 21.2186 86.9427 21.2186C89.3973 21.2186 90.6246 22.4345 90.6246 24.8663V25.1077L86.3346 25.709C83.3946 26.11 81.3432 26.8918 80.1805 28.0545C79.0177 29.2172 78.4386 30.6409 78.4432 32.3254C78.4202 33.4747 78.7407 34.6047 79.3636 35.5709C79.9777 36.5068 80.8372 37.2559 81.8482 37.7363C82.9241 38.2512 84.1041 38.5116 85.2968 38.4972C87.8886 38.4972 89.7459 37.709 90.8686 36.1327L91.3909 37.9368H95.4396V24.7872C95.4414 22.3272 94.6536 20.4763 93.0764 19.2345ZM90.6314 30.9209C90.6314 32.0709 90.2436 32.9727 89.4682 33.6263C88.6927 34.28 87.7309 34.6072 86.5827 34.6081C85.4864 34.6081 84.6227 34.3745 83.9918 33.9072C83.6934 33.6983 83.4512 33.4187 83.2871 33.0935C83.1229 32.7682 83.0418 32.4074 83.0509 32.0431C83.0509 31.2159 83.3382 30.5795 83.9127 30.134C84.4873 29.6886 85.4027 29.3745 86.6591 29.1918L90.6273 28.5904L90.6314 30.9209ZM36.6723 20.5981C34.0487 22.7336 29.9714 23.2518 24.3027 22.154V9.91541H19.4196V20.9281C19.1905 20.86 18.96 20.7918 18.7255 20.7168C14.3455 19.3531 9.35047 19.915 6.54547 20.8531L7.52456 25.0259C9.46229 24.22 13.9555 23.6854 17.4573 24.779C18.1241 24.9877 18.7773 25.1786 19.4196 25.3572V37.934H24.3027V26.4659C26.0351 26.7748 27.7904 26.9367 29.55 26.95C32.2896 26.95 34.6555 26.4863 36.6723 25.5645V37.934H41.5568V9.91541H36.6723V20.5981Z" fill="#E6485C"/>
</g>
</g>
<defs>
<clipPath id="clip0_1_962">
<rect width="150" height="52.5" fill="white" transform="translate(0 0.279785)"/>
</clipPath>
<clipPath id="clip1_1_962">
<rect width="150" height="52.5" fill="white" transform="translate(0 0.279785)"/>
</clipPath>
</defs>
</svg>
