<svg width="180" height="41" viewBox="0 0 180 41" fill="none" xmlns="http://www.w3.org/2000/svg">
<g clip-path="url(#clip0_1_258)">
<g clip-path="url(#clip1_1_258)">
<path d="M0 40.89C104.688 40.89 131.753 -16.8873 180 6.4369V40.89H0Z" fill="#F8F8FB"/>
<path d="M160.027 20.8901C160.027 20.9903 160.012 21.0868 159.984 21.1796C159.955 21.2729 159.898 21.3554 159.812 21.427L155.066 26.1733C154.951 26.3022 154.804 26.3666 154.625 26.3666C154.446 26.3666 154.292 26.3022 154.164 26.1733C154.049 26.0445 153.992 25.8904 153.992 25.7111C153.992 25.5325 154.049 25.3787 154.164 25.2498L157.9 21.5344H144.671C144.485 21.5344 144.331 21.4734 144.209 21.3514C144.087 21.23 144.027 21.0762 144.027 20.8901C144.027 20.704 144.087 20.5499 144.209 20.4279C144.331 20.3065 144.485 20.2458 144.671 20.2458H157.9L154.164 16.5089C154.049 16.3943 153.988 16.2474 153.981 16.0682C153.974 15.8895 154.035 15.7357 154.164 15.6069C154.292 15.478 154.446 15.4136 154.625 15.4136C154.804 15.4136 154.951 15.478 155.066 15.6069L159.812 20.3532C159.898 20.4248 159.955 20.5069 159.984 20.5997C160.012 20.6931 160.027 20.7899 160.027 20.8901Z" fill="#292B2E"/>
</g>
</g>
<defs>
<clipPath id="clip0_1_258">
<rect width="180" height="40" fill="white" transform="translate(0 0.890015)"/>
</clipPath>
<clipPath id="clip1_1_258">
<rect width="180" height="40" fill="white" transform="translate(0 0.890015)"/>
</clipPath>
</defs>
</svg>
