<svg width="31" height="25" viewBox="0 0 31 25" fill="none" xmlns="http://www.w3.org/2000/svg">
<g clip-path="url(#clip0_1_786)">
<path d="M16.7387 12.2196C16.6585 12.2196 16.5817 12.2095 16.5085 12.1892C16.4347 12.1694 16.3644 12.1328 16.2976 12.0793C15.1748 11.0768 14.2124 10.1176 13.4104 9.2017C12.6083 8.28634 12.2073 7.44103 12.2073 6.66575C12.2073 5.99742 12.4381 5.43254 12.8995 4.97112C13.3604 4.51023 13.925 4.27979 14.5933 4.27979C14.9943 4.27979 15.3819 4.37336 15.7562 4.56049C16.1305 4.74763 16.458 5.02163 16.7387 5.38254C17.0327 5.02163 17.3634 4.74763 17.7308 4.56049C18.0986 4.37336 18.483 4.27979 18.884 4.27979C19.5657 4.27979 20.1338 4.51023 20.5883 4.97112C21.0428 5.43254 21.27 5.99742 21.27 6.66575C21.27 7.44103 20.869 8.28634 20.067 9.2017C19.265 10.1176 18.3026 11.0768 17.1798 12.0793C17.1263 12.1328 17.0595 12.1694 16.9793 12.1892C16.8991 12.2095 16.8189 12.2196 16.7387 12.2196ZM16.7387 10.8161C17.5941 10.0542 18.3627 9.29553 19.0444 8.54004C19.7261 7.78509 20.067 7.16032 20.067 6.66575C20.067 6.31822 19.9566 6.03404 19.7358 5.81322C19.5155 5.59294 19.2316 5.4828 18.884 5.4828C18.6835 5.4828 18.4763 5.53279 18.2625 5.63277C18.0486 5.73329 17.8414 5.91722 17.6409 6.18455L16.7387 7.26726L15.8364 6.18455C15.6359 5.91722 15.4287 5.73329 15.2149 5.63277C15.001 5.53279 14.7938 5.4828 14.5933 5.4828C14.2458 5.4828 13.9619 5.59294 13.7416 5.81322C13.5208 6.03404 13.4104 6.31822 13.4104 6.66575C13.4104 7.16032 13.7512 7.78509 14.4329 8.54004C15.1146 9.29553 15.8832 10.0542 16.7387 10.8161ZM15.0344 18.7359C15.0611 18.7493 15.0847 18.756 15.105 18.756C15.1248 18.756 15.148 18.7493 15.1748 18.7359L19.8865 17.2723C19.8464 17.0851 19.7596 16.9448 19.6259 16.8512C19.4922 16.7577 19.3452 16.7109 19.1848 16.7109H15.275C14.9141 16.7109 14.6134 16.6943 14.3728 16.6612C14.1322 16.6275 13.8782 16.5705 13.6109 16.4903L12.3677 16.0893C12.194 16.0359 12.0737 15.9324 12.0068 15.7789C11.94 15.625 11.9333 15.4611 11.9868 15.2873C12.0403 15.1403 12.1405 15.0299 12.2875 14.9561C12.4346 14.8828 12.5883 14.8663 12.7487 14.9064L13.7913 15.2873C14.0319 15.3542 14.3027 15.4041 14.6037 15.4373C14.9042 15.471 15.2951 15.4945 15.7763 15.5079H15.9768C15.9768 15.3074 15.9335 15.1336 15.8468 14.9866C15.7597 14.8395 15.6426 14.746 15.4956 14.7059L10.8439 12.9816H9.28003V17.1119L15.0344 18.7359ZM14.7136 19.9189L9.28003 18.355C9.18646 18.6892 8.99932 18.9565 8.71862 19.157C8.43792 19.3575 8.13717 19.4577 7.81637 19.4577H6.71361C6.31261 19.4577 5.97175 19.3139 5.69105 19.0263C5.41035 18.7391 5.27 18.3951 5.27 17.9941V13.2222C5.27 12.8212 5.41035 12.4803 5.69105 12.1996C5.97175 11.9189 6.31261 11.7785 6.71361 11.7785H10.7437C10.8373 11.7785 10.9241 11.7852 11.0043 11.7986C11.0845 11.812 11.1647 11.832 11.2449 11.8587L15.9166 13.5831C16.2775 13.7167 16.5783 13.9539 16.8189 14.2944C17.0595 14.6356 17.1798 15.04 17.1798 15.5079H19.1848C19.7596 15.5079 20.2309 15.6918 20.5987 16.0596C20.966 16.427 21.1497 16.9114 21.1497 17.5129C21.1497 17.7401 21.0895 17.924 20.9692 18.0647C20.8489 18.2047 20.6618 18.3149 20.4078 18.3951L15.5557 19.8988C15.422 19.9389 15.2817 19.9625 15.1347 19.9694C14.9876 19.9758 14.8473 19.959 14.7136 19.9189ZM6.47301 17.9941C6.47301 18.0743 6.49653 18.1379 6.54358 18.185C6.5901 18.2315 6.64678 18.2547 6.71361 18.2547H7.81637C7.89657 18.2547 7.96019 18.2347 8.00724 18.1946C8.05376 18.1545 8.07702 18.0877 8.07702 17.9941V12.9816H6.71361C6.64678 12.9816 6.5901 13.0048 6.54358 13.0513C6.49653 13.0984 6.47301 13.1553 6.47301 13.2222V17.9941Z" fill="#292B2E"/>
</g>
<defs>
<clipPath id="clip0_1_786">
<rect width="30" height="24" fill="white" transform="translate(0.77 0.279785)"/>
</clipPath>
</defs>
</svg>
