<svg width="31" height="25" viewBox="0 0 31 25" fill="none" xmlns="http://www.w3.org/2000/svg">
<g clip-path="url(#clip0_1_792)">
<path d="M8.22282 18.9981C7.56085 18.9981 7.00085 18.7694 6.54282 18.3119C6.08535 17.8539 5.85662 17.2939 5.85662 16.6319C5.46225 16.6037 5.12423 16.4418 4.84254 16.146C4.56085 15.8502 4.42 15.5052 4.42 15.1108V7.80092C4.42 7.37838 4.56789 7.01922 4.86366 6.72344C5.15944 6.42767 5.51859 6.27979 5.94113 6.27979H15.913C16.3355 6.27979 16.6983 6.42767 17.0014 6.72344C17.3039 7.01922 17.4552 7.37838 17.4552 7.80092V9.49106H19.3144C19.4411 9.49106 19.5538 9.51922 19.6524 9.57555C19.751 9.63189 19.8425 9.70936 19.927 9.80795L22.2721 12.9559C22.3285 13.0122 22.3673 13.079 22.3887 13.1561C22.4096 13.2339 22.42 13.315 22.42 13.3995V15.8713C22.42 16.0826 22.3462 16.2623 22.1986 16.4105C22.0504 16.5581 21.8707 16.6319 21.6594 16.6319H20.8989C20.8989 17.2939 20.6665 17.8539 20.2017 18.3119C19.7369 18.7694 19.1735 18.9981 18.5115 18.9981C17.8637 18.9981 17.3073 18.7694 16.8425 18.3119C16.3777 17.8539 16.1454 17.2939 16.1454 16.6319H10.589C10.589 17.2939 10.3603 17.8539 9.90282 18.3119C9.44479 18.7694 8.88479 18.9981 8.22282 18.9981ZM8.22282 17.7305C8.53268 17.7305 8.79324 17.6249 9.00451 17.4136C9.21577 17.2023 9.32141 16.9418 9.32141 16.6319C9.32141 16.3221 9.21577 16.0615 9.00451 15.8502C8.79324 15.639 8.53268 15.5333 8.22282 15.5333C7.91296 15.5333 7.65239 15.639 7.44113 15.8502C7.22986 16.0615 7.12423 16.3221 7.12423 16.6319C7.12423 16.9418 7.22986 17.2023 7.44113 17.4136C7.65239 17.6249 7.91296 17.7305 8.22282 17.7305ZM5.68761 7.80092V15.1108C5.68761 15.139 5.69099 15.1671 5.69775 15.1953C5.70507 15.2235 5.71944 15.248 5.74085 15.2688L5.80423 15.3322C5.82507 15.3536 5.84958 15.3643 5.87775 15.3643H6.30028C6.48338 15.0544 6.74394 14.7939 7.08197 14.5826C7.42 14.3713 7.80028 14.2657 8.22282 14.2657C8.63127 14.2657 9.00817 14.3677 9.35352 14.5716C9.69831 14.7761 9.96225 15.0404 10.1453 15.3643H16.1876V7.80092C16.1876 7.73049 16.1631 7.67078 16.1141 7.62176C16.0645 7.57218 15.9975 7.5474 15.913 7.5474H5.94113C5.8707 7.5474 5.81099 7.57218 5.76197 7.62176C5.71239 7.67078 5.68761 7.73049 5.68761 7.80092ZM18.5327 17.7305C18.8425 17.7305 19.1031 17.6249 19.3144 17.4136C19.5256 17.2023 19.6313 16.9418 19.6313 16.6319C19.6313 16.3221 19.5256 16.0615 19.3144 15.8502C19.1031 15.639 18.8425 15.5333 18.5327 15.5333C18.2228 15.5333 17.9589 15.639 17.7408 15.8502C17.5223 16.0615 17.413 16.3221 17.413 16.6319C17.413 16.9418 17.5223 17.2023 17.7408 17.4136C17.9589 17.6249 18.2228 17.7305 18.5327 17.7305ZM17.4552 13.6742H21.2369L19.0397 10.7587H17.4552V13.6742Z" fill="#292B2E"/>
</g>
<defs>
<clipPath id="clip0_1_792">
<rect width="30" height="24" fill="white" transform="translate(0.919998 0.279785)"/>
</clipPath>
</defs>
</svg>
