<svg width="31" height="25" viewBox="0 0 31 25" fill="none" xmlns="http://www.w3.org/2000/svg">
<g clip-path="url(#clip0_1_780)">
<path d="M7.48195 18.0278C6.78135 17.3106 6.23087 16.4932 5.83052 15.5757C5.43017 14.6583 5.23 13.7074 5.23 12.7232C5.23 11.7391 5.4175 10.7589 5.79249 9.78267C6.16815 8.80715 6.78135 7.90237 7.63209 7.06832C8.23261 6.45112 8.9916 5.94635 9.90906 5.55401C10.8265 5.16233 11.8651 4.86206 13.0248 4.65322C14.1838 4.44503 15.4472 4.32427 16.8151 4.29091C18.1829 4.25755 19.6258 4.29925 21.1438 4.41602C21.2439 5.8506 21.2773 7.24781 21.2439 8.60766C21.2105 9.96684 21.0938 11.2303 20.8936 12.398C20.6934 13.5656 20.3975 14.6166 20.0058 15.5507C19.6135 16.4848 19.1087 17.2605 18.4915 17.8777C17.6741 18.7118 16.7944 19.3206 15.8522 19.7043C14.9094 20.088 13.9542 20.2798 12.9867 20.2798C11.9692 20.2798 10.9727 20.0796 9.99714 19.6793C9.02096 19.2789 8.18256 18.7285 7.48195 18.0278ZM9.73391 17.8527C10.2343 18.1696 10.7641 18.4032 11.3233 18.5533C11.8818 18.7034 12.4363 18.7785 12.9867 18.7785C13.7541 18.7785 14.5174 18.6244 15.2767 18.3161C16.0354 18.0072 16.7483 17.5107 17.4156 16.8268C17.7158 16.5265 18.0201 16.1055 18.3284 15.5637C18.6373 15.0212 18.9045 14.312 19.1301 13.4359C19.3549 12.5604 19.5257 11.5015 19.6425 10.2591C19.7593 9.016 19.7843 7.53539 19.7176 5.81723C18.9002 5.78386 17.9744 5.77553 16.9402 5.79221C15.9059 5.8089 14.876 5.8923 13.8505 6.04243C12.8243 6.19256 11.8524 6.43009 10.935 6.75504C10.0175 7.08066 9.27518 7.52705 8.70802 8.09421C7.97405 8.84486 7.46127 9.59951 7.16968 10.3582C6.87743 11.1175 6.7313 11.8391 6.7313 12.5231C6.7313 13.4739 6.9148 14.333 7.28178 15.1003C7.64877 15.8676 8.03243 16.4348 8.43278 16.8018C8.99994 15.5507 9.78796 14.3453 10.7968 13.1856C11.8064 12.0266 13.0868 11.0134 14.6382 10.146C13.4705 11.1802 12.4653 12.3102 11.6225 13.5359C10.7805 14.7623 10.1509 16.2013 9.73391 17.8527Z" fill="#292B2E"/>
</g>
<defs>
<clipPath id="clip0_1_780">
<rect width="30" height="24" fill="white" transform="translate(0.729996 0.279785)"/>
</clipPath>
</defs>
</svg>
