<svg width="48" height="49" viewBox="0 0 48 49" fill="none" xmlns="http://www.w3.org/2000/svg">
<rect y="0.97998" width="48" height="48" rx="12" fill="#48EC86"/>
<path d="M27.3673 26.9933C27.339 27.015 27.3115 27.0392 27.2848 27.0658C27.2582 27.0925 27.2348 27.1192 27.2123 27.1483C26.164 28.1592 24.7382 28.78 23.1665 28.78C21.5557 28.78 20.0982 28.1283 19.0415 27.0717C17.9848 26.015 17.3332 24.5575 17.3332 22.9467C17.3332 21.3358 17.9848 19.8783 19.0415 18.8217C20.0982 17.765 21.5557 17.1133 23.1665 17.1133C24.7773 17.1133 26.2348 17.765 27.2915 18.8217C28.3482 19.8783 28.9998 21.3358 28.9998 22.9467C28.9998 24.5183 28.379 25.9442 27.3673 26.9933ZM32.089 30.6908L29.0265 27.6283C30.0523 26.345 30.6665 24.7175 30.6665 22.9467C30.6665 20.8758 29.8265 19 28.4698 17.6433C27.1132 16.2867 25.2373 15.4467 23.1665 15.4467C21.0957 15.4467 19.2198 16.2867 17.8632 17.6433C16.5065 19 15.6665 20.8758 15.6665 22.9467C15.6665 25.0175 16.5065 26.8933 17.8632 28.25C19.2198 29.6067 21.0957 30.4467 23.1665 30.4467C24.9373 30.4467 26.5648 29.8325 27.8482 28.8067L30.9107 31.8692C31.2365 32.195 31.764 32.195 32.089 31.8692C32.414 31.5433 32.4148 31.0158 32.089 30.6908Z" fill="black"/>
</svg>
