<svg width="17" height="16" viewBox="0 0 17 16" fill="none" xmlns="http://www.w3.org/2000/svg">
<g clip-path="url(#clip0_1_1056)">
<g clip-path="url(#clip1_1_1056)">
<g clip-path="url(#clip2_1_1056)">
<path d="M8.26999 16C7.17525 16 6.14003 15.7895 5.16431 15.3684C4.18915 14.9474 3.34003 14.3753 2.61694 13.6522C1.89441 12.9297 1.32262 12.0808 0.901568 11.1057C0.480515 10.13 0.269989 9.09474 0.269989 8C0.269989 6.89123 0.480515 5.85263 0.901568 4.88421C1.32262 3.91579 1.89441 3.07004 2.61694 2.34695C3.34003 1.62442 4.18915 1.05263 5.16431 0.631579C6.14003 0.210526 7.17525 0 8.26999 0C9.37876 0 10.4174 0.210526 11.3858 0.631579C12.3542 1.05263 13.1997 1.62442 13.9222 2.34695C14.6453 3.07004 15.2174 3.91579 15.6384 4.88421C16.0595 5.85263 16.27 6.89123 16.27 8C16.27 9.09474 16.0595 10.13 15.6384 11.1057C15.2174 12.0808 14.6453 12.9297 13.9222 13.6522C13.1997 14.3753 12.3542 14.9474 11.3858 15.3684C10.4174 15.7895 9.37876 16 8.26999 16ZM8.26999 14.7158C8.70508 14.1544 9.06662 13.5826 9.35462 13.0004C9.64206 12.4177 9.88402 11.7825 10.0805 11.0947H6.45946C6.65596 11.7965 6.8982 12.4385 7.1862 13.0206C7.47364 13.6034 7.8349 14.1684 8.26999 14.7158ZM6.64894 14.4842C6.32613 14.0211 6.03504 13.4947 5.77567 12.9053C5.51574 12.3158 5.3156 11.7123 5.17525 11.0947H2.3121C2.76122 11.9649 3.35771 12.6984 4.10157 13.2952C4.84543 13.8914 5.69455 14.2877 6.64894 14.4842ZM9.89104 14.4842C10.8454 14.2877 11.6946 13.8914 12.4384 13.2952C13.1823 12.6984 13.7788 11.9649 14.2279 11.0947H11.3647C11.1963 11.7123 10.9858 12.3192 10.7332 12.9154C10.4805 13.5121 10.1998 14.0351 9.89104 14.4842ZM1.78578 9.83158H4.92262C4.86648 9.52281 4.82438 9.2174 4.79631 8.91537C4.76824 8.61389 4.7542 8.30877 4.7542 8C4.7542 7.69123 4.76824 7.38582 4.79631 7.08379C4.82438 6.78232 4.86648 6.47719 4.92262 6.16842H1.78578C1.70157 6.44912 1.63841 6.74386 1.59631 7.05263C1.5542 7.3614 1.53315 7.67719 1.53315 8C1.53315 8.32281 1.5542 8.6386 1.59631 8.94737C1.63841 9.25614 1.70157 9.55088 1.78578 9.83158ZM6.18578 9.83158H10.3542C10.4104 9.52281 10.4525 9.22105 10.4805 8.92632C10.5086 8.63158 10.5226 8.32281 10.5226 8C10.5226 7.67719 10.5086 7.36842 10.4805 7.07368C10.4525 6.77895 10.4104 6.47719 10.3542 6.16842H6.18578C6.12964 6.47719 6.08753 6.77895 6.05946 7.07368C6.03139 7.36842 6.01736 7.67719 6.01736 8C6.01736 8.32281 6.03139 8.63158 6.05946 8.92632C6.08753 9.22105 6.12964 9.52281 6.18578 9.83158ZM11.6174 9.83158H14.7542C14.8384 9.55088 14.9016 9.25614 14.9437 8.94737C14.9858 8.6386 15.0068 8.32281 15.0068 8C15.0068 7.67719 14.9858 7.3614 14.9437 7.05263C14.9016 6.74386 14.8384 6.44912 14.7542 6.16842H11.6174C11.6735 6.47719 11.7156 6.78232 11.7437 7.08379C11.7718 7.38582 11.7858 7.69123 11.7858 8C11.7858 8.30877 11.7718 8.61389 11.7437 8.91537C11.7156 9.2174 11.6735 9.52281 11.6174 9.83158ZM11.3647 4.90526H14.2279C13.7788 4.02105 13.1859 3.28758 12.4494 2.70484C11.7122 2.12267 10.8595 1.7193 9.89104 1.49474C10.2138 1.98597 10.5016 2.52267 10.7542 3.10484C11.0068 3.68758 11.2104 4.28772 11.3647 4.90526ZM6.45946 4.90526H10.0805C9.88402 4.20351 9.63504 3.55425 9.33357 2.95747C9.03153 2.36126 8.67701 1.80351 8.26999 1.28421C7.86297 1.80351 7.50873 2.36126 7.20725 2.95747C6.90522 3.55425 6.65596 4.20351 6.45946 4.90526ZM2.3121 4.90526H5.17525C5.32964 4.28772 5.53315 3.68758 5.78578 3.10484C6.03841 2.52267 6.32613 1.98597 6.64894 1.49474C5.66648 1.7193 4.81034 2.12267 4.08052 2.70484C3.35069 3.28758 2.76122 4.02105 2.3121 4.90526Z" fill="#292B2E"/>
</g>
</g>
</g>
<defs>
<clipPath id="clip0_1_1056">
<rect width="16" height="16" fill="white" transform="translate(0.269989)"/>
</clipPath>
<clipPath id="clip1_1_1056">
<rect width="16" height="16" fill="white" transform="translate(0.269989)"/>
</clipPath>
<clipPath id="clip2_1_1056">
<rect width="16" height="16" fill="white" transform="translate(0.269989)"/>
</clipPath>
</defs>
</svg>
