<svg width="20" height="21" viewBox="0 0 20 21" fill="none" xmlns="http://www.w3.org/2000/svg">
<g clip-path="url(#clip0_1_1821)">
<g clip-path="url(#clip1_1_1821)">
<g clip-path="url(#clip2_1_1821)">
<path d="M5.8 0.630859H14.2C17.4 0.630859 20 3.23086 20 6.43086V14.8309C20 16.3691 19.3889 17.8444 18.3012 18.9321C17.2135 20.0198 15.7383 20.6309 14.2 20.6309H5.8C2.6 20.6309 0 18.0309 0 14.8309V6.43086C0 4.8926 0.61107 3.41735 1.69878 2.32964C2.78649 1.24193 4.26174 0.630859 5.8 0.630859ZM5.6 2.63086C4.64522 2.63086 3.72955 3.01014 3.05442 3.68527C2.37928 4.3604 2 5.27608 2 6.23086V15.0309C2 17.0209 3.61 18.6309 5.6 18.6309H14.4C15.3548 18.6309 16.2705 18.2516 16.9456 17.5765C17.6207 16.9013 18 15.9857 18 15.0309V6.23086C18 4.24086 16.39 2.63086 14.4 2.63086H5.6ZM15.25 4.13086C15.5815 4.13086 15.8995 4.26255 16.1339 4.49697C16.3683 4.73139 16.5 5.04934 16.5 5.38086C16.5 5.71238 16.3683 6.03032 16.1339 6.26474C15.8995 6.49916 15.5815 6.63086 15.25 6.63086C14.9185 6.63086 14.6005 6.49916 14.3661 6.26474C14.1317 6.03032 14 5.71238 14 5.38086C14 5.04934 14.1317 4.73139 14.3661 4.49697C14.6005 4.26255 14.9185 4.13086 15.25 4.13086ZM10 5.63086C11.3261 5.63086 12.5979 6.15764 13.5355 7.09532C14.4732 8.033 15 9.30477 15 10.6309C15 11.957 14.4732 13.2287 13.5355 14.1664C12.5979 15.1041 11.3261 15.6309 10 15.6309C8.67392 15.6309 7.40215 15.1041 6.46447 14.1664C5.52678 13.2287 5 11.957 5 10.6309C5 9.30477 5.52678 8.033 6.46447 7.09532C7.40215 6.15764 8.67392 5.63086 10 5.63086ZM10 7.63086C9.20435 7.63086 8.44129 7.94693 7.87868 8.50954C7.31607 9.07214 7 9.83521 7 10.6309C7 11.4265 7.31607 12.1896 7.87868 12.7522C8.44129 13.3148 9.20435 13.6309 10 13.6309C10.7956 13.6309 11.5587 13.3148 12.1213 12.7522C12.6839 12.1896 13 11.4265 13 10.6309C13 9.83521 12.6839 9.07214 12.1213 8.50954C11.5587 7.94693 10.7956 7.63086 10 7.63086Z" fill="#292B2E"/>
</g>
</g>
</g>
<defs>
<clipPath id="clip0_1_1821">
<rect width="20" height="20" fill="white" transform="translate(0 0.629883)"/>
</clipPath>
<clipPath id="clip1_1_1821">
<rect width="20" height="20" fill="white" transform="translate(0 0.629883)"/>
</clipPath>
<clipPath id="clip2_1_1821">
<rect width="20" height="20" fill="white" transform="translate(0 0.629883)"/>
</clipPath>
</defs>
</svg>
