<svg width="32" height="21" viewBox="0 0 32 21" fill="none" xmlns="http://www.w3.org/2000/svg">
<path d="M17.2502 7.27319C17.2502 7.96486 16.6918 8.52319 16.0002 8.52319C15.3085 8.52319 14.7502 7.96486 14.7502 7.27319C14.7502 6.58153 15.3085 6.02319 16.0002 6.02319C16.6918 6.02319 17.2502 6.58153 17.2502 7.27319ZM16.8335 14.3565V10.1899H15.1668V14.3565H16.8335ZM16.0002 18.7315C20.7168 18.7315 24.5418 14.9065 24.5418 10.1899C24.5418 5.47319 20.7168 1.64819 16.0002 1.64819C11.2835 1.64819 7.4585 5.47319 7.4585 10.1899C7.4585 14.9065 11.2835 18.7315 16.0002 18.7315ZM22.8752 10.1899C22.8752 13.9899 19.8002 17.0649 16.0002 17.0649C12.2002 17.0649 9.12516 13.9899 9.12516 10.1899C9.12516 6.38986 12.2002 3.31486 16.0002 3.31486C19.8002 3.31486 22.8752 6.38986 22.8752 10.1899Z" fill="#536471"/>
</svg>
