<svg width="18" height="19" viewBox="0 0 18 19" fill="none" xmlns="http://www.w3.org/2000/svg">
<g clip-path="url(#clip0_1_1829)">
<g clip-path="url(#clip1_1_1829)">
<g clip-path="url(#clip2_1_1829)">
<path d="M18 18.6309H14V11.8809C14 10.8209 12.81 9.94086 11.75 9.94086C10.69 9.94086 10 10.8209 10 11.8809V18.6309H6V6.63086H10V8.63086C10.66 7.56086 12.36 6.87086 13.5 6.87086C16 6.87086 18 8.91086 18 11.3809V18.6309ZM4 18.6309H0V6.63086H4V18.6309ZM2 0.630859C2.53043 0.630859 3.03914 0.841573 3.41421 1.21665C3.78929 1.59172 4 2.10042 4 2.63086C4 3.16129 3.78929 3.67 3.41421 4.04507C3.03914 4.42014 2.53043 4.63086 2 4.63086C1.46957 4.63086 0.960859 4.42014 0.585786 4.04507C0.210714 3.67 0 3.16129 0 2.63086C0 2.10042 0.210714 1.59172 0.585786 1.21665C0.960859 0.841573 1.46957 0.630859 2 0.630859Z" fill="#292B2E"/>
</g>
</g>
</g>
<defs>
<clipPath id="clip0_1_1829">
<rect width="18" height="18" fill="white" transform="translate(0 0.629883)"/>
</clipPath>
<clipPath id="clip1_1_1829">
<rect width="18" height="18" fill="white" transform="translate(0 0.629883)"/>
</clipPath>
<clipPath id="clip2_1_1829">
<rect width="18" height="18" fill="white" transform="translate(0 0.629883)"/>
</clipPath>
</defs>
</svg>
