<svg width="140" height="41" viewBox="0 0 140 41" fill="none" xmlns="http://www.w3.org/2000/svg">
<rect x="0.5" y="1.27979" width="139" height="39" rx="7.5" fill="#292B2E"/>
<rect x="0.5" y="1.27979" width="139" height="39" rx="7.5" stroke="white"/>
<g clip-path="url(#clip0_1_948)">
<g clip-path="url(#clip1_1_948)">
<g clip-path="url(#clip2_1_948)">
<path d="M104.988 23.7497H106.741V12.0034H104.988V23.7497ZM120.779 16.2349L118.77 21.3274H118.709L116.624 16.2349H114.735L117.864 23.3523L116.079 27.3117H117.908L122.729 16.2349H120.779ZM110.836 22.4156C110.263 22.4156 109.461 22.1282 109.461 21.418C109.461 20.5114 110.459 20.1639 111.32 20.1639C112.09 20.1639 112.454 20.3298 112.922 20.5566C112.785 21.6449 111.849 22.4156 110.836 22.4156ZM111.048 15.978C109.779 15.978 108.464 16.5373 107.92 17.7764L109.476 18.426C109.809 17.7764 110.428 17.565 111.078 17.565C111.985 17.565 112.907 18.1086 112.922 19.076V19.1968C112.604 19.0154 111.924 18.7435 111.093 18.7435C109.415 18.7435 107.708 19.6651 107.708 21.3879C107.708 22.9595 109.083 23.9721 110.624 23.9721C111.802 23.9721 112.454 23.4432 112.86 22.8234H112.922V23.7306H114.615V19.2268C114.615 17.1414 113.057 15.978 111.048 15.978ZM100.213 17.6648H97.7192V13.6386H100.213C101.523 13.6386 102.268 14.7235 102.268 15.6516C102.268 16.5619 101.523 17.6648 100.213 17.6648ZM100.168 12.0034H95.9667V23.7497H97.7192V19.2996H100.168C102.111 19.2996 104.021 17.8931 104.021 15.6516C104.021 13.4106 102.111 12.0034 100.168 12.0034ZM77.2594 22.4178C76.0482 22.4178 75.0345 21.4033 75.0345 20.0112C75.0345 18.603 76.0482 17.5741 77.2594 17.5741C78.4552 17.5741 79.3937 18.603 79.3937 20.0112C79.3937 21.4033 78.4552 22.4178 77.2594 22.4178ZM79.2726 16.8926H79.212C78.8186 16.4235 78.0614 15.9997 77.1082 15.9997C75.1098 15.9997 73.2783 17.7558 73.2783 20.0112C73.2783 22.2512 75.1098 23.9919 77.1082 23.9919C78.0614 23.9919 78.8186 23.568 79.212 23.0839H79.2726V23.6587C79.2726 25.1881 78.4552 26.0051 77.1383 26.0051C76.064 26.0051 75.3979 25.2332 75.1252 24.5825L73.5966 25.2182C74.0352 26.2774 75.2004 27.5796 77.1383 27.5796C79.1973 27.5796 80.9381 26.3684 80.9381 23.4164V16.2419H79.2726V16.8926ZM82.1493 23.7497H83.9044V12.0034H82.1493V23.7497ZM86.4931 19.8747C86.4479 18.3306 87.6895 17.5437 88.5821 17.5437C89.2787 17.5437 89.8685 17.892 90.066 18.3912L86.4931 19.8747ZM91.9422 18.5424C91.6094 17.6498 90.5953 15.9997 88.5215 15.9997C86.4625 15.9997 84.7522 17.6193 84.7522 19.9958C84.7522 22.2361 86.4479 23.9919 88.7179 23.9919C90.5493 23.9919 91.6094 22.8721 92.0486 22.221L90.6862 21.3126C90.2319 21.9788 89.6116 22.4178 88.7179 22.4178C87.8253 22.4178 87.1893 22.0089 86.7811 21.2066L92.1239 18.9967L91.9422 18.5424ZM49.3719 17.2258V18.9211H53.4285C53.3074 19.8747 52.9896 20.5709 52.5051 21.0554C51.9146 21.6455 50.9912 22.2966 49.3719 22.2966C46.8742 22.2966 44.9217 20.2835 44.9217 17.7859C44.9217 15.2883 46.8742 13.2749 49.3719 13.2749C50.7192 13.2749 51.7028 13.8048 52.4295 14.486L53.6257 13.2899C52.6112 12.3213 51.2642 11.5796 49.3719 11.5796C45.9504 11.5796 43.0745 14.3649 43.0745 17.7859C43.0745 21.2066 45.9504 23.9919 49.3719 23.9919C51.2184 23.9919 52.6112 23.3864 53.7009 22.2512C54.8211 21.131 55.1694 19.5568 55.1694 18.2851C55.1694 17.892 55.1389 17.5286 55.0784 17.2258H49.3719ZM59.7814 22.4178C58.5702 22.4178 57.5257 21.4187 57.5257 19.9958C57.5257 18.5578 58.5702 17.5741 59.7814 17.5741C60.9922 17.5741 62.0367 18.5578 62.0367 19.9958C62.0367 21.4187 60.9922 22.4178 59.7814 22.4178ZM59.7814 15.9997C57.5708 15.9997 55.7698 17.6798 55.7698 19.9958C55.7698 22.2966 57.5708 23.9919 59.7814 23.9919C61.9912 23.9919 63.7926 22.2966 63.7926 19.9958C63.7926 17.6798 61.9912 15.9997 59.7814 15.9997ZM68.5316 22.4178C67.3212 22.4178 66.2763 21.4187 66.2763 19.9958C66.2763 18.5578 67.3212 17.5741 68.5316 17.5741C69.7428 17.5741 70.7869 18.5578 70.7869 19.9958C70.7869 21.4187 69.7428 22.4178 68.5316 22.4178ZM68.5316 15.9997C66.3218 15.9997 64.5208 17.6798 64.5208 19.9958C64.5208 22.2966 66.3218 23.9919 68.5316 23.9919C70.7422 23.9919 72.5432 22.2966 72.5432 19.9958C72.5432 17.6798 70.7422 15.9997 68.5316 15.9997Z" fill="white"/>
<path d="M25.6901 18.0864L16.5837 27.7517C16.5841 27.7537 16.5848 27.7554 16.5851 27.7574C16.8644 28.8069 17.823 29.5797 18.9606 29.5797C19.4154 29.5797 19.8424 29.4567 20.2086 29.2409L20.2377 29.2239L30.4881 23.309L25.6901 18.0864Z" fill="#EB3131"/>
<path d="M34.9022 16.4406L34.8935 16.4346L30.4681 13.8691L25.4824 18.3056L30.4855 23.308L34.8875 20.7681C35.6593 20.3514 36.1832 19.5378 36.1832 18.5996C36.1832 17.6682 35.6663 16.8586 34.9022 16.4406Z" fill="#F6B60B"/>
<path d="M16.5835 9.40723C16.5288 9.60909 16.5 9.82053 16.5 10.0401V27.1192C16.5 27.3384 16.5284 27.5505 16.5839 27.7517L26.0036 18.3336L16.5835 9.40723Z" fill="#5778C5"/>
<path d="M25.7579 18.5794L30.4713 13.8674L20.2325 7.93113C19.8604 7.70823 19.426 7.57959 18.9612 7.57959C17.8235 7.57959 16.8637 8.35376 16.5843 9.40455L16.584 9.4072L25.7579 18.5794Z" fill="#3BAD49"/>
</g>
</g>
</g>
<defs>
<clipPath id="clip0_1_948">
<rect width="107" height="22" fill="white" transform="translate(16.5 7.57959)"/>
</clipPath>
<clipPath id="clip1_1_948">
<rect width="107" height="22" fill="white" transform="translate(16.5 7.57959)"/>
</clipPath>
<clipPath id="clip2_1_948">
<rect width="107" height="22" fill="white" transform="translate(16.5 7.57959)"/>
</clipPath>
</defs>
</svg>
