<svg width="18" height="19" viewBox="0 0 18 19" fill="none" xmlns="http://www.w3.org/2000/svg">
<g clip-path="url(#clip0_1_988)">
<g clip-path="url(#clip1_1_988)">
<g clip-path="url(#clip2_1_988)">
<path d="M2 0.170898H16C16.5304 0.170898 17.0391 0.381612 17.4142 0.756685C17.7893 1.13176 18 1.64046 18 2.1709V16.1709C18 16.7013 17.7893 17.21 17.4142 17.5851C17.0391 17.9602 16.5304 18.1709 16 18.1709H2C1.46957 18.1709 0.960859 17.9602 0.585786 17.5851C0.210714 17.21 0 16.7013 0 16.1709V2.1709C0 1.64046 0.210714 1.13176 0.585786 0.756685C0.960859 0.381612 1.46957 0.170898 2 0.170898ZM15 2.1709H12.5C11.5717 2.1709 10.6815 2.53965 10.0251 3.19602C9.36875 3.8524 9 4.74264 9 5.6709V8.1709H7V11.1709H9V18.1709H12V11.1709H15V8.1709H12V6.1709C12 5.90568 12.1054 5.65133 12.2929 5.46379C12.4804 5.27625 12.7348 5.1709 13 5.1709H15V2.1709Z" fill="#292B2E"/>
</g>
</g>
</g>
<defs>
<clipPath id="clip0_1_988">
<rect width="18" height="18" fill="white" transform="translate(0 0.169922)"/>
</clipPath>
<clipPath id="clip1_1_988">
<rect width="18" height="18" fill="white" transform="translate(0 0.169922)"/>
</clipPath>
<clipPath id="clip2_1_988">
<rect width="18" height="18" fill="white" transform="translate(0 0.169922)"/>
</clipPath>
</defs>
</svg>
