<svg width="22" height="18" viewBox="0 0 22 18" fill="none" xmlns="http://www.w3.org/2000/svg">
<g clip-path="url(#clip0_1_1833)">
<g clip-path="url(#clip1_1_1833)">
<g clip-path="url(#clip2_1_1833)">
<path d="M21.46 2.13086C20.69 2.48086 19.86 2.71086 19 2.82086C19.88 2.29086 20.56 1.45086 20.88 0.44086C20.05 0.94086 19.13 1.29086 18.16 1.49086C17.37 0.63086 16.26 0.130859 15 0.130859C12.65 0.130859 10.73 2.05086 10.73 4.42086C10.73 4.76086 10.77 5.09086 10.84 5.40086C7.28004 5.22086 4.11004 3.51086 2.00004 0.92086C1.63004 1.55086 1.42004 2.29086 1.42004 3.07086C1.42004 4.56086 2.17004 5.88086 3.33004 6.63086C2.62004 6.63086 1.96004 6.43086 1.38004 6.13086C1.38004 6.13086 1.38004 6.13086 1.38004 6.16086C1.38004 8.24086 2.86004 9.98086 4.82004 10.3709C4.46004 10.4709 4.08004 10.5209 3.69004 10.5209C3.42004 10.5209 3.15004 10.4909 2.89004 10.4409C3.43004 12.1309 5.00004 13.3909 6.89004 13.4209C5.43004 14.5809 3.58004 15.2609 1.56004 15.2609C1.22004 15.2609 0.880039 15.2409 0.540039 15.2009C2.44004 16.4209 4.70004 17.1309 7.12004 17.1309C15 17.1309 19.33 10.5909 19.33 4.92086C19.33 4.73086 19.33 4.55086 19.32 4.36086C20.16 3.76086 20.88 3.00086 21.46 2.13086Z" fill="#292B2E"/>
</g>
</g>
</g>
<defs>
<clipPath id="clip0_1_1833">
<rect width="22" height="17" fill="white" transform="translate(0 0.129883)"/>
</clipPath>
<clipPath id="clip1_1_1833">
<rect width="22" height="17" fill="white" transform="translate(0 0.129883)"/>
</clipPath>
<clipPath id="clip2_1_1833">
<rect width="22" height="17" fill="white" transform="translate(0 0.129883)"/>
</clipPath>
</defs>
</svg>
