<svg width="18" height="19" viewBox="0 0 18 19" fill="none" xmlns="http://www.w3.org/2000/svg">
<g clip-path="url(#clip0_1_1000)">
<g clip-path="url(#clip1_1_1000)">
<g clip-path="url(#clip2_1_1000)">
<path d="M18 18.1709H14V11.4209C14 10.3609 12.81 9.4809 11.75 9.4809C10.69 9.4809 10 10.3609 10 11.4209V18.1709H6V6.1709H10V8.1709C10.66 7.1009 12.36 6.4109 13.5 6.4109C16 6.4109 18 8.4509 18 10.9209V18.1709ZM4 18.1709H0V6.1709H4V18.1709ZM2 0.170898C2.53043 0.170898 3.03914 0.381612 3.41421 0.756685C3.78929 1.13176 4 1.64046 4 2.1709C4 2.70133 3.78929 3.21004 3.41421 3.58511C3.03914 3.96018 2.53043 4.1709 2 4.1709C1.46957 4.1709 0.960859 3.96018 0.585786 3.58511C0.210714 3.21004 0 2.70133 0 2.1709C0 1.64046 0.210714 1.13176 0.585786 0.756685C0.960859 0.381612 1.46957 0.170898 2 0.170898Z" fill="#292B2E"/>
</g>
</g>
</g>
<defs>
<clipPath id="clip0_1_1000">
<rect width="18" height="18" fill="white" transform="translate(0 0.169922)"/>
</clipPath>
<clipPath id="clip1_1_1000">
<rect width="18" height="18" fill="white" transform="translate(0 0.169922)"/>
</clipPath>
<clipPath id="clip2_1_1000">
<rect width="18" height="18" fill="white" transform="translate(0 0.169922)"/>
</clipPath>
</defs>
</svg>
