<svg width="32" height="21" viewBox="0 0 32 21" fill="none" xmlns="http://www.w3.org/2000/svg">
<path d="M17.2502 7.1333C17.2502 7.82497 16.6918 8.3833 16.0002 8.3833C15.3085 8.3833 14.7502 7.82497 14.7502 7.1333C14.7502 6.44163 15.3085 5.8833 16.0002 5.8833C16.6918 5.8833 17.2502 6.44163 17.2502 7.1333ZM16.8335 14.2166V10.05H15.1668V14.2166H16.8335ZM16.0002 18.5916C20.7168 18.5916 24.5418 14.7666 24.5418 10.05C24.5418 5.3333 20.7168 1.5083 16.0002 1.5083C11.2835 1.5083 7.4585 5.3333 7.4585 10.05C7.4585 14.7666 11.2835 18.5916 16.0002 18.5916ZM22.8752 10.05C22.8752 13.85 19.8002 16.925 16.0002 16.925C12.2002 16.925 9.12516 13.85 9.12516 10.05C9.12516 6.24997 12.2002 3.17497 16.0002 3.17497C19.8002 3.17497 22.8752 6.24997 22.8752 10.05Z" fill="#536471"/>
</svg>
