<svg width="18" height="19" viewBox="0 0 18 19" fill="none" xmlns="http://www.w3.org/2000/svg">
<g clip-path="url(#clip0_1_1817)">
<g clip-path="url(#clip1_1_1817)">
<g clip-path="url(#clip2_1_1817)">
<path d="M2 0.630859H16C16.5304 0.630859 17.0391 0.841573 17.4142 1.21665C17.7893 1.59172 18 2.10042 18 2.63086V16.6309C18 17.1613 17.7893 17.67 17.4142 18.0451C17.0391 18.4202 16.5304 18.6309 16 18.6309H2C1.46957 18.6309 0.960859 18.4202 0.585786 18.0451C0.210714 17.67 0 17.1613 0 16.6309V2.63086C0 2.10042 0.210714 1.59172 0.585786 1.21665C0.960859 0.841573 1.46957 0.630859 2 0.630859ZM15 2.63086H12.5C11.5717 2.63086 10.6815 2.99961 10.0251 3.65598C9.36875 4.31236 9 5.2026 9 6.13086V8.63086H7V11.6309H9V18.6309H12V11.6309H15V8.63086H12V6.63086C12 6.36564 12.1054 6.11129 12.2929 5.92375C12.4804 5.73621 12.7348 5.63086 13 5.63086H15V2.63086Z" fill="#292B2E"/>
</g>
</g>
</g>
<defs>
<clipPath id="clip0_1_1817">
<rect width="18" height="18" fill="white" transform="translate(0 0.629883)"/>
</clipPath>
<clipPath id="clip1_1_1817">
<rect width="18" height="18" fill="white" transform="translate(0 0.629883)"/>
</clipPath>
<clipPath id="clip2_1_1817">
<rect width="18" height="18" fill="white" transform="translate(0 0.629883)"/>
</clipPath>
</defs>
</svg>
