<svg width="22" height="18" viewBox="0 0 22 18" fill="none" xmlns="http://www.w3.org/2000/svg">
<g clip-path="url(#clip0_1_1004)">
<g clip-path="url(#clip1_1_1004)">
<g clip-path="url(#clip2_1_1004)">
<path d="M21.46 2.6709C20.69 3.0209 19.86 3.2509 19 3.3609C19.88 2.8309 20.56 1.9909 20.88 0.980899C20.05 1.4809 19.13 1.8309 18.16 2.0309C17.37 1.1709 16.26 0.670898 15 0.670898C12.65 0.670898 10.73 2.5909 10.73 4.9609C10.73 5.3009 10.77 5.6309 10.84 5.9409C7.28004 5.7609 4.11004 4.0509 2.00004 1.4609C1.63004 2.0909 1.42004 2.8309 1.42004 3.6109C1.42004 5.1009 2.17004 6.4209 3.33004 7.1709C2.62004 7.1709 1.96004 6.9709 1.38004 6.6709C1.38004 6.6709 1.38004 6.6709 1.38004 6.7009C1.38004 8.7809 2.86004 10.5209 4.82004 10.9109C4.46004 11.0109 4.08004 11.0609 3.69004 11.0609C3.42004 11.0609 3.15004 11.0309 2.89004 10.9809C3.43004 12.6709 5.00004 13.9309 6.89004 13.9609C5.43004 15.1209 3.58004 15.8009 1.56004 15.8009C1.22004 15.8009 0.880039 15.7809 0.540039 15.7409C2.44004 16.9609 4.70004 17.6709 7.12004 17.6709C15 17.6709 19.33 11.1309 19.33 5.4609C19.33 5.2709 19.33 5.0909 19.32 4.9009C20.16 4.3009 20.88 3.5409 21.46 2.6709Z" fill="#292B2E"/>
</g>
</g>
</g>
<defs>
<clipPath id="clip0_1_1004">
<rect width="22" height="17" fill="white" transform="translate(0 0.669922)"/>
</clipPath>
<clipPath id="clip1_1_1004">
<rect width="22" height="17" fill="white" transform="translate(0 0.669922)"/>
</clipPath>
<clipPath id="clip2_1_1004">
<rect width="22" height="17" fill="white" transform="translate(0 0.669922)"/>
</clipPath>
</defs>
</svg>
