<svg width="140" height="41" viewBox="0 0 140 41" fill="none" xmlns="http://www.w3.org/2000/svg">
<rect x="0.5" y="1.27979" width="139" height="39" rx="7.5" fill="#292B2E"/>
<rect x="0.5" y="1.27979" width="139" height="39" rx="7.5" stroke="white"/>
<g clip-path="url(#clip0_1_934)">
<g clip-path="url(#clip1_1_934)">
<g clip-path="url(#clip2_1_934)">
<path d="M34.4495 19.279C34.4604 18.4358 34.6844 17.609 35.1007 16.8755C35.5169 16.1421 36.1119 15.5259 36.8304 15.0842C36.374 14.4324 35.7719 13.896 35.0719 13.5176C34.372 13.1392 33.5934 12.9292 32.7981 12.9043C31.1016 12.7263 29.4569 13.9195 28.5924 13.9195C27.7112 13.9195 26.3801 12.922 24.9468 12.9515C24.0197 12.9815 23.1161 13.2511 22.3242 13.734C21.5322 14.217 20.8789 14.8969 20.4278 15.7074C18.4739 19.0903 19.9314 24.062 21.803 26.7965C22.7395 28.1354 23.8339 29.6311 25.2659 29.5781C26.6673 29.52 27.1906 28.6845 28.8822 28.6845C30.558 28.6845 31.049 29.5781 32.5101 29.5444C34.0138 29.52 34.9612 28.1994 35.8648 26.8478C36.5376 25.8937 37.0553 24.8392 37.3988 23.7234C36.5252 23.3539 35.7797 22.7355 35.2552 21.9451C34.7308 21.1548 34.4506 20.2275 34.4495 19.279Z" fill="white"/>
<path d="M31.6901 11.1061C32.51 10.1219 32.9139 8.85683 32.8161 7.57959C31.5635 7.71115 30.4065 8.3098 29.5755 9.25627C29.1692 9.71865 28.8581 10.2566 28.6598 10.8393C28.4616 11.422 28.3801 12.038 28.42 12.6522C29.0466 12.6587 29.6664 12.5229 30.2328 12.2551C30.7992 11.9873 31.2975 11.5944 31.6901 11.1061Z" fill="white"/>
<path d="M52.163 22.2676H47.381L46.2325 25.6586H44.207L48.7366 13.1128H50.841L55.3705 25.6586H53.3105L52.163 22.2676ZM47.8762 20.7028H51.6668L49.7982 15.1995H49.7459L47.8762 20.7028Z" fill="white"/>
<path d="M65.1532 21.0859C65.1532 23.9283 63.6318 25.7545 61.336 25.7545C60.7544 25.7849 60.176 25.651 59.6671 25.3679C59.1581 25.0849 58.7391 24.6643 58.4581 24.1542H58.4146V28.6847H56.5371V16.5119H58.3545V18.0333H58.389C58.683 17.5257 59.109 17.1072 59.6219 16.8225C60.1347 16.5377 60.7152 16.3973 61.3015 16.4162C63.6229 16.4162 65.1532 18.2513 65.1532 21.0859ZM63.2234 21.0859C63.2234 19.234 62.2664 18.0165 60.8062 18.0165C59.3717 18.0165 58.4068 19.2597 58.4068 21.0859C58.4068 22.9289 59.3717 24.1631 60.8062 24.1631C62.2664 24.1631 63.2234 22.9545 63.2234 21.0859Z" fill="white"/>
<path d="M75.2216 21.0859C75.2216 23.9283 73.7002 25.7545 71.4044 25.7545C70.8228 25.7849 70.2444 25.651 69.7354 25.3679C69.2264 25.0849 68.8075 24.6643 68.5264 24.1542H68.483V28.6847H66.6055V16.5119H68.4228V18.0333H68.4573C68.7513 17.5256 69.1773 17.1072 69.6902 16.8225C70.2031 16.5377 70.7835 16.3973 71.3698 16.4162C73.6913 16.4162 75.2216 18.2513 75.2216 21.0859ZM73.2917 21.0859C73.2917 19.234 72.3347 18.0165 70.8746 18.0165C69.44 18.0165 68.4751 19.2597 68.4751 21.0859C68.4751 22.9289 69.44 24.1631 70.8746 24.1631C72.3347 24.1631 73.2917 22.9545 73.2917 21.0859Z" fill="white"/>
<path d="M81.8751 22.1632C82.0142 23.4073 83.2228 24.2242 84.8744 24.2242C86.4569 24.2242 87.5954 23.4073 87.5954 22.2855C87.5954 21.3117 86.9087 20.7286 85.2828 20.3291L83.6569 19.9374C81.3532 19.3809 80.2837 18.3035 80.2837 16.5552C80.2837 14.3906 82.1701 12.9038 84.8487 12.9038C87.4997 12.9038 89.3171 14.3906 89.3782 16.5552H87.4829C87.3695 15.3032 86.3345 14.5475 84.822 14.5475C83.3096 14.5475 82.2746 15.3121 82.2746 16.425C82.2746 17.312 82.9357 17.8339 84.5527 18.2335L85.9349 18.5728C88.509 19.1816 89.5785 20.2156 89.5785 22.0506C89.5785 24.3978 87.7089 25.8678 84.7352 25.8678C81.953 25.8678 80.0745 24.4323 79.9531 22.1631L81.8751 22.1632Z" fill="white"/>
<path d="M93.6284 14.3472V16.5118H95.3678V17.9986H93.6284V23.0412C93.6284 23.8245 93.9767 24.1896 94.7413 24.1896C94.9478 24.186 95.154 24.1715 95.359 24.1462V25.6241C95.0152 25.6883 94.6658 25.7174 94.3161 25.7109C92.4643 25.7109 91.7421 25.0154 91.7421 23.2414V17.9986H90.4121V16.5118H91.742V14.3472H93.6284Z" fill="white"/>
<path d="M96.375 21.0863C96.375 18.2084 98.07 16.3999 100.713 16.3999C103.365 16.3999 105.052 18.2083 105.052 21.0863C105.052 23.9721 103.374 25.7727 100.713 25.7727C98.0532 25.7727 96.375 23.9721 96.375 21.0863ZM103.139 21.0863C103.139 19.1121 102.234 17.9469 100.713 17.9469C99.1918 17.9469 98.288 19.121 98.288 21.0863C98.288 23.0684 99.1918 24.2247 100.713 24.2247C102.234 24.2247 103.139 23.0684 103.139 21.0863Z" fill="white"/>
<path d="M106.602 16.5119H108.392V18.0687H108.436C108.557 17.5825 108.842 17.1528 109.242 16.8518C109.643 16.5509 110.135 16.397 110.636 16.4161C110.852 16.4154 111.068 16.4389 111.279 16.4862V18.2424C111.006 18.1589 110.721 18.1206 110.435 18.1289C110.163 18.1178 109.891 18.1659 109.638 18.2699C109.386 18.3738 109.159 18.5312 108.973 18.7311C108.787 18.931 108.647 19.1688 108.562 19.4281C108.476 19.6874 108.448 19.9621 108.479 20.2333V25.6587H106.602V16.5119Z" fill="white"/>
<path d="M119.935 22.9727C119.682 24.6332 118.065 25.7727 115.996 25.7727C113.335 25.7727 111.684 23.9899 111.684 21.1297C111.684 18.2607 113.344 16.3999 115.917 16.3999C118.448 16.3999 120.039 18.1383 120.039 20.9117V21.5549H113.579V21.6684C113.549 22.005 113.591 22.3442 113.702 22.6632C113.814 22.9823 113.992 23.2741 114.224 23.5191C114.457 23.7642 114.739 23.9569 115.052 24.0845C115.365 24.2121 115.702 24.2717 116.039 24.2592C116.483 24.3008 116.928 24.198 117.309 23.9662C117.69 23.7344 117.985 23.386 118.152 22.9727H119.935ZM113.588 20.2428H118.161C118.177 19.9401 118.132 19.6372 118.026 19.3531C117.92 19.069 117.757 18.8098 117.546 18.5918C117.335 18.3738 117.082 18.2017 116.802 18.0863C116.521 17.971 116.22 17.9148 115.917 17.9213C115.611 17.9194 115.308 17.9782 115.025 18.0941C114.742 18.21 114.485 18.3808 114.269 18.5967C114.052 18.8125 113.88 19.0691 113.764 19.3516C113.647 19.6341 113.587 19.937 113.588 20.2428Z" fill="white"/>
</g>
</g>
</g>
<defs>
<clipPath id="clip0_1_934">
<rect width="101" height="22" fill="white" transform="translate(19.5 7.57959)"/>
</clipPath>
<clipPath id="clip1_1_934">
<rect width="101" height="22" fill="white" transform="translate(19.5 7.57959)"/>
</clipPath>
<clipPath id="clip2_1_934">
<rect width="101" height="22" fill="white" transform="translate(19.5 7.57959)"/>
</clipPath>
</defs>
</svg>
