<svg width="16" height="15" viewBox="0 0 16 15" fill="none" xmlns="http://www.w3.org/2000/svg">
<g clip-path="url(#clip0_1_996)">
<g clip-path="url(#clip1_1_996)">
<path d="M14.0848 3.53174C14.024 3.29334 13.8512 3.11334 13.6536 3.05814C13.304 2.95974 11.6 2.73574 8 2.73574C4.4 2.73574 2.6976 2.95974 2.3448 3.05814C2.1496 3.11254 1.9768 3.29254 1.9152 3.53174C1.828 3.87094 1.6 5.29254 1.6 7.53574C1.6 9.77894 1.828 11.1997 1.9152 11.5405C1.976 11.7781 2.1488 11.9581 2.3456 12.0125C2.6976 12.1117 4.4 12.3357 8 12.3357C11.6 12.3357 13.3032 12.1117 13.6552 12.0133C13.8504 11.9589 14.0232 11.7789 14.0848 11.5397C14.172 11.2005 14.4 9.77574 14.4 7.53574C14.4 5.29574 14.172 3.87174 14.0848 3.53174ZM15.6344 3.13414C16 4.55974 16 7.53574 16 7.53574C16 7.53574 16 10.5117 15.6344 11.9373C15.4312 12.7253 14.8368 13.3453 14.084 13.5549C12.7168 13.9357 8 13.9357 8 13.9357C8 13.9357 3.2856 13.9357 1.916 13.5549C1.16 13.3421 0.5664 12.7229 0.3656 11.9373C0 10.5117 0 7.53574 0 7.53574C0 7.53574 0 4.55974 0.3656 3.13414C0.5688 2.34614 1.1632 1.72614 1.916 1.51654C3.2856 1.13574 8 1.13574 8 1.13574C8 1.13574 12.7168 1.13574 14.084 1.51654C14.84 1.72934 15.4336 2.34854 15.6344 3.13414ZM6.4 10.3357V4.73574L11.2 7.53574L6.4 10.3357Z" fill="#292B2E"/>
</g>
</g>
<defs>
<clipPath id="clip0_1_996">
<rect width="16" height="14" fill="white" transform="translate(0 0.169922)"/>
</clipPath>
<clipPath id="clip1_1_996">
<rect width="16" height="14" fill="white" transform="translate(0 0.169922)"/>
</clipPath>
</defs>
</svg>
