<svg width="133" height="72" viewBox="0 0 133 72" fill="none" xmlns="http://www.w3.org/2000/svg">
<g clip-path="url(#clip0_1_1043)">
<path d="M54.2628 29.1215C52.8651 28.2929 51.2892 27.8785 49.5353 27.8785C47.8818 27.8584 46.254 28.2881 44.8258 29.1215C43.4389 29.928 42.2962 31.0949 41.519 32.4985C40.7186 33.9448 40.3082 35.5744 40.328 37.2272C40.3097 38.8853 40.7199 40.52 41.519 41.9729C42.2876 43.3822 43.4242 44.5564 44.8077 45.3705C46.2054 46.1999 47.7813 46.6146 49.5353 46.6146C51.2892 46.6146 52.8651 46.1999 54.2628 45.3705C55.6484 44.5547 56.7902 43.3828 57.5697 41.9765C58.3795 40.5271 58.7963 38.8911 58.7788 37.2309C58.7977 35.5758 58.3807 33.9449 57.5697 32.5021C56.7858 31.1026 55.6447 29.936 54.2628 29.1215ZM53.09 41.1193C52.6446 41.6188 52.0961 42.0157 51.4824 42.2827C50.8687 42.5497 50.2044 42.6804 49.5353 42.6657C48.0892 42.6657 46.9043 42.1563 45.9805 41.1374C45.0568 40.1186 44.5949 38.8152 44.5949 37.2272C44.5949 35.6627 45.0568 34.371 45.9805 33.3521C46.9043 32.3332 48.0892 31.8254 49.5353 31.8286C50.9571 31.8286 52.1421 32.3381 53.09 33.3569C54.0379 34.3758 54.5119 35.6675 54.5119 37.2321C54.5119 38.7886 54.0379 40.0843 53.09 41.1193ZM61.8752 21.231H66.1409V46.114H61.8752V21.231ZM101.972 21.231H106.238V46.114H101.972V21.231ZM122.447 28.3755V37.4437C122.447 38.8897 122.074 40.0037 121.327 40.7856C120.581 41.5675 119.603 41.9584 118.394 41.9584C117.258 41.9584 116.381 41.6384 115.764 40.9984C115.148 40.3584 114.839 39.2803 114.839 37.7641V28.3755H110.574V38.4714C110.574 40.9831 111.149 42.8551 112.298 44.0876C113.447 45.3201 115.028 45.9363 117.04 45.9363C118.297 45.9363 119.339 45.7288 120.168 45.3136C121.036 44.8685 121.799 44.2446 122.408 43.4831L122.443 43.5895V45.4732C122.443 46.9435 122.07 48.0752 121.324 48.8684C120.577 49.6615 119.552 50.0585 118.249 50.0593C116.462 50.0593 115.293 49.4016 114.743 48.0861L111.217 49.8997C111.688 50.78 112.335 51.5544 113.117 52.1752C114.406 53.207 116.119 53.7225 118.254 53.7216C120.908 53.7216 122.982 52.9692 124.475 51.4643C125.968 49.9594 126.714 47.9507 126.713 45.4382V28.3755H122.447ZM96.072 24.5741C96.5896 24.5676 97.0965 24.7218 97.5229 25.0154L99.3365 22.006C98.9173 21.6726 98.4568 21.3947 97.9666 21.179C97.2669 20.8565 96.3367 20.6953 95.176 20.6953C93.7541 20.6953 92.5632 21.1632 91.6032 22.0991C90.6431 23.0349 90.1631 24.3206 90.1631 25.9561V28.3743H87.2855V32.1067H90.1704V46.114H94.4361V32.1079H98.6836V28.3755H94.4361V26.4554C94.4361 25.2012 94.9814 24.5741 96.072 24.5741ZM82.5277 29.5314C81.13 28.4287 79.3647 27.8777 77.2319 27.8785C75.1466 27.8785 73.5115 28.3219 72.3266 29.2085C71.1417 30.0952 70.3046 31.4252 69.8153 33.1985L73.6216 33.8889C73.786 33.0788 74.1185 32.4525 74.6191 32.016C75.1752 31.5324 75.9986 31.2906 77.0892 31.2906C79.2656 31.2906 80.3538 32.3687 80.3538 34.5249V34.7389L76.55 35.2721C73.9432 35.6276 72.1243 36.3208 71.0933 37.3518C70.0624 38.3827 69.5489 39.645 69.553 41.1386C69.5326 42.1577 69.8168 43.1596 70.3691 44.0163C70.9136 44.8461 71.6756 45.5103 72.5721 45.9363C73.5261 46.3928 74.5723 46.6237 75.6299 46.611C77.9279 46.611 79.5747 45.9121 80.5702 44.5144L81.0333 46.114H84.6231V34.4548C84.6247 32.2736 83.9262 30.6324 82.5277 29.5314ZM80.3598 39.8933C80.3598 40.9129 80.016 41.7126 79.3285 42.2921C78.6409 42.8717 77.7881 43.1618 76.77 43.1627C75.7979 43.1627 75.0322 42.9555 74.4728 42.5412C74.2081 42.3559 73.9934 42.108 73.8479 41.8196C73.7023 41.5312 73.6304 41.2113 73.6385 40.8884C73.6385 40.1548 73.8932 39.5906 74.4026 39.1956C74.9121 38.8007 75.7238 38.5222 76.8377 38.3601L80.3562 37.8269L80.3598 39.8933ZM32.5161 30.7405C30.1898 32.6339 26.5746 33.0933 21.5484 32.12V21.2684H17.2187V31.0331C17.0155 30.9726 16.8112 30.9121 16.6033 30.8456C12.7197 29.6366 8.29075 30.1347 5.80365 30.9666L6.67178 34.6664C8.3899 33.9518 12.3739 33.4778 15.4788 34.4475C16.07 34.6325 16.6492 34.8018 17.2187 34.9602V46.1116H21.5484V35.9432C23.0844 36.2171 24.6408 36.3607 26.201 36.3724C28.6301 36.3724 30.7278 35.9613 32.5161 35.144V46.1116H36.8471V21.2684H32.5161V30.7405Z" fill="#E6485C"/>
</g>
<defs>
<clipPath id="clip0_1_1043">
<rect width="133" height="72" fill="white"/>
</clipPath>
</defs>
</svg>
