<svg width="20" height="21" viewBox="0 0 20 21" fill="none" xmlns="http://www.w3.org/2000/svg">
<g clip-path="url(#clip0_1_992)">
<g clip-path="url(#clip1_1_992)">
<g clip-path="url(#clip2_1_992)">
<path d="M5.8 0.170898H14.2C17.4 0.170898 20 2.7709 20 5.9709V14.3709C20 15.9091 19.3889 17.3844 18.3012 18.4721C17.2135 19.5598 15.7383 20.1709 14.2 20.1709H5.8C2.6 20.1709 0 17.5709 0 14.3709V5.9709C0 4.43264 0.61107 2.95739 1.69878 1.86968C2.78649 0.781968 4.26174 0.170898 5.8 0.170898ZM5.6 2.1709C4.64522 2.1709 3.72955 2.55018 3.05442 3.22531C2.37928 3.90044 2 4.81612 2 5.7709V14.5709C2 16.5609 3.61 18.1709 5.6 18.1709H14.4C15.3548 18.1709 16.2705 17.7916 16.9456 17.1165C17.6207 16.4413 18 15.5257 18 14.5709V5.7709C18 3.7809 16.39 2.1709 14.4 2.1709H5.6ZM15.25 3.6709C15.5815 3.6709 15.8995 3.80259 16.1339 4.03701C16.3683 4.27143 16.5 4.58938 16.5 4.9209C16.5 5.25242 16.3683 5.57036 16.1339 5.80478C15.8995 6.0392 15.5815 6.1709 15.25 6.1709C14.9185 6.1709 14.6005 6.0392 14.3661 5.80478C14.1317 5.57036 14 5.25242 14 4.9209C14 4.58938 14.1317 4.27143 14.3661 4.03701C14.6005 3.80259 14.9185 3.6709 15.25 3.6709ZM10 5.1709C11.3261 5.1709 12.5979 5.69768 13.5355 6.63536C14.4732 7.57304 15 8.84481 15 10.1709C15 11.497 14.4732 12.7687 13.5355 13.7064C12.5979 14.6441 11.3261 15.1709 10 15.1709C8.67392 15.1709 7.40215 14.6441 6.46447 13.7064C5.52678 12.7687 5 11.497 5 10.1709C5 8.84481 5.52678 7.57304 6.46447 6.63536C7.40215 5.69768 8.67392 5.1709 10 5.1709ZM10 7.1709C9.20435 7.1709 8.44129 7.48697 7.87868 8.04958C7.31607 8.61218 7 9.37525 7 10.1709C7 10.9665 7.31607 11.7296 7.87868 12.2922C8.44129 12.8548 9.20435 13.1709 10 13.1709C10.7956 13.1709 11.5587 12.8548 12.1213 12.2922C12.6839 11.7296 13 10.9665 13 10.1709C13 9.37525 12.6839 8.61218 12.1213 8.04958C11.5587 7.48697 10.7956 7.1709 10 7.1709Z" fill="#292B2E"/>
</g>
</g>
</g>
<defs>
<clipPath id="clip0_1_992">
<rect width="20" height="20" fill="white" transform="translate(0 0.169922)"/>
</clipPath>
<clipPath id="clip1_1_992">
<rect width="20" height="20" fill="white" transform="translate(0 0.169922)"/>
</clipPath>
<clipPath id="clip2_1_992">
<rect width="20" height="20" fill="white" transform="translate(0 0.169922)"/>
</clipPath>
</defs>
</svg>
