<svg width="30" height="16" viewBox="0 0 30 16" fill="none" xmlns="http://www.w3.org/2000/svg">
<path d="M15.9375 6.15259C15.9375 6.67134 15.5188 7.09009 15 7.09009C14.4812 7.09009 14.0625 6.67134 14.0625 6.15259C14.0625 5.63384 14.4812 5.21509 15 5.21509C15.5188 5.21509 15.9375 5.63384 15.9375 6.15259ZM15.625 11.4651V8.34009H14.375V11.4651H15.625ZM15 14.7463C18.5375 14.7463 21.4062 11.8776 21.4062 8.34009C21.4062 4.80259 18.5375 1.93384 15 1.93384C11.4625 1.93384 8.59375 4.80259 8.59375 8.34009C8.59375 11.8776 11.4625 14.7463 15 14.7463ZM20.1562 8.34009C20.1562 11.1901 17.85 13.4963 15 13.4963C12.15 13.4963 9.84375 11.1901 9.84375 8.34009C9.84375 5.49009 12.15 3.18384 15 3.18384C17.85 3.18384 20.1562 5.49009 20.1562 8.34009Z" fill="#536471"/>
</svg>
