<svg width="32" height="21" viewBox="0 0 32 21" fill="none" xmlns="http://www.w3.org/2000/svg">
<path d="M17.2502 7.92334C17.2502 8.61501 16.6918 9.17334 16.0002 9.17334C15.3085 9.17334 14.7502 8.61501 14.7502 7.92334C14.7502 7.23167 15.3085 6.67334 16.0002 6.67334C16.6918 6.67334 17.2502 7.23167 17.2502 7.92334ZM16.8335 15.0067V10.84H15.1668V15.0067H16.8335ZM16.0002 19.3817C20.7168 19.3817 24.5418 15.5567 24.5418 10.84C24.5418 6.12334 20.7168 2.29834 16.0002 2.29834C11.2835 2.29834 7.4585 6.12334 7.4585 10.84C7.4585 15.5567 11.2835 19.3817 16.0002 19.3817ZM22.8752 10.84C22.8752 14.64 19.8002 17.715 16.0002 17.715C12.2002 17.715 9.12516 14.64 9.12516 10.84C9.12516 7.04001 12.2002 3.96501 16.0002 3.96501C19.8002 3.96501 22.8752 7.04001 22.8752 10.84Z" fill="#536471"/>
</svg>
