<svg width="16" height="15" viewBox="0 0 16 15" fill="none" xmlns="http://www.w3.org/2000/svg">
<g clip-path="url(#clip0_1_1825)">
<g clip-path="url(#clip1_1_1825)">
<g clip-path="url(#clip2_1_1825)">
<path d="M14.0848 3.9917C14.024 3.7533 13.8512 3.5733 13.6536 3.5181C13.304 3.4197 11.6 3.1957 8 3.1957C4.4 3.1957 2.6976 3.4197 2.3448 3.5181C2.1496 3.5725 1.9768 3.7525 1.9152 3.9917C1.828 4.3309 1.6 5.7525 1.6 7.9957C1.6 10.2389 1.828 11.6597 1.9152 12.0005C1.976 12.2381 2.1488 12.4181 2.3456 12.4725C2.6976 12.5717 4.4 12.7957 8 12.7957C11.6 12.7957 13.3032 12.5717 13.6552 12.4733C13.8504 12.4189 14.0232 12.2389 14.0848 11.9997C14.172 11.6605 14.4 10.2357 14.4 7.9957C14.4 5.7557 14.172 4.3317 14.0848 3.9917ZM15.6344 3.5941C16 5.0197 16 7.9957 16 7.9957C16 7.9957 16 10.9717 15.6344 12.3973C15.4312 13.1853 14.8368 13.8053 14.084 14.0149C12.7168 14.3957 8 14.3957 8 14.3957C8 14.3957 3.2856 14.3957 1.916 14.0149C1.16 13.8021 0.5664 13.1829 0.3656 12.3973C0 10.9717 0 7.9957 0 7.9957C0 7.9957 0 5.0197 0.3656 3.5941C0.5688 2.8061 1.1632 2.1861 1.916 1.9765C3.2856 1.5957 8 1.5957 8 1.5957C8 1.5957 12.7168 1.5957 14.084 1.9765C14.84 2.1893 15.4336 2.8085 15.6344 3.5941ZM6.4 10.7957V5.1957L11.2 7.9957L6.4 10.7957Z" fill="#292B2E"/>
</g>
</g>
</g>
<defs>
<clipPath id="clip0_1_1825">
<rect width="16" height="14" fill="white" transform="translate(0 0.629883)"/>
</clipPath>
<clipPath id="clip1_1_1825">
<rect width="16" height="14" fill="white" transform="translate(0 0.629883)"/>
</clipPath>
<clipPath id="clip2_1_1825">
<rect width="16" height="14" fill="white" transform="translate(0 0.629883)"/>
</clipPath>
</defs>
</svg>
