<svg width="26" height="27" viewBox="0 0 26 27" fill="none" xmlns="http://www.w3.org/2000/svg">
<g clip-path="url(#clip0_1_11)">
<g clip-path="url(#clip1_1_11)">
<path d="M12.5 17.9267C14.0408 16.697 15.2037 15.5154 15.9889 14.3818C16.7741 13.2488 17.1667 12.1637 17.1667 11.1267C17.1667 10.2526 17.0072 9.50801 16.6884 8.8929C16.3702 8.27838 15.978 7.78209 15.5116 7.40401C15.0446 7.02654 14.537 6.75246 13.9889 6.5818C13.4407 6.41172 12.9444 6.32668 12.5 6.32668C12.0555 6.32668 11.5593 6.41172 11.0111 6.5818C10.463 6.75246 9.9557 7.02654 9.48933 7.40401C9.02237 7.78209 8.62949 8.27838 8.31066 8.8929C7.99244 9.50801 7.83333 10.2526 7.83333 11.1267C7.83333 12.1637 8.22592 13.2488 9.01111 14.3818C9.79629 15.5154 10.9592 16.697 12.5 17.9267ZM12.5 19.3267C12.3815 19.3267 12.2704 19.3119 12.1667 19.2822C12.0629 19.2526 11.9667 19.2007 11.8778 19.1267C10.0704 17.7193 8.72222 16.3524 7.83333 15.0262C6.94445 13.7006 6.5 12.4007 6.5 11.1267C6.5 10.1193 6.68163 9.23394 7.04488 8.47068C7.40755 7.70802 7.87422 7.06742 8.44489 6.54891C9.01496 6.03038 9.65941 5.64165 10.3782 5.38268C11.0965 5.12312 11.8037 4.99335 12.5 4.99335C13.1963 4.99335 13.9038 5.12312 14.6226 5.38268C15.3409 5.64165 15.985 6.03038 16.5551 6.54891C17.1258 7.06742 17.5928 7.70802 17.956 8.47068C18.3186 9.23394 18.5 10.1193 18.5 11.1267C18.5 12.4007 18.0556 13.7006 17.1667 15.0262C16.2777 16.3524 14.9296 17.7193 13.1222 19.1267C13.0481 19.2007 12.9557 19.2526 12.8449 19.2822C12.7335 19.3119 12.6186 19.3267 12.5 19.3267ZM12.5 12.5489C12.9296 12.5489 13.2964 12.3972 13.6005 12.0938C13.9038 11.7897 14.0556 11.423 14.0556 10.9933C14.0556 10.5637 13.9038 10.1969 13.6005 9.89291C13.2964 9.5895 12.9296 9.43779 12.5 9.43779C12.0704 9.43779 11.7036 9.5895 11.3996 9.89291C11.0961 10.1969 10.9445 10.5637 10.9445 10.9933C10.9445 11.423 11.0961 11.7897 11.3996 12.0938C11.7036 12.3972 12.0704 12.5489 12.5 12.5489ZM7.16666 22.3267C6.97408 22.3267 6.81496 22.2638 6.68933 22.1383C6.56311 22.012 6.5 21.8526 6.5 21.66C6.5 21.4674 6.56311 21.308 6.68933 21.1818C6.81496 21.0561 6.97408 20.9933 7.16666 20.9933H17.8333C18.0259 20.9933 18.1854 21.0561 18.3116 21.1818C18.4371 21.308 18.5 21.4674 18.5 21.66C18.5 21.8526 18.4371 22.012 18.3116 22.1383C18.1854 22.2638 18.0259 22.3267 17.8333 22.3267H7.16666Z" fill="#292B2E"/>
</g>
</g>
<defs>
<clipPath id="clip0_1_11">
<rect width="26" height="26" fill="white" transform="translate(0 0.660034)"/>
</clipPath>
<clipPath id="clip1_1_11">
<rect width="26" height="26" fill="white" transform="translate(0 0.660034)"/>
</clipPath>
</defs>
</svg>
