<svg width="40" height="41" viewBox="0 0 40 41" fill="none" xmlns="http://www.w3.org/2000/svg">
<mask id="mask0_1_724" style="mask-type:alpha" maskUnits="userSpaceOnUse" x="0" y="0" width="40" height="41">
<path d="M40 0.279785H0V40.2798H40V0.279785Z" fill="#D9D9D9"/>
</mask>
<g mask="url(#mask0_1_724)">
<path d="M18.2563 22.7926L14.9882 19.5212C14.8315 19.3645 14.6614 19.2862 14.478 19.2862C14.2946 19.2862 14.1246 19.3645 13.9679 19.5212C13.8112 19.6779 13.7376 19.8533 13.7473 20.0474C13.7569 20.2414 13.8293 20.4062 13.9647 20.5415L17.3824 23.9379C17.6246 24.1943 17.907 24.3225 18.2296 24.3225C18.5523 24.3225 18.8418 24.1943 19.0982 23.9379L26.0106 17.0254C26.1488 16.8873 26.2179 16.7229 26.2179 16.5324C26.2179 16.3419 26.1488 16.1704 26.0106 16.018C25.8724 15.8798 25.7074 15.816 25.5154 15.8267C25.3235 15.8374 25.162 15.9012 25.0309 16.018L18.2563 22.7926ZM19.9999 35.0907C19.8796 35.0907 19.7692 35.086 19.6687 35.0767C19.5683 35.0675 19.4825 35.0443 19.4113 35.0073C16.2154 33.8941 13.5701 31.8287 11.4753 28.8113C9.38061 25.7938 8.33325 22.4208 8.33325 18.6921V11.4667C8.33325 10.9546 8.48264 10.4856 8.78142 10.0596C9.08022 9.63369 9.45789 9.32848 9.9144 9.14401L19.1452 5.72309C19.4429 5.60984 19.7278 5.55322 19.9999 5.55322C20.272 5.55322 20.5569 5.60984 20.8546 5.72309L30.0854 9.14401C30.5419 9.32848 30.9196 9.63369 31.2184 10.0596C31.5172 10.4856 31.6666 10.9546 31.6666 11.4667V18.6921C31.6666 22.4208 30.6192 25.7938 28.5245 28.8113C26.4298 31.8287 23.7916 33.8941 20.61 35.0073C20.528 35.0401 20.3247 35.0678 19.9999 35.0907Z" fill="#1C1B1F"/>
</g>
</svg>
