<svg width="49" height="41" viewBox="0 0 49 41" fill="none" xmlns="http://www.w3.org/2000/svg">
<g clip-path="url(#clip0_1_734)">
<g clip-path="url(#clip1_1_734)">
<g clip-path="url(#clip2_1_734)">
<path d="M30.8547 8.8623H18.1462V31.6969H30.8547V8.8623Z" fill="#FF5F00"/>
<path d="M18.9525 20.2796C18.9525 15.6401 21.1313 11.5252 24.48 8.86188C22.0194 6.92573 18.9125 5.75586 15.5238 5.75586C7.49561 5.75586 1 12.2515 1 20.2796C1 28.3077 7.49561 34.8033 15.5238 34.8033C18.9125 34.8033 22.0194 33.6335 24.48 31.6964C21.1313 29.074 18.9525 24.919 18.9525 20.2796Z" fill="#EB001B"/>
<path d="M48 20.2796C48 28.3077 41.5053 34.8033 33.4763 34.8033C30.0876 34.8033 26.9815 33.6335 24.52 31.6964C27.9096 29.034 30.0475 24.919 30.0475 20.2796C30.0475 15.6401 27.8687 11.5252 24.52 8.86188C26.9815 6.92573 30.0876 5.75586 33.4763 5.75586C41.5053 5.75586 48 12.2915 48 20.2796Z" fill="#F79E1B"/>
</g>
</g>
</g>
<defs>
<clipPath id="clip0_1_734">
<rect width="48" height="40" fill="white" transform="translate(0.5 0.279785)"/>
</clipPath>
<clipPath id="clip1_1_734">
<rect width="48" height="40" fill="white" transform="translate(0.5 0.279785)"/>
</clipPath>
<clipPath id="clip2_1_734">
<rect width="48" height="30" fill="white" transform="translate(0.5 5.27979)"/>
</clipPath>
</defs>
</svg>
