<svg width="37" height="37" viewBox="0 0 37 37" fill="none" xmlns="http://www.w3.org/2000/svg">
<g clip-path="url(#clip0_1_233)">
<g clip-path="url(#clip1_1_233)">
<path d="M22.7613 11.9816C22.4067 11.3745 21.9471 10.9014 21.3825 10.5626C20.8179 10.2236 20.1603 10.0542 19.4099 10.0542C18.8472 10.0542 18.2829 10.1615 17.717 10.3761C17.1511 10.5907 16.6771 10.9244 16.295 11.3772L15.3863 10.4683C15.8168 9.97369 16.3271 9.58786 16.9172 9.31081C17.5073 9.03373 18.0988 8.86477 18.6915 8.80395V6.90005C18.6915 6.71097 18.7522 6.55575 18.8736 6.43436C18.995 6.31302 19.1502 6.25234 19.3393 6.25234C19.5284 6.25234 19.6835 6.31302 19.8049 6.43436C19.9263 6.55575 19.987 6.71097 19.987 6.90005V8.79216C20.7165 8.84775 21.4462 9.08493 22.176 9.50362C22.9058 9.92239 23.5082 10.5747 23.9832 11.4605C24.0696 11.6163 24.0812 11.7824 24.018 11.9591C23.9549 12.1358 23.8386 12.2633 23.6692 12.3419C23.5003 12.4105 23.3292 12.4098 23.1559 12.3399C22.9825 12.2699 22.851 12.1504 22.7613 11.9816ZM30.3484 30.9046L24.3286 24.8907C23.853 25.5261 23.223 26.0526 22.4385 26.4703C21.6541 26.888 20.8369 27.1028 19.987 27.1146V28.9812C19.987 29.1702 19.9263 29.3255 19.8049 29.4468C19.6835 29.5682 19.5284 29.6289 19.3393 29.6289C19.1502 29.6289 18.995 29.5682 18.8736 29.4468C18.7522 29.3255 18.6915 29.1702 18.6915 28.9812V27.0439C17.5277 26.864 16.5775 26.4245 15.8412 25.7254C15.1048 25.0264 14.5128 24.1167 14.0653 22.9967C14.0038 22.839 14.012 22.6748 14.0898 22.504C14.1677 22.3333 14.2923 22.2181 14.4637 22.1586C14.6253 22.0918 14.7837 22.1007 14.9387 22.1851C15.0938 22.2695 15.205 22.3944 15.2724 22.5599C15.6565 23.5282 16.2054 24.3142 16.9192 24.9177C17.633 25.5213 18.5378 25.8231 19.6337 25.8231C20.4253 25.8231 21.1506 25.6555 21.8094 25.3201C22.4682 24.9848 22.9946 24.5283 23.3885 23.9506L6.47921 7.04135C6.35686 6.919 6.29077 6.76919 6.28095 6.5919C6.27115 6.41459 6.33724 6.25495 6.47921 6.11298C6.62118 5.97101 6.77591 5.90002 6.9434 5.90002C7.11088 5.90002 7.26561 5.97101 7.40758 6.11298L31.2769 29.9822C31.3475 30.0489 31.399 30.1179 31.4314 30.1892C31.4638 30.2606 31.48 30.3404 31.48 30.4287C31.48 30.517 31.4638 30.6008 31.4314 30.6799C31.399 30.7591 31.3475 30.834 31.2769 30.9046C31.148 31.0467 30.9965 31.1177 30.8225 31.1177C30.6484 31.1177 30.4904 31.0467 30.3484 30.9046Z" fill="#1C1B1F"/>
</g>
</g>
<defs>
<clipPath id="clip0_1_233">
<rect width="36" height="36" fill="white" transform="translate(0.880005 0.5)"/>
</clipPath>
<clipPath id="clip1_1_233">
<rect width="36" height="36" fill="white" transform="translate(0.880005 0.5)"/>
</clipPath>
</defs>
</svg>
