<svg width="48" height="49" viewBox="0 0 48 49" fill="none" xmlns="http://www.w3.org/2000/svg">
<g clip-path="url(#clip0_1_1699)">
<g clip-path="url(#clip1_1_1699)">
<path d="M19.9192 40.3454V32.261C18.0525 32.1275 16.209 31.9441 14.3885 31.7107C12.568 31.4774 10.7539 31.1646 8.94615 30.7723C8.71795 30.7236 8.5173 30.6076 8.3442 30.4243C8.17113 30.2409 8.10897 30.0416 8.1577 29.8261C8.2064 29.5851 8.34935 29.4159 8.58655 29.3184C8.82372 29.221 9.07307 29.1967 9.3346 29.2454C11.7474 29.7787 14.1792 30.1601 16.6298 30.3896C19.0804 30.6191 21.5371 30.7339 24 30.7339C26.4629 30.7339 28.9196 30.6191 31.3703 30.3896C33.8209 30.1601 36.2526 29.7787 38.6654 29.2454C38.9269 29.1967 39.1744 29.2198 39.4077 29.3149C39.641 29.41 39.7821 29.574 39.8308 29.8069C39.8795 30.0351 39.8154 30.2428 39.6384 30.43C39.4615 30.6172 39.2423 30.7351 38.9808 30.7839C37.1808 31.1762 35.3706 31.4871 33.5503 31.7166C31.73 31.946 29.9068 32.1313 28.0808 32.2723V40.3454C28.0808 40.7467 27.9504 41.0778 27.6895 41.3387C27.4286 41.5995 27.0975 41.73 26.6961 41.73H21.3039C20.9025 41.73 20.5714 41.5995 20.3105 41.3387C20.0497 41.0778 19.9192 40.7467 19.9192 40.3454ZM24.0054 27.03C23.1044 27.03 22.3404 26.7189 21.7135 26.0966C21.0865 25.4743 20.7731 24.7135 20.7731 23.814C20.7731 22.9093 21.0842 22.1434 21.7065 21.5165C22.3288 20.8896 23.0896 20.5762 23.9891 20.5762C24.8938 20.5762 25.6596 20.8865 26.2866 21.5073C26.9135 22.128 27.2269 22.8915 27.2269 23.7977C27.2269 24.6987 26.9166 25.4627 26.2958 26.0896C25.6751 26.7165 24.9116 27.03 24.0054 27.03ZM9.7692 21.4993C9.27433 21.4993 8.85575 21.3281 8.51345 20.9857C8.17115 20.6434 8 20.2214 8 19.7195C8 19.265 8.17115 18.8582 8.51345 18.4992C8.85575 18.1402 9.27787 17.9608 9.7798 17.9608C10.2343 17.9608 10.641 18.1392 11 18.496C11.359 18.8528 11.5385 19.2642 11.5385 19.73C11.5385 20.2249 11.36 20.6434 11.0032 20.9857C10.6464 21.3281 10.235 21.4993 9.7692 21.4993ZM38.2308 21.4993C37.7359 21.4993 37.3173 21.3281 36.975 20.9857C36.6327 20.6434 36.4616 20.2214 36.4616 19.7195C36.4616 19.265 36.6327 18.8582 36.975 18.4992C37.3173 18.1402 37.7394 17.9608 38.2414 17.9608C38.6959 17.9608 39.1026 18.1392 39.4616 18.496C39.8205 18.8528 40 19.2642 40 19.73C40 20.2249 39.8216 20.6434 39.4648 20.9857C39.1079 21.3281 38.6966 21.4993 38.2308 21.4993ZM14.8846 14.1915C14.3897 14.1915 13.9711 14.0204 13.6288 13.6781C13.2866 13.3358 13.1154 12.9137 13.1154 12.4118C13.1154 11.9573 13.2866 11.5505 13.6288 11.1915C13.9711 10.8325 14.3933 10.653 14.8952 10.653C15.3497 10.653 15.7564 10.8315 16.1154 11.1883C16.4744 11.5452 16.6538 11.9565 16.6538 12.4223C16.6538 12.9172 16.4754 13.3358 16.1186 13.6781C15.7618 14.0204 15.3504 14.1915 14.8846 14.1915ZM33.1154 14.1915C32.6205 14.1915 32.2019 14.0204 31.8596 13.6781C31.5173 13.3358 31.3461 12.9137 31.3461 12.4118C31.3461 11.9573 31.5173 11.5505 31.8596 11.1915C32.2019 10.8325 32.6241 10.653 33.1259 10.653C33.5805 10.653 33.9872 10.8315 34.3461 11.1883C34.7051 11.5452 34.8846 11.9565 34.8846 12.4223C34.8846 12.9172 34.7062 13.3358 34.3493 13.6781C33.9925 14.0204 33.5812 14.1915 33.1154 14.1915ZM24 11.2685C23.5051 11.2685 23.0866 11.0973 22.7443 10.755C22.4019 10.4127 22.2308 9.99056 22.2308 9.48863C22.2308 9.03413 22.4019 8.6274 22.7443 8.26843C23.0866 7.90946 23.5086 7.72998 24.0105 7.72998C24.465 7.72998 24.8718 7.9084 25.2307 8.26523C25.5897 8.62206 25.7693 9.03338 25.7693 9.49918C25.7693 9.99408 25.5908 10.4127 25.234 10.755C24.8771 11.0973 24.4658 11.2685 24 11.2685Z" fill="#1C1B1F"/>
</g>
</g>
<defs>
<clipPath id="clip0_1_1699">
<rect width="48" height="48" fill="white" transform="translate(0 0.72998)"/>
</clipPath>
<clipPath id="clip1_1_1699">
<rect width="48" height="48" fill="white" transform="translate(0 0.72998)"/>
</clipPath>
</defs>
</svg>
