<svg width="361" height="361" viewBox="0 0 361 361" fill="none" xmlns="http://www.w3.org/2000/svg">
<g clip-path="url(#clip0_1_382)">
<g clip-path="url(#clip1_1_382)">
<path d="M147.5 88.3401H75.5C67.4643 88.3401 60.95 94.8543 60.95 102.89V267.89C60.95 275.926 67.4643 282.44 75.5 282.44H147.5C155.536 282.44 162.05 275.926 162.05 267.89V102.89C162.05 94.8543 155.536 88.3401 147.5 88.3401Z" fill="#292B2E" stroke="#292B2E" stroke-width="0.9"/>
<path d="M141.5 88.3401H69.5C61.4643 88.3401 54.95 94.8543 54.95 102.89V267.89C54.95 275.926 61.4643 282.44 69.5 282.44H141.5C149.536 282.44 156.05 275.926 156.05 267.89V102.89C156.05 94.8543 149.536 88.3401 141.5 88.3401Z" fill="white" stroke="#292B2E" stroke-width="0.9"/>
<path d="M116 94.3401H96.5C94.2633 94.3401 92.45 96.1533 92.45 98.3901C92.45 100.627 94.2633 102.44 96.5 102.44H116C118.237 102.44 120.05 100.627 120.05 98.3901C120.05 96.1533 118.237 94.3401 116 94.3401Z" fill="#292B2E" stroke="#292B2E" stroke-width="0.9"/>
<path fill-rule="evenodd" clip-rule="evenodd" d="M255.706 228.321C252.412 225.86 247.726 226.69 245.477 230.132L215.662 275.767C215.209 276.461 214.279 276.656 213.586 276.203L212.958 275.792C212.264 275.339 212.069 274.41 212.523 273.716L242.338 228.081C245.77 222.828 252.923 221.561 257.95 225.317L311.307 265.177C311.971 265.673 312.107 266.613 311.611 267.277L311.162 267.878C310.666 268.541 309.726 268.677 309.063 268.182L255.706 228.321Z" fill="white" stroke="#292B2E" stroke-width="0.9" stroke-linecap="round" stroke-linejoin="round"/>
<path d="M214.772 283.319C219.018 283.319 222.46 279.877 222.46 275.631C222.46 271.385 219.018 267.943 214.772 267.943C210.526 267.943 207.084 271.385 207.084 275.631C207.084 279.877 210.526 283.319 214.772 283.319Z" fill="#BFEBFF"/>
<path d="M214.772 278.926C216.592 278.926 218.067 277.451 218.067 275.631C218.067 273.811 216.592 272.336 214.772 272.336C212.952 272.336 211.477 273.811 211.477 275.631C211.477 277.451 212.952 278.926 214.772 278.926Z" fill="#292B2E"/>
<path d="M214.772 266.515V272.248C214.772 273.549 216.316 274.233 217.28 273.359L223.606 267.626C224.623 266.705 223.971 265.015 222.599 265.015H216.272C215.444 265.015 214.772 265.686 214.772 266.515Z" fill="white" stroke="#292B2E" stroke-width="0.9" stroke-linecap="round" stroke-linejoin="round"/>
<path d="M304.797 283.319C309.043 283.319 312.485 279.877 312.485 275.631C312.485 271.385 309.043 267.943 304.797 267.943C300.551 267.943 297.109 271.385 297.109 275.631C297.109 279.877 300.551 283.319 304.797 283.319Z" fill="#BFEBFF"/>
<path d="M304.796 278.926C306.616 278.926 308.091 277.451 308.091 275.631C308.091 273.811 306.616 272.336 304.796 272.336C302.976 272.336 301.501 273.811 301.501 275.631C301.501 277.451 302.976 278.926 304.796 278.926Z" fill="#292B2E"/>
<path d="M304.796 266.515V272.248C304.796 273.549 306.34 274.233 307.304 273.359L313.63 267.626C314.647 266.705 313.995 265.015 312.623 265.015H306.296C305.468 265.015 304.796 265.686 304.796 266.515Z" fill="white" stroke="#292B2E" stroke-width="0.9" stroke-linecap="round" stroke-linejoin="round"/>
<path fill-rule="evenodd" clip-rule="evenodd" d="M224.222 228.321C220.928 225.86 216.241 226.69 213.993 230.132L184.178 275.767C183.724 276.461 182.795 276.656 182.101 276.203L181.474 275.792C180.78 275.339 180.585 274.41 181.038 273.716L210.853 228.081C214.285 222.828 221.439 221.561 226.466 225.317L279.823 265.177C280.486 265.673 280.623 266.613 280.127 267.277L279.678 267.878C279.182 268.541 278.242 268.677 277.578 268.182L224.222 228.321Z" fill="white" stroke="#292B2E" stroke-width="0.9" stroke-linecap="round" stroke-linejoin="round"/>
<path d="M183.288 283.319C187.534 283.319 190.976 279.877 190.976 275.631C190.976 271.385 187.534 267.943 183.288 267.943C179.042 267.943 175.6 271.385 175.6 275.631C175.6 279.877 179.042 283.319 183.288 283.319Z" fill="#BFEBFF"/>
<path d="M183.288 278.926C185.108 278.926 186.583 277.451 186.583 275.631C186.583 273.811 185.108 272.336 183.288 272.336C181.468 272.336 179.993 273.811 179.993 275.631C179.993 277.451 181.468 278.926 183.288 278.926Z" fill="#292B2E"/>
<path d="M183.288 266.515V272.248C183.288 273.549 184.831 274.233 185.795 273.359L192.121 267.626C193.138 266.705 192.486 265.015 191.114 265.015H184.788C183.959 265.015 183.288 265.686 183.288 266.515Z" fill="white" stroke="#292B2E" stroke-width="0.9" stroke-linecap="round" stroke-linejoin="round"/>
<path d="M273.312 283.319C277.558 283.319 281 279.877 281 275.631C281 271.385 277.558 267.943 273.312 267.943C269.066 267.943 265.624 271.385 265.624 275.631C265.624 279.877 269.066 283.319 273.312 283.319Z" fill="#BFEBFF"/>
<path d="M273.312 278.926C275.132 278.926 276.607 277.451 276.607 275.631C276.607 273.811 275.132 272.336 273.312 272.336C271.492 272.336 270.017 273.811 270.017 275.631C270.017 277.451 271.492 278.926 273.312 278.926Z" fill="#292B2E"/>
<path d="M273.312 266.515V272.248C273.312 273.549 274.856 274.233 275.82 273.359L282.146 267.626C283.163 266.705 282.511 265.015 281.139 265.015H274.812C273.984 265.015 273.312 265.686 273.312 266.515Z" fill="white" stroke="#292B2E" stroke-width="0.9" stroke-linecap="round" stroke-linejoin="round"/>
<path fill-rule="evenodd" clip-rule="evenodd" d="M211.151 163.08C211.114 162.872 211.035 162.675 210.917 162.5L198.574 144.182C198.112 143.495 198.293 142.562 198.98 142.1L199.602 141.68C200.289 141.218 201.222 141.399 201.684 142.086L214.25 160.736C214.515 161.129 214.694 161.573 214.776 162.04L225.108 221.089C225.25 221.905 224.705 222.683 223.889 222.825L223.15 222.955C222.334 223.097 221.556 222.552 221.414 221.736L211.151 163.08Z" fill="#292B2E" stroke="#292B2E" stroke-width="0.9" stroke-linecap="round" stroke-linejoin="round"/>
<path fill-rule="evenodd" clip-rule="evenodd" d="M160.872 163.079C160.834 162.881 160.756 162.693 160.643 162.525L148.283 144.182C147.821 143.495 148.002 142.562 148.689 142.1L149.311 141.68C149.998 141.218 150.931 141.399 151.393 142.086L163.134 159.512C163.413 159.925 163.879 160.173 164.378 160.173H320.946C323.232 160.173 324.857 162.399 324.16 164.576L305.664 222.418C305.217 223.816 303.917 224.765 302.449 224.765H175.567C173.95 224.765 172.56 223.618 172.254 222.03L160.872 163.079ZM166.672 163.923C165.729 163.923 165.02 164.782 165.199 165.708L167.646 178.383C167.782 179.089 168.4 179.599 169.119 179.599H277.57C278.21 179.599 278.78 179.192 278.988 178.587L283.347 165.911C283.682 164.937 282.959 163.923 281.929 163.923H166.672ZM289.067 163.923C288.426 163.923 287.857 164.33 287.648 164.936L283.289 177.611C282.954 178.585 283.678 179.599 284.708 179.599H314.324C314.977 179.599 315.554 179.177 315.753 178.556L319.806 165.88C320.116 164.912 319.394 163.923 318.378 163.923H289.067ZM313.595 185.306C313.904 184.338 313.182 183.349 312.166 183.349H282.386C281.746 183.349 281.176 183.755 280.968 184.361L276.167 198.319C275.833 199.293 276.556 200.307 277.586 200.307H307.702C308.355 200.307 308.932 199.885 309.131 199.264L313.595 185.306ZM306.973 206.014C307.282 205.046 306.56 204.057 305.544 204.057H275.265C274.624 204.057 274.054 204.463 273.846 205.069L269.046 219.027C268.711 220.001 269.434 221.015 270.464 221.015H301.08C301.733 221.015 302.31 220.593 302.509 219.972L306.973 206.014ZM263.326 221.015C263.967 221.015 264.536 220.608 264.745 220.003L269.545 206.045C269.88 205.071 269.156 204.057 268.126 204.057H174.42C173.478 204.057 172.769 204.916 172.947 205.841L175.642 219.799C175.779 220.505 176.396 221.015 177.115 221.015H263.326ZM171.644 199.091C171.78 199.797 172.398 200.307 173.117 200.307H270.448C271.088 200.307 271.658 199.9 271.866 199.295L276.667 185.337C277.002 184.363 276.278 183.349 275.248 183.349H170.422C169.48 183.349 168.771 184.208 168.949 185.133L171.644 199.091Z" fill="white" stroke="#292B2E" stroke-width="0.9" stroke-linecap="round" stroke-linejoin="round"/>
<path d="M138.5 140.39C138.5 138.733 139.843 137.39 141.5 137.39H207.5C209.157 137.39 210.5 138.733 210.5 140.39C210.5 142.047 209.157 143.39 207.5 143.39H141.5C139.843 143.39 138.5 142.047 138.5 140.39Z" fill="white" stroke="#292B2E" stroke-width="0.9" stroke-linecap="round"/>
<path d="M141.5 143.39C143.157 143.39 144.5 142.047 144.5 140.39C144.5 138.733 143.157 137.39 141.5 137.39C139.843 137.39 138.5 138.733 138.5 140.39C138.5 142.047 139.843 143.39 141.5 143.39Z" fill="white" stroke="#292B2E" stroke-width="0.9" stroke-linecap="round"/>
<path d="M105.5 215.39C122.897 215.39 137 201.287 137 183.89C137 166.493 122.897 152.39 105.5 152.39C88.103 152.39 74 166.493 74 183.89C74 201.287 88.103 215.39 105.5 215.39Z" fill="#BFEBFF"/>
<path d="M92 186.649L100.298 195.89L120.5 173.39" stroke="#292B2E" stroke-width="1.5" stroke-linecap="round" stroke-linejoin="round"/>
</g>
</g>
<defs>
<clipPath id="clip0_1_382">
<rect width="360" height="360" fill="white" transform="translate(0.5 0.890137)"/>
</clipPath>
<clipPath id="clip1_1_382">
<rect width="360" height="360" fill="white" transform="translate(0.5 0.890137)"/>
</clipPath>
</defs>
</svg>
