<svg width="24" height="19" viewBox="0 0 24 19" fill="none" xmlns="http://www.w3.org/2000/svg">
<g clip-path="url(#clip0_1_689)">
<g clip-path="url(#clip1_1_689)">
<g clip-path="url(#clip2_1_689)">
<path d="M23.6035 1.99875C23.6035 2.40759 23.3482 2.7127 22.9911 2.81644C19.2637 3.73585 17.4271 5.98146 17.4271 9.60729C17.4271 10.9356 17.836 11.6495 18.6019 11.6495C18.7554 11.6495 19.0107 11.5977 19.266 11.5478C19.7765 11.3943 20.1853 11.3444 20.5424 11.3444C21.5635 11.3444 22.431 11.6515 23.0432 12.3136C23.6555 12.9777 23.9627 13.7436 23.9627 14.5592C23.9627 15.3769 23.6555 16.1427 23.0432 16.8049C22.431 17.469 21.6133 17.7741 20.5921 17.7741C19.2141 17.7741 18.0394 17.11 17.0183 15.8335C15.9972 14.5572 15.4867 12.8221 15.4867 10.6759C15.4867 8.22489 16.2007 6.08098 17.6305 4.34612C18.8551 2.86634 20.5403 1.79337 22.6344 1.23095C23.0432 1.08137 23.6035 1.43834 23.6035 1.99875ZM9.05271 1.99875C9.05271 2.40759 8.79744 2.7127 8.44046 2.81644C4.71303 3.73584 2.87648 5.98146 2.87648 9.60729C2.87648 10.9356 3.28532 11.6495 4.10098 11.6495C4.25455 11.6495 4.45797 11.5977 4.76511 11.5478C5.27566 11.3943 5.6845 11.3444 6.04148 11.3444C7.06258 11.3444 7.88028 11.6515 8.54236 12.3136C9.15462 12.9777 9.46177 13.7436 9.46177 14.5592C9.46177 15.325 9.15464 16.0908 8.54236 16.755C7.93011 17.4191 7.11242 17.7761 6.04148 17.7761C4.6634 17.7761 3.48873 17.112 2.46763 15.8356C1.44652 14.5592 0.935974 12.8241 0.935974 10.678C0.935974 8.22693 1.64992 6.08303 3.07988 4.34817C4.30438 2.86839 5.93978 1.79541 8.03181 1.23299C8.54236 1.08142 9.05271 1.43834 9.05271 1.99875Z" fill="#292B2E"/>
</g>
</g>
</g>
<defs>
<clipPath id="clip0_1_689">
<rect width="24" height="17.27" fill="white" transform="translate(0 0.889648)"/>
</clipPath>
<clipPath id="clip1_1_689">
<rect width="24" height="17.27" fill="white" transform="translate(0 0.889648)"/>
</clipPath>
<clipPath id="clip2_1_689">
<rect width="23.9861" height="17.27" fill="white" transform="translate(0.00695801 0.889648)"/>
</clipPath>
</defs>
</svg>
