<svg width="18" height="13" viewBox="0 0 18 13" fill="none" xmlns="http://www.w3.org/2000/svg">
<g clip-path="url(#clip0_1_1742)">
<g clip-path="url(#clip1_1_1742)">
<g clip-path="url(#clip2_1_1742)">
<path d="M16.6174 6.73018C16.6174 6.8304 16.6031 6.9269 16.5745 7.01968C16.5459 7.11303 16.4886 7.1955 16.4027 7.26709L11.6564 12.0134C11.5418 12.1423 11.3949 12.2067 11.2157 12.2067C11.037 12.2067 10.8832 12.1423 10.7544 12.0134C10.6398 11.8846 10.5825 11.7305 10.5825 11.5512C10.5825 11.3726 10.6398 11.2188 10.7544 11.0899L14.4913 7.37447H1.26173C1.0756 7.37447 0.921539 7.31348 0.799552 7.19149C0.678139 7.07008 0.617432 6.91631 0.617432 6.73018C0.617432 6.54405 0.678138 6.38999 0.799552 6.268C0.921539 6.14659 1.0756 6.08588 1.26173 6.08588H14.4913L10.7544 2.34897C10.6398 2.23443 10.5788 2.08753 10.5714 1.90827C10.5645 1.72958 10.6255 1.57581 10.7544 1.44695C10.8832 1.31809 11.037 1.25366 11.2157 1.25366C11.3949 1.25366 11.5418 1.31809 11.6564 1.44695L16.4027 6.19326C16.4886 6.26485 16.5459 6.34703 16.5745 6.43981C16.6031 6.53316 16.6174 6.62995 16.6174 6.73018Z" fill="#292B2E"/>
</g>
</g>
</g>
<defs>
<clipPath id="clip0_1_1742">
<rect width="17" height="12" fill="white" transform="translate(0.590088 0.72998)"/>
</clipPath>
<clipPath id="clip1_1_1742">
<rect width="17" height="12" fill="white" transform="translate(0.590088 0.72998)"/>
</clipPath>
<clipPath id="clip2_1_1742">
<rect width="17" height="12" fill="white" transform="translate(0.590088 0.72998)"/>
</clipPath>
</defs>
</svg>
