<svg width="18" height="13" viewBox="0 0 18 13" fill="none" xmlns="http://www.w3.org/2000/svg">
<g clip-path="url(#clip0_1_378)">
<g clip-path="url(#clip1_1_378)">
<g clip-path="url(#clip2_1_378)">
<path d="M16.7273 6.39033C16.7273 6.49055 16.713 6.58705 16.6844 6.67983C16.6558 6.77318 16.5985 6.85565 16.5126 6.92724L11.7663 11.6735C11.6517 11.8024 11.5048 11.8668 11.3256 11.8668C11.1469 11.8668 10.9931 11.8024 10.8643 11.6735C10.7497 11.5447 10.6924 11.3906 10.6924 11.2113C10.6924 11.0327 10.7497 10.8789 10.8643 10.75L14.6012 7.03462H1.37159C1.18546 7.03462 1.0314 6.97363 0.909415 6.85164C0.788002 6.73023 0.727295 6.57646 0.727295 6.39033C0.727295 6.2042 0.788002 6.05014 0.909415 5.92815C1.0314 5.80674 1.18546 5.74603 1.37159 5.74603H14.6012L10.8643 2.00912C10.7497 1.89458 10.6887 1.74768 10.6812 1.56842C10.6744 1.38974 10.7354 1.23597 10.8643 1.10711C10.9931 0.978247 11.1469 0.913818 11.3256 0.913818C11.5048 0.913818 11.6517 0.978247 11.7663 1.10711L16.5126 5.85341C16.5985 5.925 16.6558 6.00718 16.6844 6.09996C16.713 6.19331 16.7273 6.2901 16.7273 6.39033Z" fill="#292B2E"/>
</g>
</g>
</g>
<defs>
<clipPath id="clip0_1_378">
<rect width="17" height="12" fill="white" transform="translate(0.699951 0.390137)"/>
</clipPath>
<clipPath id="clip1_1_378">
<rect width="17" height="12" fill="white" transform="translate(0.699951 0.390137)"/>
</clipPath>
<clipPath id="clip2_1_378">
<rect width="17" height="12" fill="white" transform="translate(0.699951 0.390137)"/>
</clipPath>
</defs>
</svg>
