<svg width="37" height="41" viewBox="0 0 37 41" fill="none" xmlns="http://www.w3.org/2000/svg">
<g clip-path="url(#clip0_1_669)">
<g clip-path="url(#clip1_1_669)">
<path d="M12.2534 21.287C12.7631 20.2932 13.3142 19.326 13.9066 18.3851C14.499 17.4442 15.1443 16.5351 15.8424 15.6575L13.2755 15.1357C13.1206 15.097 12.9706 15.1019 12.8254 15.1502C12.6803 15.1986 12.5496 15.281 12.4334 15.3971L8.46879 19.3423C8.4107 19.4005 8.39134 19.4715 8.41069 19.5553C8.43004 19.6392 8.47844 19.6941 8.55587 19.7199L12.2534 21.287ZM29.9335 9.57792C27.3705 9.76894 25.1934 10.2881 23.4025 11.1353C21.6115 11.9826 19.8858 13.2364 18.2255 14.8967C17.1918 15.9304 16.2596 17.0584 15.4291 18.2806C14.5987 19.5027 13.8821 20.7714 13.2794 22.0864L17.7609 26.5844C19.076 25.9689 20.3494 25.2458 21.5813 24.4153C22.8132 23.5848 23.9459 22.6527 24.9797 21.619C26.64 19.9587 27.8938 18.2393 28.741 16.4609C29.5883 14.6825 30.1075 12.5117 30.2985 9.94866C30.2985 9.90349 30.2951 9.8567 30.2883 9.80831C30.2816 9.75989 30.2584 9.70956 30.2191 9.65731C30.1798 9.61793 30.1368 9.59485 30.0904 9.58808C30.0439 9.58131 29.9916 9.57792 29.9335 9.57792ZM21.6655 18.2137C21.2467 17.8078 21.0373 17.3089 21.0373 16.7169C21.0373 16.1248 21.2467 15.6194 21.6655 15.2006C22.0843 14.7819 22.5902 14.5724 23.1833 14.5724C23.7763 14.5724 24.2822 14.7819 24.7009 15.2006C25.1197 15.6194 25.3291 16.1248 25.3291 16.7169C25.3291 17.3089 25.1197 17.8078 24.7009 18.2137C24.2822 18.6325 23.7763 18.8419 23.1833 18.8419C22.5902 18.8419 22.0843 18.6325 21.6655 18.2137ZM18.5604 27.6259L20.1275 31.3204C20.1533 31.3979 20.2081 31.4415 20.292 31.4512C20.3759 31.4608 20.4469 31.4366 20.5049 31.3786L24.4503 27.4623C24.5664 27.3461 24.6486 27.2123 24.6971 27.0606C24.7455 26.909 24.7503 26.7622 24.7115 26.6202L24.1957 24.0339C23.3181 24.7322 22.4111 25.3812 21.4749 25.9809C20.5385 26.5807 19.5671 27.129 18.5604 27.6259ZM31.58 9.39401C31.5232 12.0203 31.0244 14.4019 30.0835 16.5387C29.1427 18.6756 27.7467 20.6761 25.8953 22.5404C25.7947 22.6281 25.6956 22.7181 25.5981 22.8105C25.5008 22.9027 25.4018 22.9927 25.301 23.0805L25.9515 26.3492C26.0289 26.7235 26.0105 27.0819 25.8963 27.4246C25.7821 27.7672 25.5966 28.0669 25.3397 28.3238L20.9705 32.7124C20.6859 32.984 20.3514 33.0816 19.9668 33.0051C19.5822 32.9287 19.3189 32.7034 19.177 32.3291L17.2885 27.9047L11.9485 22.5491L7.51826 20.6665C7.144 20.5116 6.92718 20.2409 6.86782 19.8544C6.80844 19.4679 6.9146 19.1388 7.18626 18.8671L11.5497 14.4843C11.8065 14.2275 12.1099 14.0458 12.46 13.9395C12.8101 13.833 13.1658 13.8184 13.5272 13.8959L16.7959 14.5462C16.8836 14.4585 16.9697 14.3685 17.0543 14.2762C17.1389 14.184 17.2315 14.094 17.3321 14.0062C19.1834 12.142 21.1765 10.7346 23.3114 9.78408C25.4464 8.83358 27.827 8.33639 30.4534 8.29252C30.6082 8.28155 30.754 8.30365 30.8909 8.35882C31.0277 8.41398 31.1535 8.49899 31.2683 8.61385C31.3832 8.74162 31.4633 8.86487 31.5089 8.9836C31.5543 9.10234 31.578 9.23914 31.58 9.39401ZM8.47944 27.0084C9.06986 26.405 9.78435 26.11 10.6229 26.1232C11.4615 26.1364 12.1824 26.4382 12.7857 27.0287C13.3761 27.6191 13.6699 28.3336 13.667 29.1721C13.6641 30.0107 13.3675 30.7317 12.777 31.335C12.2473 31.8519 11.433 32.2914 10.3345 32.6533C9.23587 33.0153 7.9177 33.2679 6.37998 33.4112C6.52322 31.8735 6.77649 30.5511 7.1398 29.4441C7.50309 28.3372 7.94964 27.5252 8.47944 27.0084ZM9.3728 27.9531C9.05402 28.2886 8.76365 28.8053 8.50167 29.5032C8.2397 30.2011 8.05385 30.9891 7.94415 31.8674C8.8224 31.7448 9.61045 31.5514 10.3083 31.2871C11.0062 31.0229 11.5229 30.7249 11.8585 30.3933C12.2133 30.059 12.3928 29.6501 12.3967 29.1668C12.4005 28.6835 12.2269 28.2644 11.8759 27.9095C11.521 27.5584 11.1018 27.3892 10.6185 27.4018C10.1352 27.4144 9.71997 27.5981 9.3728 27.9531Z" fill="#1C1B1F"/>
</g>
</g>
<defs>
<clipPath id="clip0_1_669">
<rect width="36" height="40" fill="white" transform="translate(0.97998 0.889893)"/>
</clipPath>
<clipPath id="clip1_1_669">
<rect width="36" height="40" fill="white" transform="translate(0.97998 0.889893)"/>
</clipPath>
</defs>
</svg>
