<svg width="37" height="37" viewBox="0 0 37 37" fill="none" xmlns="http://www.w3.org/2000/svg">
<g clip-path="url(#clip0_1_245)">
<g clip-path="url(#clip1_1_245)">
<path d="M11.6534 18.8972C12.1632 17.9034 12.7142 16.9362 13.3066 15.9953C13.899 15.0545 14.5443 14.1453 15.2424 13.2677L12.6755 12.746C12.5206 12.7073 12.3706 12.7121 12.2254 12.7605C12.0803 12.8089 11.9496 12.8912 11.8334 13.0073L7.86881 16.9526C7.81072 17.0107 7.79136 17.0817 7.81071 17.1655C7.83006 17.2494 7.87846 17.3043 7.95589 17.3301L11.6534 18.8972ZM29.3335 7.18815C26.7705 7.37917 24.5934 7.89829 22.8025 8.74553C21.0115 9.59282 19.2858 10.8466 17.6255 12.5069C16.5918 13.5407 15.6597 14.6686 14.8291 15.8908C13.9987 17.1129 13.2821 18.3816 12.6794 19.6967L17.1609 24.1946C18.476 23.5791 19.7494 22.856 20.9813 22.0255C22.2132 21.1951 23.3459 20.2629 24.3797 19.2292C26.04 17.5689 27.2938 15.8495 28.141 14.0711C28.9883 12.2927 29.5075 10.1219 29.6985 7.55889C29.6985 7.51372 29.6951 7.46693 29.6883 7.41853C29.6816 7.37011 29.6584 7.31979 29.6191 7.26754C29.5798 7.22816 29.5368 7.20508 29.4904 7.1983C29.4439 7.19154 29.3916 7.18815 29.3335 7.18815ZM21.0655 15.824C20.6467 15.4181 20.4373 14.9191 20.4373 14.3271C20.4373 13.7351 20.6467 13.2296 21.0655 12.8109C21.4843 12.3921 21.9903 12.1827 22.5833 12.1827C23.1763 12.1827 23.6822 12.3921 24.1009 12.8109C24.5197 13.2296 24.7291 13.7351 24.7291 14.3271C24.7291 14.9191 24.5197 15.4181 24.1009 15.824C23.6822 16.2427 23.1763 16.4522 22.5833 16.4522C21.9903 16.4522 21.4843 16.2427 21.0655 15.824ZM17.9604 25.2362L19.5275 28.9307C19.5533 29.0082 19.6081 29.0517 19.692 29.0614C19.7759 29.0711 19.8469 29.0469 19.905 28.9888L23.8503 25.0725C23.9664 24.9564 24.0487 24.8225 24.0971 24.6709C24.1455 24.5192 24.1504 24.3724 24.1116 24.2304L23.5957 21.6442C22.7181 22.3424 21.8112 22.9914 20.8749 23.5911C19.9385 24.1909 18.9671 24.7393 17.9604 25.2362ZM30.98 7.00424C30.9232 9.63053 30.4244 12.0121 29.4836 14.149C28.5427 16.2858 27.1467 18.2864 25.2953 20.1506C25.1947 20.2384 25.0956 20.3284 24.9981 20.4207C24.9008 20.513 24.8018 20.603 24.7011 20.6907L25.3515 23.9594C25.4289 24.3337 25.4105 24.6921 25.2963 25.0348C25.1821 25.3775 24.9966 25.6772 24.7398 25.934L20.3705 30.3226C20.0859 30.5942 19.7514 30.6919 19.3668 30.6154C18.9822 30.539 18.7189 30.3136 18.577 29.9393L16.6885 25.5149L11.3485 20.1594L6.91828 18.2767C6.54402 18.1218 6.3272 17.8511 6.26783 17.4647C6.20846 17.0781 6.31462 16.749 6.58628 16.4774L10.9497 12.0945C11.2065 11.8378 11.5099 11.6561 11.86 11.5497C12.2101 11.4432 12.5658 11.4286 12.9272 11.5061L16.1959 12.1565C16.2836 12.0687 16.3698 11.9787 16.4544 11.8865C16.5389 11.7942 16.6315 11.7042 16.7321 11.6165C18.5834 9.75221 20.5765 8.34482 22.7114 7.39431C24.8464 6.44381 27.227 5.94662 29.8534 5.90275C30.0082 5.89178 30.1541 5.91388 30.2909 5.96905C30.4277 6.02421 30.5535 6.10922 30.6683 6.22408C30.7832 6.35185 30.8634 6.4751 30.9089 6.59383C30.9544 6.71257 30.978 6.84937 30.98 7.00424ZM7.87946 24.6186C8.46987 24.0152 9.18437 23.7202 10.023 23.7334C10.8615 23.7467 11.5824 24.0484 12.1857 24.6389C12.7761 25.2293 13.0699 25.9438 13.067 26.7824C13.0641 27.6209 12.7675 28.3419 12.177 28.9452C11.6473 29.4621 10.833 29.9016 9.73451 30.2636C8.63589 30.6255 7.31772 30.8782 5.78 31.0215C5.92324 29.4837 6.17651 28.1613 6.53982 27.0543C6.90311 25.9474 7.34966 25.1355 7.87946 24.6186ZM8.77282 25.5633C8.45404 25.8988 8.16367 26.4155 7.90169 27.1134C7.63971 27.8113 7.45387 28.5994 7.34417 29.4776C8.22242 29.355 9.01047 29.1616 9.70832 28.8974C10.4062 28.6331 10.923 28.3351 11.2585 28.0035C11.6133 27.6692 11.7928 27.2604 11.7967 26.7771C11.8005 26.2938 11.6269 25.8746 11.2759 25.5198C10.921 25.1687 10.5018 24.9995 10.0185 25.0121C9.53525 25.0247 9.11999 25.2084 8.77282 25.5633Z" fill="#1C1B1F"/>
</g>
</g>
<defs>
<clipPath id="clip0_1_245">
<rect width="36" height="36" fill="white" transform="translate(0.380005 0.5)"/>
</clipPath>
<clipPath id="clip1_1_245">
<rect width="36" height="36" fill="white" transform="translate(0.380005 0.5)"/>
</clipPath>
</defs>
</svg>
