<svg width="196" height="207" viewBox="0 0 196 207" fill="none" xmlns="http://www.w3.org/2000/svg">
<g clip-path="url(#clip0_1_1711)">
<g clip-path="url(#clip1_1_1711)">
<g clip-path="url(#clip2_1_1711)">
<path d="M190.348 96.8174C190.102 102.775 187.11 106.509 181.389 108.367C182.187 109.076 182.739 109.568 183.23 110.004C191.019 116.936 198.535 124.175 205.557 131.969C210.155 137.053 214.473 142.329 217.894 148.241C219.18 150.378 220.24 152.645 221.129 154.98C221.74 156.516 222.016 158.306 222.053 159.993C222.092 163.778 219.689 166.603 216.013 167.522C214.004 168.051 211.907 168.06 209.962 167.653C206.542 166.926 203.177 166.137 199.854 165.055C190.894 162.156 182.292 158.361 173.799 154.443C163.334 149.652 152.979 144.739 142.569 139.888C141.969 139.574 141.253 139.268 140.298 138.859C140.576 139.658 140.78 140.17 140.983 140.682C141.743 142.792 141.8 144.828 140.328 146.606C138.746 148.507 136.676 148.981 134.43 148.417C132.656 147.941 130.752 147.239 129.074 146.408C122.246 143.089 115.898 138.984 109.549 134.879C97.4531 126.982 85.7336 118.539 74.5553 109.363C65.0264 101.546 55.8875 93.4132 48.0084 83.8651C45.0666 80.2547 42.2891 76.4596 40.3047 72.2672C39.2446 70.0004 38.3554 67.665 38.0949 65.1171C37.4185 59.3314 40.188 54.7371 45.6628 52.6605C48.4582 51.6187 51.4091 51.2667 54.3797 51.2631C60.2048 51.263 65.9181 52.3765 71.4736 53.7908C72.3608 54.0288 73.3641 54.2599 74.4704 54.2517C74.1024 53.9243 73.7344 53.5968 73.4277 53.3239C66.8977 48.0645 60.5255 42.5043 55.0361 36.0754C52.5434 33.1954 50.331 30.1237 48.6182 26.6143C47.4289 24.1221 46.4652 21.4999 46.3077 18.7127C46.019 13.6029 48.0085 9.63814 52.2763 6.81832C54.6906 5.21678 57.3152 4.24351 60.2113 3.95309C63.6266 3.57323 67.042 3.19337 70.4288 3.33958C76.0348 3.58561 81.5509 4.30313 87.1701 4.78142C87.9894 4.84875 88.6926 4.92305 90.0377 5.01707C89.3564 4.30056 89.0432 3.91152 88.6139 3.52946C84.9338 0.25465 81.1989 -2.9586 77.6831 -6.41806C75.7139 -8.28076 73.9571 -10.5058 72.3165 -12.7378C71.3089 -14.0756 70.5204 -15.6597 69.9641 -17.2576C67.9623 -22.7889 70.0088 -27.8059 75.2733 -30.5108C78.1039 -31.9625 81.2191 -32.4992 84.4088 -32.7489C85.5085 -32.8732 86.6149 -32.8814 88.0081 -32.9651C87.5722 -33.4633 87.3203 -33.7977 87.0137 -34.0706C85.6577 -35.3875 84.247 -36.6428 83.0007 -38.0828C82.1288 -39.0792 81.36 -40.3149 80.8234 -41.5644C79.3362 -45.2039 80.8197 -48.8471 84.4016 -50.4022C85.8235 -51.0119 87.4906 -51.4033 88.9453 -51.4324C91.6836 -51.4221 94.4834 -51.3571 97.1932 -50.8207C102.674 -49.6932 108.1 -48.5042 113.492 -46.9052C121.503 -44.2983 129.35 -41.5067 137.245 -38.8929C138.61 -38.4504 140.036 -37.9534 141.449 -37.6887C154.275 -35.4292 166.516 -31.1536 178.291 -25.8595C197.652 -17.2338 215.847 -6.55718 232.876 6.17036C239.748 11.2927 246.236 16.8459 251.787 23.3294C253.966 25.8204 255.92 28.4414 257.258 31.5073C257.931 33.0982 258.61 34.8054 258.824 36.5404C259.47 40.7548 257.29 44.4397 253.237 45.9066C251.583 46.5303 249.8 46.9287 248.052 46.9171C244.384 46.9625 240.704 46.7757 237.065 46.295C229.849 45.3882 222.819 43.6546 215.844 41.8594C215.135 41.669 214.486 41.5331 213.503 41.6505C214.061 42.2578 214.558 42.8106 215.062 43.4795C216.008 44.7627 217.009 45.9844 217.785 47.3362C220.648 52.641 217.775 57.4745 211.779 57.5432C209.915 57.5386 207.921 57.3087 206.092 56.8942C202.079 55.9699 198.052 54.8134 194.142 53.6498C190.703 52.5746 187.318 51.4377 183.653 50.4925C183.967 50.8816 184.341 51.3252 184.709 51.6527C191.121 57.9097 197.307 64.2967 202.829 71.3063C205.716 74.9783 208.548 78.7119 210.594 82.9587C211.457 84.8296 212.326 86.8166 212.731 88.8315C213.785 94.0702 210.75 98.0977 205.429 98.7668C203.749 98.926 202 98.9144 200.301 98.7252C197.542 98.3664 194.881 97.6523 192.171 97.1158C191.645 97.0891 191.058 97.0079 190.348 96.8174Z" fill="#EDFFF4"/>
<path d="M76.2554 9.35475C69.422 4.28663 66.5178 -2.8315 64.8094 -10.5761C63.8414 -14.9039 63.3858 -19.2887 63.9553 -23.7304C64.183 -25.6096 64.5247 -27.4318 65.322 -29.1402C65.8345 -30.1652 66.4039 -31.1332 67.2011 -31.9874C68.6817 -33.5819 70.7317 -33.8666 72.7248 -32.9555C73.9776 -32.386 75.0026 -31.418 75.8568 -30.393C77.3374 -28.5707 78.4193 -26.5207 79.2735 -24.3568C81.5513 -18.6623 82.2916 -12.683 82.1777 -6.53293C82.0638 -2.43289 81.6083 1.66716 80.7541 5.65332C80.6971 5.93804 80.6971 6.16582 80.6402 6.50749C82.2347 7.30473 83.943 7.47556 85.7083 7.53251C93.0542 7.87418 100.229 6.79222 107.177 4.40053C109.454 3.6033 111.675 2.69217 113.839 1.61022C118.053 -0.382866 121.641 -3.28706 124.488 -6.93155C125 -7.55795 125.513 -8.18434 126.082 -8.81074C126.139 -8.86768 126.253 -8.86768 126.538 -8.86768C126.424 -8.46907 126.367 -8.18434 126.253 -7.89961C124.032 -3.17317 120.787 0.642151 116.459 3.60329C111.049 7.24778 105.07 9.52558 98.7488 10.7783C93.5668 11.8034 88.3847 12.2589 83.1458 11.6325C82.0069 11.5186 80.811 11.2339 79.5582 11.0061C79.4444 11.2909 79.3305 11.6325 79.2166 11.9742C77.679 17.1562 75.8568 22.1674 73.2373 26.8938C71.1304 30.7091 68.6817 34.2397 65.5497 37.3148C63.8414 38.9662 61.9622 40.4467 59.8552 41.5287C54.4454 44.2621 49.4912 43.4079 45.3911 38.9662C45.1634 38.7384 44.9356 38.5106 44.5939 38.1689C44.3661 38.7953 44.1953 39.2509 43.9675 39.7634C42.4869 43.8635 40.8355 47.9066 38.7286 51.7788C36.9063 55.0816 34.7993 58.2136 32.066 60.89C30.7562 62.1998 29.3326 63.2817 27.6812 64.1359C23.695 66.129 19.8797 65.8443 16.2352 63.2248C15.5519 62.7692 14.9824 62.1998 14.2421 61.6303C14.0144 62.2567 13.8435 62.7123 13.6727 63.2248C12.1352 67.7804 10.256 72.2791 7.92122 76.493C7.35177 77.575 6.66843 78.6 5.92814 79.568C5.58647 80.0805 5.01702 80.4222 4.50451 80.8208C4.04895 81.1056 3.53644 81.1056 3.13783 80.65C2.73921 80.1944 2.91005 79.7389 3.25172 79.2833C3.93506 78.3152 4.56146 77.2902 5.13091 76.2652C7.97817 71.0832 10.1421 65.6165 11.9074 60.0359C12.0782 59.5234 12.1921 59.0109 11.7935 58.4983C8.09206 53.2594 6.15592 47.3371 4.96007 41.0731C3.25172 32.3605 2.91005 23.5341 3.93506 14.7076C4.27673 11.6895 4.84618 8.7853 6.09898 5.99499C6.55454 4.96998 7.12399 3.94496 7.80733 3.09079C9.51569 0.983818 11.8504 0.86993 13.9005 2.69217C15.1533 3.83108 16.0074 5.19776 16.6908 6.73527C18.1144 9.69642 18.9116 12.8853 19.4241 16.1312C20.4492 22.3382 20.4492 28.5452 19.8228 34.8092C19.0825 42.4398 17.6019 49.9566 15.5519 57.3025C15.3241 58.1567 15.3241 58.7831 16.0644 59.3525C16.9755 60.0928 17.8297 60.947 18.7977 61.5734C20.9617 62.9401 23.2395 63.054 25.5742 62.0289C27.1687 61.3456 28.4784 60.3206 29.6743 59.1247C31.7812 57.1317 33.4327 54.7969 34.9702 52.3483C38.1591 47.1093 40.4939 41.4718 42.43 35.6634C42.6008 35.1509 42.6578 34.7522 42.3731 34.2397C39.8105 29.0577 38.6716 23.4771 38.1022 17.7826C37.4758 11.6325 37.5327 5.48248 38.5577 -0.610641C38.9563 -2.94539 39.4688 -5.28014 40.4369 -7.44405C40.8355 -8.35518 41.348 -9.2663 41.9744 -10.0066C43.512 -11.8289 45.6759 -11.7719 47.0995 -9.89267C47.7828 -8.98157 48.2953 -7.95656 48.694 -6.8746C49.7759 -3.85651 50.1176 -0.667591 50.3454 2.52134C50.9148 12.7145 49.2065 22.6799 46.3592 32.4175C46.2453 32.7592 46.1884 33.1008 46.0175 33.4425C45.7898 34.012 45.9036 34.5245 46.2453 34.98C47.0426 36.005 47.7828 37.1439 48.7509 37.9981C50.9718 40.1051 53.6482 40.6176 56.4954 39.4787C57.976 38.9092 59.3997 37.9981 60.7094 37.03C62.9872 35.3217 64.8094 33.1578 66.4609 30.88C69.9345 26.0966 72.3832 20.7437 74.3193 15.1631C75.0026 13.3978 75.5721 11.4047 76.2554 9.35475ZM13.1602 55.5372C13.331 55.1955 13.388 55.0816 13.4449 54.9108C13.5588 54.6261 13.6157 54.2844 13.7296 53.9997C15.8366 46.5399 17.2602 38.9092 17.7158 31.1647C18.0575 25.5271 17.9436 19.8896 16.6908 14.3089C16.1213 11.8034 15.4949 9.35475 14.2421 7.07694C13.6727 6.10888 12.9893 5.19776 12.1921 4.40053C11.4518 3.66024 10.5976 3.71719 9.97125 4.62831C9.40179 5.42554 8.88929 6.33666 8.54762 7.24778C7.29482 10.3798 6.83926 13.6825 6.55454 17.0423C5.98508 24.3882 6.3837 31.6772 7.63649 38.9662C8.54762 44.1482 9.85736 49.2163 12.2491 53.9427C12.5338 54.3414 12.7616 54.8539 13.1602 55.5372ZM77.2804 4.51442C77.4513 3.83107 77.5652 3.37551 77.6221 2.9769C77.8499 1.38243 78.1346 -0.155083 78.3054 -1.74954C78.9318 -7.501 78.761 -13.1955 77.3374 -18.8331C76.5971 -21.7373 75.5721 -24.4707 73.9207 -26.9763C73.2943 -27.8874 72.554 -28.6846 71.7568 -29.4249C70.6748 -30.336 69.9345 -30.1082 69.1942 -28.9124C68.9095 -28.4568 68.6817 -27.9443 68.5678 -27.4318C68.2831 -26.1221 67.9414 -24.7554 67.8275 -23.3887C67.4289 -18.4345 68.1123 -13.5942 69.4789 -8.81074C70.6748 -4.71069 72.4401 -0.89537 75.2304 2.40745C75.7999 3.09079 76.4832 3.71718 77.2804 4.51442ZM44.7647 -8.1274C44.6509 -8.1274 44.48 -8.1274 44.3661 -8.07045C44.0814 -7.55795 43.6828 -7.10238 43.455 -6.58988C43.0564 -5.50792 42.6008 -4.36902 42.3161 -3.23012C40.9494 2.23661 40.7216 7.81723 41.0064 13.4548C41.2341 18.5798 41.9175 23.7049 43.3981 28.6591C43.512 29.0577 43.6828 29.4563 43.8536 29.855C44.1953 29.3994 44.4231 28.9438 44.48 28.4883C45.1634 25.1285 46.0175 21.8257 46.53 18.4659C47.5551 12.3728 47.8967 6.22277 47.1564 0.129642C46.9287 -1.92038 46.3592 -3.9704 45.7898 -5.96348C45.6759 -6.76071 45.1634 -7.44405 44.7647 -8.1274Z" fill="white"/>
</g>
</g>
</g>
<defs>
<clipPath id="clip0_1_1711">
<path d="M0 0.530029H180C188.837 0.530029 196 7.69347 196 16.53V206.53H0V0.530029Z" fill="white"/>
</clipPath>
<clipPath id="clip1_1_1711">
<rect width="196" height="206" fill="white" transform="translate(0 0.530029)"/>
</clipPath>
<clipPath id="clip2_1_1711">
<rect width="196" height="206" fill="white" transform="translate(0 0.530029)"/>
</clipPath>
</defs>
</svg>
