<svg width="48" height="49" viewBox="0 0 48 49" fill="none" xmlns="http://www.w3.org/2000/svg">
<g clip-path="url(#clip0_1_1692)">
<g clip-path="url(#clip1_1_1692)">
<path d="M24.4 47.2017C24.1334 47.2017 23.9 47.1017 23.7 46.9017C23.5 46.7017 23.4 46.4462 23.4 46.135C23.4 45.8684 23.5 45.635 23.7 45.435C23.9 45.235 24.1334 45.135 24.4 45.135H41.6666C42.1112 45.135 42.4888 44.9795 42.8 44.6684C43.1111 44.3573 43.2667 43.9795 43.2667 43.535V23.335C43.2667 20.7572 42.7445 18.3129 41.7 16.0017C40.6556 13.6906 39.2555 11.6572 37.5 9.90169C35.7445 8.14613 33.7 6.75725 31.3666 5.73503C29.0333 4.71281 26.5777 4.20169 24 4.20169C21.4223 4.20169 18.9667 4.71281 16.6334 5.73503C14.3 6.75725 12.2556 8.14613 10.5 9.90169C8.74445 11.6572 7.34444 13.6906 6.3 16.0017C5.25556 18.3129 4.73333 20.7572 4.73333 23.335V38.6684C4.73333 38.935 4.66666 39.1239 4.53333 39.235C4.4 39.3461 4.22222 39.4017 4 39.4017C2.88889 39.4017 1.94444 39.0129 1.16667 38.235C0.388888 37.4573 0 36.5128 0 35.4017V30.0683C0 29.3128 0.244445 28.6128 0.733334 27.9683C1.22222 27.324 1.86667 26.7572 2.66667 26.2684L2.73333 22.735C2.82222 19.8461 3.44444 17.1461 4.6 14.635C5.75555 12.1239 7.3 9.93503 9.23333 8.06836C11.1667 6.20169 13.4 4.73502 15.9333 3.66836C18.4666 2.60169 21.1555 2.06836 24 2.06836C26.8445 2.06836 29.5445 2.59058 32.1 3.63503C34.6555 4.67947 36.8889 6.13503 38.8 8.00169C40.7111 9.86836 42.2444 12.0572 43.4 14.5684C44.5555 17.0795 45.1777 19.8017 45.2667 22.735L45.3333 26.135C46.1333 26.535 46.7778 27.0461 47.2666 27.6683C47.7556 28.2905 48 28.9572 48 29.6684V35.8017C48 36.5128 47.7556 37.1795 47.2666 37.8017C46.7778 38.424 46.1333 38.935 45.3333 39.335V43.535C45.3333 44.5128 44.9667 45.3683 44.2334 46.1017C43.5 46.835 42.6445 47.2017 41.6666 47.2017H24.4ZM17 28.6684C16.5556 28.6684 16.1555 28.4906 15.8 28.135C15.4445 27.7795 15.2667 27.3572 15.2667 26.8684C15.2667 26.424 15.4445 26.0239 15.8 25.6684C16.1555 25.3128 16.5778 25.135 17.0667 25.135C17.5112 25.135 17.9111 25.3128 18.2667 25.6684C18.6222 26.0239 18.8 26.424 18.8 26.8684C18.8 27.3572 18.6222 27.7795 18.2667 28.135C17.9111 28.4906 17.4889 28.6684 17 28.6684ZM31 28.6684C30.5111 28.6684 30.0889 28.4906 29.7333 28.135C29.3778 27.7795 29.2 27.3572 29.2 26.8684C29.2 26.424 29.3778 26.0239 29.7333 25.6684C30.0889 25.3128 30.5111 25.135 31 25.135C31.4444 25.135 31.8445 25.3128 32.2 25.6684C32.5555 26.0239 32.7333 26.424 32.7333 26.8684C32.7333 27.3572 32.5555 27.7795 32.2 28.135C31.8445 28.4906 31.4444 28.6684 31 28.6684ZM9.93333 24.4684C9.75556 22.1573 10.0667 20.0462 10.8667 18.135C11.6667 16.224 12.7445 14.6128 14.1 13.3017C15.4555 11.9906 17.0222 10.9795 18.8 10.2684C20.5777 9.55724 22.3555 9.20169 24.1334 9.20169C27.6889 9.20169 30.7223 10.335 33.2333 12.6017C35.7445 14.8684 37.2889 17.6906 37.8667 21.0683C34.1778 21.024 30.8889 20.0239 28 18.0683C25.1111 16.1128 22.8889 13.6017 21.3333 10.535C20.7111 13.6906 19.3777 16.5017 17.3333 18.9683C15.2889 21.435 12.8222 23.2684 9.93333 24.4684Z" fill="#292B2E"/>
</g>
</g>
<defs>
<clipPath id="clip0_1_1692">
<rect width="48" height="48" fill="white" transform="translate(0 0.72998)"/>
</clipPath>
<clipPath id="clip1_1_1692">
<rect width="48" height="45.4737" fill="white" transform="translate(0 1.99316)"/>
</clipPath>
</defs>
</svg>
