<svg width="33" height="21" viewBox="0 0 33 21" fill="none" xmlns="http://www.w3.org/2000/svg">
<path d="M22.2201 4.74994C20.5951 3.1166 17.9617 3.1166 16.3284 4.74994L15.1534 5.92494L13.9701 4.74994L15.1534 3.5666C17.4284 1.2916 21.1201 1.2916 23.4034 3.5666C25.6784 5.84994 25.6784 9.5416 23.4034 11.8166L22.2201 12.9999L21.0451 11.8166L22.2201 10.6416C23.8534 9.00827 23.8534 6.37494 22.2201 4.74994ZM20.4534 7.6916L14.5617 13.5833L13.3867 12.4083L19.2784 6.5166L20.4534 7.6916ZM10.4367 8.28327L11.6201 7.09994L12.7951 8.28327L11.6201 9.45827C9.98672 11.0916 9.98672 13.7249 11.6201 15.3499C13.2451 16.9833 15.8784 16.9833 17.5117 15.3499L18.6867 14.1749L19.8701 15.3499L18.6867 16.5333C16.4117 18.8083 12.7201 18.8083 10.4367 16.5333C8.16172 14.2499 8.16172 10.5583 10.4367 8.28327Z" fill="#536471"/>
</svg>
