<svg width="78" height="18" viewBox="0 0 78 18" fill="none" xmlns="http://www.w3.org/2000/svg">
<path d="M9.3633 10.1685H4.58121L3.43279 13.5594H1.40729L5.93681 1.01367H8.04124L12.5708 13.5594H10.5107L9.3633 10.1685ZM5.07648 8.60368H8.86708L6.99844 3.10037H6.94615L5.07648 8.60368Z" fill="#292B2E"/>
<path d="M22.353 8.98626C22.353 11.8286 20.8316 13.6549 18.5358 13.6549C17.9542 13.6853 17.3758 13.5513 16.8668 13.2683C16.3578 12.9853 15.9389 12.5646 15.6578 12.0546H15.6144V16.5851H13.7369V4.41234H15.5542V5.93369H15.5888C15.8827 5.42605 16.3088 5.0076 16.8216 4.72286C17.3345 4.43811 17.9149 4.29772 18.5012 4.31663C20.8227 4.31664 22.353 6.15173 22.353 8.98626ZM20.4231 8.98626C20.4231 7.13441 19.4661 5.91692 18.0059 5.91692C16.5714 5.91692 15.6065 7.16005 15.6065 8.98626C15.6065 10.8292 16.5714 12.0635 18.0059 12.0635C19.4661 12.0635 20.4231 10.8549 20.4231 8.98626Z" fill="#292B2E"/>
<path d="M32.4203 8.98625C32.4203 11.8286 30.899 13.6548 28.6031 13.6548C28.0216 13.6853 27.4432 13.5513 26.9342 13.2683C26.4252 12.9853 26.0062 12.5646 25.7252 12.0545H25.6818V16.5851H23.8042V4.41233H25.6216V5.93368H25.6561C25.9501 5.42604 26.3761 5.00759 26.889 4.72285C27.4018 4.43811 27.9823 4.29772 28.5686 4.31663C30.8901 4.31663 32.4203 6.15172 32.4203 8.98625ZM30.4905 8.98625C30.4905 7.1344 29.5335 5.91691 28.0733 5.91691C26.6388 5.91691 25.6739 7.16004 25.6739 8.98625C25.6739 10.8292 26.6388 12.0635 28.0733 12.0635C29.5335 12.0635 30.4905 10.8549 30.4905 8.98625Z" fill="#292B2E"/>
<path d="M39.0741 10.0641C39.2132 11.3082 40.4218 12.125 42.0734 12.125C43.6559 12.125 44.7945 11.3081 44.7945 10.1864C44.7945 9.21257 44.1078 8.6295 42.4818 8.22991L40.8559 7.83823C38.5522 7.28178 37.4827 6.2044 37.4827 4.45613C37.4827 2.2915 39.3691 0.804688 42.0477 0.804688C44.6987 0.804688 46.5161 2.2915 46.5773 4.45613H44.682C44.5685 3.20412 43.5335 2.44838 42.0211 2.44838C40.5086 2.44838 39.4736 3.21301 39.4736 4.3259C39.4736 5.21286 40.1347 5.73478 41.7517 6.13432L43.134 6.47371C45.708 7.08245 46.7775 8.11644 46.7775 9.95151C46.7775 12.2986 44.9079 13.7687 41.9342 13.7687C39.152 13.7687 37.2735 12.3332 37.1521 10.064L39.0741 10.0641Z" fill="#292B2E"/>
<path d="M50.8294 2.24756V4.41219H52.5688V5.89901H50.8294V10.9415C50.8294 11.7249 51.1777 12.0899 51.9423 12.0899C52.1488 12.0863 52.355 12.0718 52.5599 12.0465V13.5244C52.2162 13.5887 51.8668 13.6178 51.5171 13.6113C49.6652 13.6113 48.943 12.9157 48.943 11.1418V5.89901H47.6131V4.41219H48.943V2.24756H50.8294Z" fill="#292B2E"/>
<path d="M53.5762 8.98717C53.5762 6.10923 55.2712 4.30078 57.9143 4.30078C60.5663 4.30078 62.2535 6.10919 62.2535 8.98717C62.2535 11.873 60.5752 13.6735 57.9143 13.6735C55.2544 13.6735 53.5762 11.873 53.5762 8.98717ZM60.3404 8.98717C60.3404 7.01297 59.4357 5.84778 57.9143 5.84778C56.393 5.84778 55.4892 7.02185 55.4892 8.98717C55.4892 10.9692 56.393 12.1256 57.9143 12.1256C59.4357 12.1256 60.3404 10.9692 60.3404 8.98717Z" fill="#292B2E"/>
<path d="M63.8016 4.41225H65.5923V5.9691H65.6357C65.7569 5.48287 66.0417 5.05316 66.4424 4.75221C66.8431 4.45126 67.3351 4.29741 67.8358 4.31653C68.0522 4.31578 68.268 4.33928 68.4791 4.38659V6.14275C68.206 6.05929 67.921 6.02096 67.6355 6.0293C67.3628 6.01823 67.0909 6.06632 66.8384 6.17027C66.586 6.27421 66.3591 6.43155 66.1732 6.63147C65.9874 6.8314 65.847 7.06918 65.7617 7.32849C65.6764 7.5878 65.6482 7.8625 65.6791 8.13373V13.5591H63.8016V4.41225Z" fill="#292B2E"/>
<path d="M77.1356 10.8735C76.883 12.534 75.266 13.6735 73.197 13.6735C70.5362 13.6735 68.8846 11.8907 68.8846 9.03058C68.8846 6.16152 70.545 4.30078 73.1181 4.30078C75.6488 4.30078 77.2402 6.03918 77.2402 8.81254V9.45581H70.7799V9.56927C70.75 9.9059 70.7922 10.245 70.9035 10.5641C71.0148 10.8832 71.1927 11.1749 71.4255 11.42C71.6582 11.665 71.9404 11.8577 72.2533 11.9853C72.5662 12.1129 72.9027 12.1725 73.2405 12.1601C73.6841 12.2017 74.1294 12.0989 74.51 11.8671C74.8906 11.6353 75.1862 11.2868 75.3528 10.8735H77.1356ZM70.7887 8.14362H75.3617C75.3785 7.84094 75.3326 7.53805 75.2269 7.25394C75.1211 6.96984 74.9578 6.71066 74.7471 6.49268C74.5364 6.27469 74.283 6.1026 74.0027 5.98721C73.7223 5.87182 73.4212 5.81562 73.1181 5.82213C72.8124 5.8203 72.5093 5.87905 72.2264 5.99497C71.9434 6.11089 71.6863 6.2817 71.4697 6.49753C71.2531 6.71336 71.0815 6.96994 70.9646 7.25247C70.8477 7.535 70.7879 7.83787 70.7887 8.14362Z" fill="#292B2E"/>
</svg>
