<svg width="21" height="23" viewBox="0 0 21 23" fill="none" xmlns="http://www.w3.org/2000/svg">
<path fill-rule="evenodd" clip-rule="evenodd" d="M9.61353 11.88L14.2733 16.2986L18.5136 13.8518L18.5199 13.8484C19.2142 13.4736 19.6843 12.7425 19.6843 11.8999C19.6843 11.0635 19.2205 10.3361 18.5334 9.96019L18.5223 9.95413L18.511 9.94638L14.2556 7.47949L9.61353 11.88Z" fill="#292B2E"/>
<path fill-rule="evenodd" clip-rule="evenodd" d="M0.5 20.4199C0.5 20.4537 0.500748 20.4872 0.502235 20.5205L8.90134 11.8803L0.502255 3.24023C0.500756 3.27353 0.5 3.30707 0.5 3.34085V20.4199Z" fill="#292B2E"/>
<path fill-rule="evenodd" clip-rule="evenodd" d="M0.614746 2.6381L9.25723 11.5285L13.8062 7.21625L3.85668 1.44773L3.85363 1.4459C3.51891 1.24542 3.12876 1.12988 2.7108 1.12988C1.73694 1.12988 0.907597 1.76162 0.614746 2.6381Z" fill="#292B2E"/>
<path fill-rule="evenodd" clip-rule="evenodd" d="M0.614746 21.138L9.25723 12.2476L13.8062 16.5599L3.85668 22.3284L3.85363 22.3302C3.51891 22.5307 3.12876 22.6463 2.7108 22.6463C1.73694 22.6463 0.907597 22.0145 0.614746 21.138Z" fill="#292B2E"/>
</svg>
