<svg width="82" height="17" viewBox="0 0 82 17" fill="none" xmlns="http://www.w3.org/2000/svg">
<path d="M63.0475 12.3406H64.8008V0.594254H63.0475V12.3406ZM78.8391 4.82576L76.8293 9.91819H76.7692L74.6833 4.82576H72.7947L75.9235 11.9431L74.1393 15.9025H75.9677L80.7887 4.82576H78.8391ZM68.8955 11.0064C68.3223 11.0064 67.5209 10.719 67.5209 10.0089C67.5209 9.10226 68.5187 8.75471 69.3794 8.75471C70.1498 8.75471 70.5134 8.92064 70.9813 9.14745C70.8451 10.2357 69.9083 11.0064 68.8955 11.0064ZM69.1078 4.56878C67.8384 4.56878 66.524 5.12811 65.9799 6.36723L67.5359 7.01686C67.8685 6.36723 68.4877 6.15582 69.1379 6.15582C70.0446 6.15582 70.9663 6.69937 70.9813 7.66686V7.78759C70.6638 7.60626 69.9835 7.33434 69.1529 7.33434C67.4748 7.33434 65.7676 8.25588 65.7676 9.9787C65.7676 11.5504 67.1432 12.563 68.6841 12.563C69.8623 12.563 70.5134 12.0341 70.9203 11.4142H70.9813V12.3215H72.6745V7.81766C72.6745 5.73226 71.1166 4.56878 69.1078 4.56878ZM58.2726 6.25561H55.7789V2.22941H58.2726C59.5833 2.22941 60.3274 3.31434 60.3274 4.24246C60.3274 5.15273 59.5833 6.25561 58.2726 6.25561ZM58.2275 0.594254H54.0264V12.3406H55.7789V7.89038H58.2275C60.1705 7.89038 62.0807 6.48393 62.0807 4.24246C62.0807 2.00147 60.1705 0.594254 58.2275 0.594254ZM35.3192 11.0086C34.108 11.0086 33.0942 9.99411 33.0942 8.60202C33.0942 7.19378 34.108 6.16494 35.3192 6.16494C36.515 6.16494 37.4534 7.19378 37.4534 8.60202C37.4534 9.99411 36.515 11.0086 35.3192 11.0086ZM37.3323 5.48346H37.2717C36.8783 5.01433 36.1211 4.59048 35.168 4.59048C33.1695 4.59048 31.3381 6.34665 31.3381 8.60202C31.3381 10.842 33.1695 12.5828 35.168 12.5828C36.1211 12.5828 36.8783 12.1588 37.2717 11.6748H37.3323V12.2495C37.3323 13.7789 36.515 14.5959 35.1981 14.5959C34.1237 14.5959 33.4577 13.8241 33.1849 13.1733L31.6563 13.809C32.0949 14.8682 33.2602 16.1704 35.1981 16.1704C37.2571 16.1704 38.9978 14.9593 38.9978 12.0073V4.83271H37.3323V5.48346ZM40.209 12.3406H41.9642V0.594254H40.209V12.3406ZM44.5528 8.4655C44.5076 6.9214 45.7493 6.1345 46.6419 6.1345C47.3385 6.1345 47.9283 6.4828 48.1258 6.982L44.5528 8.4655ZM50.002 7.13318C49.6691 6.24058 48.655 4.59048 46.5813 4.59048C44.5223 4.59048 42.812 6.21013 42.812 8.58661C42.812 10.827 44.5076 12.5828 46.7776 12.5828C48.6091 12.5828 49.6691 11.463 50.1084 10.8119L48.746 9.90344C48.2917 10.5696 47.6714 11.0086 46.7776 11.0086C45.885 11.0086 45.249 10.5998 44.8409 9.79745L50.1836 7.58756L50.002 7.13318ZM7.43166 5.81664V7.51192H11.4883C11.3672 8.4655 11.0493 9.16173 10.5649 9.64618C9.97436 10.2364 9.05094 10.8875 7.43166 10.8875C4.93398 10.8875 2.98143 8.87431 2.98143 6.37672C2.98143 3.87913 4.93398 1.8657 7.43166 1.8657C8.77893 1.8657 9.76258 2.39562 10.4892 3.07682L11.6854 1.88073C10.671 0.912114 9.32398 0.17041 7.43166 0.17041C4.01018 0.17041 1.13422 2.95571 1.13422 6.37672C1.13422 9.79745 4.01018 12.5828 7.43166 12.5828C9.27813 12.5828 10.671 11.9772 11.7607 10.842C12.8809 9.72182 13.2292 8.14764 13.2292 6.87592C13.2292 6.4828 13.1986 6.11946 13.1381 5.81664H7.43166ZM17.8412 11.0086C16.63 11.0086 15.5854 10.0095 15.5854 8.58661C15.5854 7.14859 16.63 6.16494 17.8412 6.16494C19.0519 6.16494 20.0965 7.14859 20.0965 8.58661C20.0965 10.0095 19.0519 11.0086 17.8412 11.0086ZM17.8412 4.59048C15.6305 4.59048 13.8296 6.27064 13.8296 8.58661C13.8296 10.8875 15.6305 12.5828 17.8412 12.5828C20.051 12.5828 21.8524 10.8875 21.8524 8.58661C21.8524 6.27064 20.051 4.59048 17.8412 4.59048ZM26.5913 11.0086C25.3809 11.0086 24.336 10.0095 24.336 8.58661C24.336 7.14859 25.3809 6.16494 26.5913 6.16494C27.8025 6.16494 28.8467 7.14859 28.8467 8.58661C28.8467 10.0095 27.8025 11.0086 26.5913 11.0086ZM26.5913 4.59048C24.3815 4.59048 22.5805 6.27064 22.5805 8.58661C22.5805 10.8875 24.3815 12.5828 26.5913 12.5828C28.802 12.5828 30.603 10.8875 30.603 8.58661C30.603 6.27064 28.802 4.59048 26.5913 4.59048Z" fill="#292B2E"/>
</svg>
