<svg width="21" height="23" viewBox="0 0 21 23" fill="none" xmlns="http://www.w3.org/2000/svg">
<path fill-rule="evenodd" clip-rule="evenodd" d="M9.61353 11.42L14.2733 15.8386L18.5136 13.3918L18.5199 13.3884C19.2142 13.0136 19.6843 12.2825 19.6843 11.4399C19.6843 10.6035 19.2205 9.87615 18.5334 9.50023L18.5223 9.49417L18.511 9.48642L14.2556 7.01953L9.61353 11.42Z" fill="#292B2E"/>
<path fill-rule="evenodd" clip-rule="evenodd" d="M0.5 19.96C0.5 19.9938 0.500748 20.0273 0.502235 20.0606L8.90134 11.4204L0.502255 2.78027C0.500756 2.81357 0.5 2.84711 0.5 2.88089V19.96Z" fill="#292B2E"/>
<path fill-rule="evenodd" clip-rule="evenodd" d="M0.614746 2.17814L9.25723 11.0686L13.8062 6.75629L3.85668 0.987767L3.85363 0.985939C3.51891 0.785461 3.12876 0.669922 2.7108 0.669922C1.73694 0.669922 0.907597 1.30166 0.614746 2.17814Z" fill="#292B2E"/>
<path fill-rule="evenodd" clip-rule="evenodd" d="M0.614746 20.678L9.25723 11.7876L13.8062 16.0999L3.85668 21.8684L3.85363 21.8702C3.51891 22.0707 3.12876 22.1863 2.7108 22.1863C1.73694 22.1863 0.907597 21.5545 0.614746 20.678Z" fill="#292B2E"/>
</svg>
