<svg width="18" height="23" viewBox="0 0 18 23" fill="none" xmlns="http://www.w3.org/2000/svg">
<path d="M14.9495 12.3298C14.9604 11.4866 15.1844 10.6598 15.6007 9.92631C16.0169 9.19289 16.6119 8.57668 17.3304 8.13501C16.874 7.48321 16.2719 6.9468 15.5719 6.5684C14.872 6.18999 14.0934 5.98001 13.2981 5.95513C11.6016 5.77705 9.95692 6.97029 9.0924 6.97029C8.21116 6.97029 6.8801 5.97281 5.44678 6.0023C4.51966 6.03225 3.61612 6.30185 2.82417 6.78483C2.03223 7.2678 1.3789 7.94768 0.927843 8.75823C-1.02606 12.1411 0.431377 17.1128 2.30304 19.8473C3.23948 21.1862 4.33391 22.6819 5.76594 22.6289C7.16727 22.5708 7.69064 21.7353 9.38216 21.7353C11.058 21.7353 11.549 22.6289 13.0101 22.5952C14.5138 22.5707 15.4612 21.2502 16.3648 19.8986C17.0376 18.9445 17.5553 17.89 17.8988 16.7742C17.0252 16.4047 16.2797 15.7863 15.7552 14.9959C15.2308 14.2056 14.9506 13.2783 14.9495 12.3298Z" fill="#292B2E"/>
<path d="M12.1899 4.15691C13.0097 3.17267 13.4137 1.90761 13.3159 0.630371C12.0633 0.761931 10.9062 1.36059 10.0753 2.30706C9.669 2.76943 9.35783 3.30735 9.15957 3.89005C8.9613 4.47275 8.87983 5.08882 8.9198 5.70303C9.54632 5.70948 10.1661 5.57369 10.7326 5.30587C11.299 5.03806 11.7973 4.6452 12.1899 4.15691Z" fill="#292B2E"/>
</svg>
