<svg width="78" height="18" viewBox="0 0 78 18" fill="none" xmlns="http://www.w3.org/2000/svg">
<path d="M9.36324 10.6284H4.58115L3.43273 14.0193H1.40723L5.93675 1.47363H8.04118L12.5708 14.0193H10.5107L9.36324 10.6284ZM5.07642 9.06364H8.86702L6.99838 3.56033H6.94609L5.07642 9.06364Z" fill="#292B2E"/>
<path d="M22.3529 9.44622C22.3529 12.2886 20.8315 14.1149 18.5357 14.1149C17.9541 14.1453 17.3757 14.0113 16.8667 13.7283C16.3577 13.4453 15.9388 13.0246 15.6577 12.5146H15.6143V17.0451H13.7368V4.8723H15.5541V6.39365H15.5887C15.8826 5.88601 16.3087 5.46756 16.8215 5.18282C17.3344 4.89807 17.9148 4.75768 18.5011 4.77659C20.8226 4.7766 22.3529 6.61169 22.3529 9.44622ZM20.423 9.44622C20.423 7.59437 19.466 6.37688 18.0058 6.37688C16.5713 6.37688 15.6064 7.62001 15.6064 9.44622C15.6064 11.2892 16.5713 12.5235 18.0058 12.5235C19.466 12.5235 20.423 11.3149 20.423 9.44622Z" fill="#292B2E"/>
<path d="M32.4203 9.44621C32.4203 12.2886 30.899 14.1148 28.6031 14.1148C28.0216 14.1453 27.4432 14.0113 26.9342 13.7283C26.4252 13.4453 26.0062 13.0246 25.7252 12.5145H25.6818V17.0451H23.8042V4.87229H25.6216V6.39364H25.6561C25.9501 5.886 26.3761 5.46755 26.889 5.18281C27.4018 4.89807 27.9823 4.75768 28.5686 4.77659C30.8901 4.77659 32.4203 6.61168 32.4203 9.44621ZM30.4905 9.44621C30.4905 7.59436 29.5335 6.37687 28.0733 6.37687C26.6388 6.37687 25.6739 7.62 25.6739 9.44621C25.6739 11.2892 26.6388 12.5235 28.0733 12.5235C29.5335 12.5235 30.4905 11.3149 30.4905 9.44621Z" fill="#292B2E"/>
<path d="M39.0741 10.524C39.2132 11.7682 40.4218 12.585 42.0734 12.585C43.6559 12.585 44.7945 11.7681 44.7945 10.6463C44.7945 9.67253 44.1078 9.08947 42.4818 8.68988L40.8559 8.2982C38.5522 7.74175 37.4827 6.66437 37.4827 4.9161C37.4827 2.75147 39.3691 1.26465 42.0477 1.26465C44.6987 1.26465 46.5161 2.75147 46.5773 4.9161H44.682C44.5685 3.66409 43.5335 2.90835 42.0211 2.90835C40.5086 2.90835 39.4736 3.67298 39.4736 4.78587C39.4736 5.67283 40.1347 6.19475 41.7517 6.59429L43.134 6.93368C45.708 7.54242 46.7775 8.57641 46.7775 10.4115C46.7775 12.7586 44.9079 14.2287 41.9342 14.2287C39.152 14.2287 37.2735 12.7932 37.1521 10.5239L39.0741 10.524Z" fill="#292B2E"/>
<path d="M50.8293 2.70752V4.87215H52.5687V6.35897H50.8293V11.4015C50.8293 12.1849 51.1776 12.5499 51.9422 12.5499C52.1487 12.5463 52.3549 12.5318 52.5598 12.5065V13.9844C52.2161 14.0487 51.8667 14.0778 51.517 14.0713C49.6651 14.0713 48.9429 13.3757 48.9429 11.6018V6.35897H47.613V4.87215H48.9429V2.70752H50.8293Z" fill="#292B2E"/>
<path d="M53.5762 9.44713C53.5762 6.56919 55.2712 4.76074 57.9143 4.76074C60.5663 4.76074 62.2535 6.56915 62.2535 9.44713C62.2535 12.333 60.5752 14.1335 57.9143 14.1335C55.2544 14.1335 53.5762 12.333 53.5762 9.44713ZM60.3404 9.44713C60.3404 7.47293 59.4357 6.30774 57.9143 6.30774C56.393 6.30774 55.4892 7.48181 55.4892 9.44713C55.4892 11.4292 56.393 12.5856 57.9143 12.5856C59.4357 12.5856 60.3404 11.4292 60.3404 9.44713Z" fill="#292B2E"/>
<path d="M63.8015 4.87221H65.5922V6.42906H65.6356C65.7568 5.94283 66.0416 5.51312 66.4423 5.21217C66.843 4.91122 67.335 4.75737 67.8357 4.77649C68.0521 4.77574 68.2679 4.79924 68.479 4.84655V6.60271C68.2059 6.51925 67.9209 6.48092 67.6354 6.48926C67.3627 6.47819 67.0908 6.52628 66.8383 6.63023C66.5859 6.73417 66.359 6.89151 66.1731 7.09143C65.9873 7.29136 65.8469 7.52914 65.7616 7.78845C65.6763 8.04776 65.6481 8.32246 65.679 8.59369V14.0191H63.8015V4.87221Z" fill="#292B2E"/>
<path d="M77.1355 11.3335C76.8829 12.994 75.2659 14.1335 73.1969 14.1335C70.5361 14.1335 68.8845 12.3507 68.8845 9.49054C68.8845 6.62148 70.5449 4.76074 73.118 4.76074C75.6487 4.76074 77.2401 6.49914 77.2401 9.2725V9.91577H70.7798V10.0292C70.7499 10.3659 70.7921 10.705 70.9034 11.0241C71.0147 11.3432 71.1926 11.6349 71.4254 11.88C71.6581 12.125 71.9403 12.3177 72.2532 12.4453C72.5661 12.5729 72.9026 12.6325 73.2404 12.6201C73.684 12.6617 74.1293 12.5589 74.5099 12.3271C74.8905 12.0953 75.1861 11.7468 75.3527 11.3335H77.1355ZM70.7886 8.60358H75.3616C75.3784 8.3009 75.3325 7.99801 75.2268 7.7139C75.121 7.4298 74.9577 7.17062 74.747 6.95264C74.5363 6.73465 74.2829 6.56256 74.0026 6.44717C73.7222 6.33178 73.4211 6.27558 73.118 6.28209C72.8123 6.28026 72.5092 6.33901 72.2263 6.45493C71.9433 6.57085 71.6862 6.74166 71.4696 6.95749C71.253 7.17332 71.0814 7.4299 70.9645 7.71243C70.8476 7.99496 70.7878 8.29783 70.7886 8.60358Z" fill="#292B2E"/>
</svg>
