<svg width="20" height="21" viewBox="0 0 20 21" fill="none" xmlns="http://www.w3.org/2000/svg">
<path d="M10.0002 17.8249C13.8002 17.8249 16.8752 14.7499 16.8752 10.9499C16.8752 7.14987 13.8002 4.07487 10.0002 4.07487C6.20016 4.07487 3.12516 7.14987 3.12516 10.9499C3.12516 14.7499 6.20016 17.8249 10.0002 17.8249ZM18.5418 10.9499C18.5418 15.6665 14.7168 19.4915 10.0002 19.4915C5.2835 19.4915 1.4585 15.6665 1.4585 10.9499C1.4585 6.2332 5.2835 2.4082 10.0002 2.4082C14.7168 2.4082 18.5418 6.2332 18.5418 10.9499ZM8.75016 13.8665C8.75016 13.1749 9.3085 12.6165 10.0002 12.6165C10.6918 12.6165 11.2502 13.1749 11.2502 13.8665C11.2502 14.5582 10.6918 15.1165 10.0002 15.1165C9.3085 15.1165 8.75016 14.5582 8.75016 13.8665ZM9.16683 11.5332L8.9585 6.7832H11.0418L10.8335 11.5332C10.8335 11.5332 10.4168 11.3665 10.0002 11.3665C9.5835 11.3665 9.16683 11.5332 9.16683 11.5332Z" fill="black"/>
</svg>
