<svg width="31" height="21" viewBox="0 0 31 21" fill="none" xmlns="http://www.w3.org/2000/svg">
<path d="M20.7103 5.03997C19.0853 3.40664 16.452 3.40664 14.8186 5.03997L13.6436 6.21497L12.4603 5.03997L13.6436 3.85664C15.9186 1.58164 19.6103 1.58164 21.8936 3.85664C24.1686 6.13997 24.1686 9.83164 21.8936 12.1066L20.7103 13.29L19.5353 12.1066L20.7103 10.9316C22.3436 9.29831 22.3436 6.66497 20.7103 5.03997ZM18.9436 7.98164L13.052 13.8733L11.877 12.6983L17.7686 6.80664L18.9436 7.98164ZM8.92695 8.57331L10.1103 7.38997L11.2853 8.57331L10.1103 9.74831C8.47695 11.3816 8.47695 14.015 10.1103 15.64C11.7353 17.2733 14.3686 17.2733 16.002 15.64L17.177 14.465L18.3603 15.64L17.177 16.8233C14.902 19.0983 11.2103 19.0983 8.92695 16.8233C6.65195 14.54 6.65195 10.8483 8.92695 8.57331Z" fill="#536471"/>
</svg>
