<svg width="82" height="17" viewBox="0 0 82 17" fill="none" xmlns="http://www.w3.org/2000/svg">
<path d="M63.0476 12.8005H64.8009V1.05421H63.0476V12.8005ZM78.8392 5.28572L76.8294 10.3781H76.7693L74.6834 5.28572H72.7948L75.9236 12.403L74.1394 16.3624H75.9678L80.7888 5.28572H78.8392ZM68.8956 11.4663C68.3224 11.4663 67.521 11.1789 67.521 10.4688C67.521 9.56222 68.5188 9.21467 69.3795 9.21467C70.1499 9.21467 70.5135 9.3806 70.9814 9.60741C70.8452 10.6956 69.9084 11.4663 68.8956 11.4663ZM69.1079 5.02874C67.8385 5.02874 66.5241 5.58807 65.98 6.82719L67.536 7.47682C67.8686 6.82719 68.4878 6.61578 69.138 6.61578C70.0447 6.61578 70.9664 7.15933 70.9814 8.12682V8.24755C70.6639 8.06622 69.9836 7.7943 69.153 7.7943C67.4749 7.7943 65.7677 8.71584 65.7677 10.4387C65.7677 12.0103 67.1433 13.0229 68.6842 13.0229C69.8624 13.0229 70.5135 12.494 70.9204 11.8741H70.9814V12.7814H72.6746V8.27762C72.6746 6.19222 71.1167 5.02874 69.1079 5.02874ZM58.2727 6.71557H55.779V2.68937H58.2727C59.5834 2.68937 60.3275 3.7743 60.3275 4.70242C60.3275 5.61269 59.5834 6.71557 58.2727 6.71557ZM58.2276 1.05421H54.0265V12.8005H55.779V8.35034H58.2276C60.1706 8.35034 62.0808 6.94389 62.0808 4.70242C62.0808 2.46143 60.1706 1.05421 58.2276 1.05421ZM35.3193 11.4685C34.1081 11.4685 33.0943 10.4541 33.0943 9.06198C33.0943 7.65374 34.1081 6.6249 35.3193 6.6249C36.5151 6.6249 37.4535 7.65374 37.4535 9.06198C37.4535 10.4541 36.5151 11.4685 35.3193 11.4685ZM37.3324 5.94342H37.2718C36.8784 5.47429 36.1212 5.05044 35.1681 5.05044C33.1696 5.05044 31.3382 6.80661 31.3382 9.06198C31.3382 11.3019 33.1696 13.0427 35.1681 13.0427C36.1212 13.0427 36.8784 12.6187 37.2718 12.1347H37.3324V12.7094C37.3324 14.2388 36.5151 15.0558 35.1982 15.0558C34.1238 15.0558 33.4578 14.284 33.185 13.6332L31.6564 14.2689C32.095 15.3281 33.2603 16.6303 35.1982 16.6303C37.2572 16.6303 38.9979 15.4192 38.9979 12.4672V5.29267H37.3324V5.94342ZM40.2091 12.8005H41.9643V1.05421H40.2091V12.8005ZM44.5529 8.92546C44.5077 7.38136 45.7494 6.59446 46.642 6.59446C47.3386 6.59446 47.9284 6.94276 48.1259 7.44196L44.5529 8.92546ZM50.0021 7.59314C49.6692 6.70054 48.6551 5.05044 46.5814 5.05044C44.5224 5.05044 42.8121 6.67009 42.8121 9.04657C42.8121 11.2869 44.5077 13.0427 46.7777 13.0427C48.6092 13.0427 49.6692 11.9229 50.1085 11.2718L48.7461 10.3634C48.2918 11.0295 47.6715 11.4685 46.7777 11.4685C45.8851 11.4685 45.2491 11.0597 44.841 10.2574L50.1837 8.04752L50.0021 7.59314ZM7.43172 6.2766V7.97188H11.4884C11.3673 8.92546 11.0494 9.62169 10.565 10.1061C9.97442 10.6963 9.051 11.3474 7.43172 11.3474C4.93404 11.3474 2.98149 9.33427 2.98149 6.83668C2.98149 4.33909 4.93404 2.32566 7.43172 2.32566C8.77899 2.32566 9.76264 2.85558 10.4893 3.53678L11.6855 2.34069C10.6711 1.37207 9.32404 0.630371 7.43172 0.630371C4.01024 0.630371 1.13428 3.41567 1.13428 6.83668C1.13428 10.2574 4.01024 13.0427 7.43172 13.0427C9.27819 13.0427 10.6711 12.4371 11.7608 11.3019C12.881 10.1818 13.2293 8.6076 13.2293 7.33588C13.2293 6.94276 13.1987 6.57942 13.1382 6.2766H7.43172ZM17.8413 11.4685C16.6301 11.4685 15.5855 10.4695 15.5855 9.04657C15.5855 7.60855 16.6301 6.6249 17.8413 6.6249C19.052 6.6249 20.0966 7.60855 20.0966 9.04657C20.0966 10.4695 19.052 11.4685 17.8413 11.4685ZM17.8413 5.05044C15.6306 5.05044 13.8297 6.7306 13.8297 9.04657C13.8297 11.3474 15.6306 13.0427 17.8413 13.0427C20.0511 13.0427 21.8525 11.3474 21.8525 9.04657C21.8525 6.7306 20.0511 5.05044 17.8413 5.05044ZM26.5914 11.4685C25.381 11.4685 24.3361 10.4695 24.3361 9.04657C24.3361 7.60855 25.381 6.6249 26.5914 6.6249C27.8026 6.6249 28.8468 7.60855 28.8468 9.04657C28.8468 10.4695 27.8026 11.4685 26.5914 11.4685ZM26.5914 5.05044C24.3816 5.05044 22.5806 6.7306 22.5806 9.04657C22.5806 11.3474 24.3816 13.0427 26.5914 13.0427C28.8021 13.0427 30.6031 11.3474 30.6031 9.04657C30.6031 6.7306 28.8021 5.05044 26.5914 5.05044Z" fill="#292B2E"/>
</svg>
