<svg width="18" height="23" viewBox="0 0 18 23" fill="none" xmlns="http://www.w3.org/2000/svg">
<path d="M14.9495 11.8698C14.9604 11.0266 15.1844 10.1998 15.6007 9.46635C16.0169 8.73293 16.6119 8.11672 17.3304 7.67505C16.874 7.02325 16.2719 6.48684 15.5719 6.10844C14.872 5.73003 14.0934 5.52005 13.2981 5.49517C11.6016 5.31709 9.95692 6.51033 9.0924 6.51033C8.21116 6.51033 6.8801 5.51285 5.44678 5.54234C4.51966 5.57229 3.61612 5.84189 2.82417 6.32487C2.03223 6.80784 1.3789 7.48772 0.927843 8.29827C-1.02606 11.6811 0.431377 16.6528 2.30304 19.3873C3.23948 20.7262 4.33391 22.2219 5.76594 22.1689C7.16727 22.1108 7.69064 21.2753 9.38216 21.2753C11.058 21.2753 11.549 22.1689 13.0101 22.1352C14.5138 22.1107 15.4612 20.7902 16.3648 19.4386C17.0376 18.4845 17.5553 17.43 17.8988 16.3142C17.0252 15.9447 16.2797 15.3263 15.7552 14.5359C15.2308 13.7456 14.9506 12.8183 14.9495 11.8698Z" fill="#292B2E"/>
<path d="M12.1899 3.69695C13.0097 2.71271 13.4137 1.44765 13.3159 0.17041C12.0633 0.30197 10.9062 0.900626 10.0753 1.8471C9.669 2.30947 9.35783 2.84739 9.15957 3.43009C8.9613 4.01279 8.87983 4.62886 8.9198 5.24307C9.54632 5.24952 10.1661 5.11373 10.7326 4.84591C11.299 4.5781 11.7973 4.18524 12.1899 3.69695Z" fill="#292B2E"/>
</svg>
