<svg width="37" height="37" viewBox="0 0 37 37" fill="none" xmlns="http://www.w3.org/2000/svg">
<g clip-path="url(#clip0_1_227)">
<g clip-path="url(#clip1_1_227)">
<g clip-path="url(#clip2_1_227)">
<path fill-rule="evenodd" clip-rule="evenodd" d="M11.4753 10.5574C9.88693 10.2413 8.24044 10.4033 6.7441 11.023C5.24777 11.6426 3.96881 12.6921 3.06897 14.0387C2.16914 15.3853 1.68884 16.9686 1.68884 18.5881C1.68884 20.2078 2.16914 21.7909 3.06897 23.1375C3.96881 24.4841 5.24777 25.5337 6.7441 26.1533C8.24044 26.773 9.88693 26.935 11.4753 26.6188C13.054 26.3047 14.5049 25.5322 15.6468 24.3982C16.7815 23.3659 17.783 22.1996 18.63 20.9267C19.4771 22.1996 20.4785 23.3659 21.6134 24.3982C22.7552 25.5322 24.206 26.3047 25.7847 26.6188C27.3731 26.935 29.0196 26.773 30.5159 26.1533C32.0123 25.5337 33.2912 24.4841 34.191 23.1375C35.0909 21.7909 35.5712 20.2078 35.5712 18.5881C35.5712 16.9686 35.0909 15.3853 34.191 14.0387C33.2912 12.6921 32.0123 11.6426 30.5159 11.023C29.0196 10.4033 27.3731 10.2413 25.7847 10.5574C24.206 10.8716 22.7551 11.6441 21.6133 12.7781C20.4785 13.8104 19.4771 14.9767 18.63 16.2495C17.783 14.9767 16.7815 13.8104 15.6468 12.7781C14.5049 11.6441 13.054 10.8716 11.4753 10.5574ZM7.65239 13.2163C8.71491 12.7762 9.88405 12.6612 11.012 12.8857C12.1379 13.1098 13.1724 13.6622 13.9849 14.4733L14.0099 14.4979L14.0356 14.5216C15.3291 15.6956 16.4248 17.0689 17.2817 18.5881C16.4237 20.1092 15.3266 21.4839 14.031 22.6587C14.0166 22.6718 14.0026 22.6852 13.9889 22.6989C13.1759 23.5121 12.1399 24.0661 11.012 24.2906C9.88405 24.5151 8.71491 24.4001 7.65239 23.96C6.58987 23.52 5.68171 22.7748 5.04275 21.8186C4.40379 20.8623 4.06275 19.7382 4.06275 18.5881C4.06275 17.4381 4.40379 16.3139 5.04275 15.3577C5.68171 14.4015 6.58987 13.6563 7.65239 13.2163ZM26.248 12.8857C27.376 12.6612 28.5452 12.7762 29.6077 13.2163C30.6702 13.6563 31.5784 14.4015 32.2173 15.3577C32.8563 16.3139 33.1973 17.4381 33.1973 18.5881C33.1973 19.7382 32.8563 20.8623 32.2173 21.8186C31.5784 22.7748 30.6702 23.52 29.6077 23.96C28.5452 24.4001 27.376 24.5151 26.248 24.2906C25.1202 24.0661 24.0841 23.5121 23.2712 22.6989C23.2574 22.6852 23.2434 22.6718 23.229 22.6587C21.9334 21.4839 20.8363 20.1092 19.9783 18.5881C20.8363 17.0671 21.9334 15.6924 23.229 14.5175C23.2434 14.5045 23.2574 14.4911 23.2711 14.4774C24.0841 13.6641 25.1202 13.1102 26.248 12.8857Z" fill="#292B2E" stroke="white" stroke-width="0.67765" stroke-linecap="round"/>
</g>
</g>
</g>
<defs>
<clipPath id="clip0_1_227">
<rect width="36" height="36" fill="white" transform="translate(0.630005 0.5)"/>
</clipPath>
<clipPath id="clip1_1_227">
<rect width="36" height="36" fill="white" transform="translate(0.630005 0.5)"/>
</clipPath>
<clipPath id="clip2_1_227">
<rect width="36" height="18" fill="white" transform="translate(0.630005 9.5)"/>
</clipPath>
</defs>
</svg>
