<svg width="8" height="6" viewBox="0 0 8 6" fill="none" xmlns="http://www.w3.org/2000/svg">
<g clip-path="url(#clip0_1_804)">
<g clip-path="url(#clip1_1_804)">
<g clip-path="url(#clip2_1_804)">
<path d="M4 0.278707C4.09 0.278707 4.17 0.298707 4.25 0.318707C4.33 0.348707 4.4 0.398706 4.47 0.468707L7.85 3.83871C7.95 3.94871 8 4.07871 8 4.22871C8 4.37871 7.94 4.50871 7.83 4.61871C7.72 4.71871 7.59 4.76871 7.44 4.76871C7.29 4.76871 7.16 4.71871 7.05 4.61871L4 1.56871L0.93 4.61871C0.83 4.72871 0.71 4.78871 0.56 4.77871C0.41 4.76871 0.28 4.71871 0.17 4.61871C0.0599999 4.50871 0 4.36871 0 4.21871C0 4.05871 0.0599999 3.92871 0.17 3.83871L3.53 0.468707C3.6 0.398706 3.67 0.348707 3.75 0.318707C3.83 0.298707 3.91 0.278707 4 0.278707Z" fill="#292B2E"/>
</g>
</g>
</g>
<defs>
<clipPath id="clip0_1_804">
<rect width="8" height="5" fill="white" transform="translate(0 0.279785)"/>
</clipPath>
<clipPath id="clip1_1_804">
<rect width="8" height="5" fill="white" transform="translate(0 0.279785)"/>
</clipPath>
<clipPath id="clip2_1_804">
<rect width="8" height="5" fill="white" transform="translate(0 0.279785)"/>
</clipPath>
</defs>
</svg>
