<svg width="37" height="41" viewBox="0 0 37 41" fill="none" xmlns="http://www.w3.org/2000/svg">
<g clip-path="url(#clip0_1_637)">
<g clip-path="url(#clip1_1_637)">
<g clip-path="url(#clip2_1_637)">
<path fill-rule="evenodd" clip-rule="evenodd" d="M11.5053 12.9473C9.91693 12.6312 8.27044 12.7932 6.7741 13.4129C5.27777 14.0325 3.99881 15.082 3.09897 16.4286C2.19913 17.7752 1.71884 19.3584 1.71884 20.978C1.71884 22.5977 2.19913 24.1808 3.09897 25.5274C3.99881 26.874 5.27777 27.9235 6.7741 28.5432C8.27044 29.1629 9.91693 29.3249 11.5053 29.0087C13.084 28.6946 14.5349 27.9221 15.6768 26.7881C16.8115 25.7558 17.813 24.5895 18.66 23.3166C19.5071 24.5895 20.5085 25.7558 21.6434 26.7881C22.7852 27.9221 24.236 28.6946 25.8147 29.0087C27.4031 29.3249 29.0496 29.1629 30.5459 28.5432C32.0423 27.9235 33.3212 26.874 34.221 25.5274C35.1209 24.1808 35.6012 22.5977 35.6012 20.978C35.6012 19.3584 35.1209 17.7752 34.221 16.4286C33.3212 15.082 32.0423 14.0325 30.5459 13.4129C29.0496 12.7932 27.4031 12.6312 25.8147 12.9473C24.236 13.2615 22.7851 14.034 21.6433 15.168C20.5085 16.2003 19.5071 17.3666 18.66 18.6394C17.813 17.3666 16.8115 16.2003 15.6768 15.168C14.5349 14.034 13.084 13.2615 11.5053 12.9473ZM7.68239 15.6061C8.74491 15.1661 9.91405 15.0511 11.042 15.2756C12.1679 15.4997 13.2024 16.0521 14.0149 16.8632L14.0399 16.8878L14.0656 16.9115C15.3591 18.0855 16.4548 19.4588 17.3117 20.978C16.4537 22.4991 15.3566 23.8738 14.061 25.0486C14.0466 25.0617 14.0326 25.0751 14.0189 25.0888C13.2059 25.902 12.1699 26.456 11.042 26.6805C9.91405 26.905 8.74491 26.79 7.68239 26.3499C6.61987 25.9099 5.71171 25.1647 5.07275 24.2085C4.43379 23.2522 4.09275 22.1281 4.09275 20.978C4.09275 19.828 4.43379 18.7038 5.07275 17.7476C5.71171 16.7914 6.61987 16.0462 7.68239 15.6061ZM26.278 15.2756C27.406 15.0511 28.5752 15.1661 29.6377 15.6061C30.7002 16.0462 31.6084 16.7914 32.2473 17.7476C32.8863 18.7038 33.2273 19.828 33.2273 20.978C33.2273 22.1281 32.8863 23.2522 32.2473 24.2085C31.6084 25.1647 30.7002 25.9099 29.6377 26.3499C28.5752 26.79 27.406 26.905 26.278 26.6805C25.1502 26.456 24.1141 25.902 23.3012 25.0888C23.2874 25.0751 23.2734 25.0617 23.259 25.0486C21.9634 23.8738 20.8663 22.4991 20.0083 20.978C20.8663 19.457 21.9634 18.0823 23.259 16.9074C23.2734 16.8944 23.2874 16.881 23.3011 16.8673C24.1141 16.054 25.1502 15.5001 26.278 15.2756Z" fill="#292B2E" stroke="white" stroke-width="0.67765" stroke-linecap="round"/>
</g>
</g>
</g>
<defs>
<clipPath id="clip0_1_637">
<rect width="36" height="40" fill="white" transform="translate(0.660004 0.889893)"/>
</clipPath>
<clipPath id="clip1_1_637">
<rect width="36" height="40" fill="white" transform="translate(0.660004 0.889893)"/>
</clipPath>
<clipPath id="clip2_1_637">
<rect width="36" height="18" fill="white" transform="translate(0.660004 11.8899)"/>
</clipPath>
</defs>
</svg>
