<svg width="99" height="21" viewBox="0 0 99 21" fill="none" xmlns="http://www.w3.org/2000/svg">
<path d="M0.130493 0.379805H5.32249C6.87719 0.379805 8.13119 0.790504 9.08449 1.6118C10.0525 2.4185 10.5365 3.5991 10.5365 5.1538C10.5365 6.1658 10.3092 7.0311 9.85449 7.7498C9.41449 8.4685 8.80589 9.0111 8.02849 9.3778C7.25119 9.7445 6.37849 9.9278 5.41049 9.9278H2.33049V15.7798H0.130493V0.379805ZM5.16849 7.9478C6.18049 7.9478 6.95789 7.7058 7.50049 7.2218C8.05789 6.7378 8.33649 6.0411 8.33649 5.1318C8.33649 4.2371 8.05789 3.5551 7.50049 3.0858C6.94319 2.6018 6.16589 2.3598 5.16849 2.3598H2.33049V7.9478H5.16849ZM15.476 16.0878C14.728 16.0878 14.068 15.9485 13.496 15.6698C12.924 15.3765 12.484 14.9805 12.176 14.4818C11.868 13.9685 11.714 13.3965 11.714 12.7658C11.714 11.8271 12.0367 11.0571 12.682 10.4558C13.342 9.8398 14.4347 9.42181 15.96 9.20181L18.578 8.8278V8.5858C18.578 7.1045 17.8007 6.3638 16.246 6.3638C15.498 6.3638 14.926 6.5398 14.53 6.8918C14.1487 7.2291 13.9067 7.7131 13.804 8.3438L11.89 7.8818C12.418 5.6965 13.8847 4.6038 16.29 4.6038C17.6247 4.6038 18.6954 4.9411 19.502 5.6158C20.3234 6.2905 20.734 7.2731 20.734 8.5638V15.7798H18.908L18.688 14.7238C18.028 15.6331 16.9574 16.0878 15.476 16.0878ZM16.004 14.3058C16.7227 14.3058 17.3314 14.1005 17.83 13.6898C18.3287 13.2791 18.578 12.6851 18.578 11.9078V10.4778L16.136 10.8518C15.3587 10.9691 14.772 11.1671 14.376 11.4458C13.9947 11.7098 13.804 12.1131 13.804 12.6558C13.804 13.1545 14.002 13.5578 14.398 13.8658C14.794 14.1591 15.3294 14.3058 16.004 14.3058ZM33.0284 4.8898V15.5818C33.0284 16.5205 32.8451 17.3638 32.4784 18.1118C32.1118 18.8745 31.5544 19.4758 30.8064 19.9158C30.0731 20.3558 29.1564 20.5758 28.0564 20.5758C26.7804 20.5758 25.7538 20.2605 24.9764 19.6298C24.1991 19.0138 23.6638 18.1705 23.3704 17.0998L25.3944 16.6598C25.7171 18.0238 26.6044 18.7058 28.0564 18.7058C28.9804 18.7058 29.6771 18.4345 30.1464 17.8918C30.6304 17.3491 30.8724 16.5938 30.8724 15.6258V14.1298C30.4324 14.6725 29.9411 15.0831 29.3984 15.3618C28.8558 15.6258 28.1738 15.7578 27.3524 15.7578C26.1938 15.7578 25.2478 15.4058 24.5144 14.7018C23.7811 13.9831 23.4144 12.9051 23.4144 11.4678V4.8898H25.5704V10.9838C25.5704 11.9811 25.7831 12.6925 26.2084 13.1178C26.6338 13.5431 27.2351 13.7558 28.0124 13.7558C28.8484 13.7558 29.5304 13.4845 30.0584 12.9418C30.6011 12.3845 30.8724 11.6145 30.8724 10.6318V4.8898H33.0284ZM46.0438 16.0878C44.8705 16.0878 43.9025 15.8091 43.1398 15.2518C42.3772 14.6798 41.8492 13.8585 41.5558 12.7878L43.4918 12.1938C43.6678 12.8098 43.9392 13.3085 44.3058 13.6898C44.6872 14.0711 45.2665 14.2618 46.0438 14.2618C46.7185 14.2618 47.2612 14.1298 47.6718 13.8658C48.0972 13.5871 48.3098 13.2131 48.3098 12.7438C48.3098 12.3918 48.1558 12.0911 47.8478 11.8418C47.5398 11.5778 46.9312 11.3651 46.0218 11.2038C44.7312 10.9691 43.7265 10.6171 43.0078 10.1478C42.2892 9.6638 41.9298 8.9158 41.9298 7.9038C41.9298 6.9211 42.3112 6.1291 43.0738 5.5278C43.8512 4.9118 44.8412 4.6038 46.0438 4.6038C47.1438 4.6038 48.0458 4.8825 48.7498 5.4398C49.4685 5.9825 49.938 6.7525 50.158 7.7498L48.2438 8.2998C48.1118 7.7425 47.8698 7.2951 47.5178 6.9578C47.1805 6.6058 46.6892 6.4298 46.0438 6.4298C45.3398 6.4298 44.8192 6.56911 44.4818 6.84781C44.1445 7.1118 43.9758 7.4345 43.9758 7.8158C43.9758 8.2411 44.1738 8.5638 44.5698 8.7838C44.9658 8.9891 45.5745 9.1651 46.3958 9.3118C47.6865 9.5611 48.6692 9.9425 49.3438 10.4558C50.019 10.9545 50.356 11.7098 50.356 12.7218C50.356 13.3671 50.173 13.9465 49.806 14.4598C49.4392 14.9731 48.9258 15.3765 48.2658 15.6698C47.6058 15.9485 46.8652 16.0878 46.0438 16.0878ZM55.974 16.0878C55.226 16.0878 54.566 15.9485 53.994 15.6698C53.422 15.3765 52.982 14.9805 52.674 14.4818C52.366 13.9685 52.212 13.3965 52.212 12.7658C52.212 11.8271 52.535 11.0571 53.18 10.4558C53.84 9.8398 54.933 9.42181 56.458 9.20181L59.076 8.8278V8.5858C59.076 7.1045 58.299 6.3638 56.744 6.3638C55.996 6.3638 55.424 6.5398 55.028 6.8918C54.647 7.2291 54.405 7.7131 54.302 8.3438L52.388 7.8818C52.916 5.6965 54.383 4.6038 56.788 4.6038C58.123 4.6038 59.193 4.9411 60 5.6158C60.821 6.2905 61.232 7.2731 61.232 8.5638V15.7798H59.406L59.186 14.7238C58.526 15.6331 57.455 16.0878 55.974 16.0878ZM56.502 14.3058C57.221 14.3058 57.829 14.1005 58.328 13.6898C58.827 13.2791 59.076 12.6851 59.076 11.9078V10.4778L56.634 10.8518C55.857 10.9691 55.27 11.1671 54.874 11.4458C54.493 11.7098 54.302 12.1131 54.302 12.6558C54.302 13.1545 54.5 13.5578 54.896 13.8658C55.292 14.1591 55.827 14.3058 56.502 14.3058ZM64.792 6.8258H62.878V4.8898H64.792V3.0858C64.792 2.1618 65.064 1.4285 65.606 0.885804C66.149 0.328504 66.846 0.0498047 67.696 0.0498047C68.4 0.0498047 68.95 0.152504 69.346 0.357804C69.757 0.548504 70.05 0.746504 70.226 0.951804L69.17 2.4258C69.097 2.3378 68.965 2.2498 68.774 2.1618C68.598 2.0591 68.378 2.0078 68.114 2.0078C67.337 2.0078 66.948 2.4478 66.948 3.3278V4.8898H69.918V6.8258H66.948V15.7798H64.792V6.8258ZM72.628 11.0058C72.672 11.5925 72.834 12.1351 73.112 12.6338C73.406 13.1325 73.802 13.5358 74.3 13.8438C74.799 14.1371 75.364 14.2838 75.994 14.2838C76.757 14.2838 77.395 14.1005 77.908 13.7338C78.436 13.3525 78.788 12.9051 78.964 12.3918L80.812 12.9858C80.49 13.8951 79.918 14.6431 79.096 15.2298C78.275 15.8018 77.241 16.0878 75.994 16.0878C74.938 16.0878 73.992 15.8385 73.156 15.3398C72.335 14.8265 71.69 14.1298 71.22 13.2498C70.766 12.3698 70.538 11.3945 70.538 10.3238C70.538 9.26781 70.773 8.30711 71.242 7.4418C71.726 6.5618 72.379 5.8725 73.2 5.3738C74.036 4.8605 74.96 4.6038 75.972 4.6038C76.999 4.6038 77.894 4.8385 78.656 5.3078C79.434 5.7625 80.035 6.4078 80.46 7.2438C80.886 8.07981 81.098 9.0478 81.098 10.1478V11.0058H72.628ZM79.162 9.3118C79.104 8.5345 78.788 7.8598 78.216 7.2878C77.659 6.7011 76.918 6.4078 75.994 6.4078C75.07 6.4078 74.315 6.6865 73.728 7.2438C73.142 7.80111 72.782 8.4905 72.65 9.3118H79.162ZM83.462 0.379805H85.618V15.7798H83.462V0.379805ZM98.126 4.8898V15.5818C98.126 16.5205 97.943 17.3638 97.576 18.1118C97.209 18.8745 96.652 19.4758 95.904 19.9158C95.171 20.3558 94.254 20.5758 93.154 20.5758C91.878 20.5758 90.851 20.2605 90.074 19.6298C89.297 19.0138 88.761 18.1705 88.468 17.0998L90.492 16.6598C90.815 18.0238 91.702 18.7058 93.154 18.7058C94.078 18.7058 94.775 18.4345 95.244 17.8918C95.728 17.3491 95.97 16.5938 95.97 15.6258V14.1298C95.53 14.6725 95.039 15.0831 94.496 15.3618C93.953 15.6258 93.271 15.7578 92.45 15.7578C91.291 15.7578 90.345 15.4058 89.612 14.7018C88.879 13.9831 88.512 12.9051 88.512 11.4678V4.8898H90.668V10.9838C90.668 11.9811 90.881 12.6925 91.306 13.1178C91.731 13.5431 92.333 13.7558 93.11 13.7558C93.946 13.7558 94.628 13.4845 95.156 12.9418C95.699 12.3845 95.97 11.6145 95.97 10.6318V4.8898H98.126Z" fill="#292B2E"/>
</svg>
