<svg width="17" height="16" viewBox="0 0 17 16" fill="none" xmlns="http://www.w3.org/2000/svg">
<g clip-path="url(#clip0_1_695)">
<g clip-path="url(#clip1_1_695)">
<g clip-path="url(#clip2_1_695)">
<path d="M5.84297 14.2948L4.80025 12.5912L2.86293 12.1567C2.70908 12.1244 2.58871 12.0494 2.50182 11.9316C2.41493 11.8138 2.38146 11.678 2.40139 11.5242L2.57234 9.53135L1.25467 8.06125C1.15307 7.93969 1.10226 7.80579 1.10226 7.65954C1.10226 7.51329 1.15307 7.37939 1.25467 7.25784L2.57234 5.78776L2.40139 3.79489C2.38146 3.64104 2.41493 3.50524 2.50182 3.38749C2.58871 3.26972 2.70908 3.1947 2.86293 3.16241L4.80025 2.72795L5.84297 1.02425C5.91989 0.902691 6.02603 0.81532 6.16136 0.762135C6.29667 0.708963 6.43747 0.710864 6.5837 0.767839L8.40991 1.55843L10.2361 0.767839C10.3823 0.710864 10.5231 0.708963 10.6584 0.762135C10.7938 0.81532 10.8999 0.902691 10.9768 1.02425L12.0196 2.72795L13.9569 3.16241C14.1108 3.1947 14.2311 3.26972 14.318 3.38749C14.4049 3.50524 14.4383 3.64104 14.4184 3.79489L14.2475 5.78776L15.5652 7.25784C15.6668 7.37939 15.7175 7.51329 15.7175 7.65954C15.7175 7.80579 15.6668 7.93969 15.5652 8.06125L14.2475 9.53135L14.4184 11.5242C14.4383 11.678 14.4049 11.8138 14.318 11.9316C14.2311 12.0494 14.1108 12.1244 13.9569 12.1567L12.0196 12.5912L10.9768 14.2948C10.8999 14.4164 10.7938 14.5038 10.6584 14.5569C10.5231 14.6101 10.3823 14.6082 10.2361 14.5513L8.40991 13.7607L6.5837 14.5513C6.43747 14.6082 6.29667 14.6101 6.16136 14.5569C6.02603 14.5038 5.91989 14.4164 5.84297 14.2948ZM7.46547 8.70799L6.22613 7.48006C6.12358 7.37751 6.012 7.32504 5.89139 7.32265C5.77079 7.32028 5.65921 7.37039 5.55666 7.47295C5.44933 7.58026 5.39567 7.69493 5.39567 7.81695C5.39567 7.93897 5.44933 8.05364 5.55666 8.16095L7.05237 9.65668C7.17393 9.77819 7.31163 9.83899 7.46547 9.83899C7.61931 9.83899 7.757 9.77819 7.87856 9.65668L11.2631 6.27206C11.361 6.17426 11.4123 6.06078 11.417 5.93161C11.4218 5.80247 11.3705 5.68662 11.2631 5.58406C11.1607 5.4815 11.0503 5.43139 10.9319 5.43376C10.8137 5.43615 10.7034 5.48862 10.6008 5.59117L7.46547 8.70799Z" fill="#2065CE"/>
</g>
</g>
</g>
<defs>
<clipPath id="clip0_1_695">
<rect width="16" height="15" fill="white" transform="translate(0.410004 0.159668)"/>
</clipPath>
<clipPath id="clip1_1_695">
<rect width="16" height="15" fill="white" transform="translate(0.410004 0.159668)"/>
</clipPath>
<clipPath id="clip2_1_695">
<rect width="16" height="14.2222" fill="white" transform="translate(0.410004 0.54834)"/>
</clipPath>
</defs>
</svg>
