<svg width="16" height="16" viewBox="0 0 16 16" fill="none" xmlns="http://www.w3.org/2000/svg">
<g clip-path="url(#clip0_1_1076)">
<g clip-path="url(#clip1_1_1076)">
<g clip-path="url(#clip2_1_1076)">
<path d="M4.79326 12.5985C4.81639 12.5922 4.8411 12.5954 4.86181 12.6075L5.34658 12.8907C6.21868 13.3994 7.21057 13.6664 8.22015 13.6642C9.35033 13.6642 10.4551 13.3291 11.3948 12.7012C12.3346 12.0734 13.067 11.1809 13.4994 10.1368C13.932 9.09261 14.0451 7.94367 13.8246 6.8352C13.6041 5.72674 13.0599 4.70855 12.2608 3.90939C11.4616 3.11024 10.4434 2.566 9.33495 2.34552C8.22648 2.12504 7.07754 2.23819 6.03339 2.67069C4.98924 3.1032 4.09679 3.8356 3.4689 4.77532C2.841 5.71503 2.50587 6.81982 2.50587 7.95001C2.50587 8.97572 2.77515 9.95929 3.28015 10.8243L3.56275 11.3091C3.57479 11.3298 3.57805 11.3545 3.57177 11.3775L3.15613 12.9058C3.13801 12.9724 3.19917 13.0335 3.2658 13.0153L4.79326 12.5985ZM1.38148 15.0106C1.24822 15.047 1.1259 14.9248 1.16217 14.7915L2.04586 11.5443C1.40954 10.4535 1.07522 9.21286 1.0773 7.95001C1.0773 4.00501 4.27515 0.807152 8.22015 0.807152C12.1652 0.807152 15.363 4.00501 15.363 7.95001C15.363 11.895 12.1652 15.0929 8.22015 15.0929C6.95785 15.0949 5.71777 14.7609 4.6273 14.125L1.38148 15.0106ZM5.64229 4.59858C5.738 4.59143 5.83443 4.59143 5.93014 4.59572C5.96873 4.59858 6.0073 4.60287 6.04587 4.60715C6.15944 4.62001 6.28443 4.68929 6.32657 4.78501C6.53943 5.26786 6.74658 5.75429 6.94658 6.24215C6.99086 6.35072 6.96444 6.49 6.88015 6.62572C6.82218 6.71749 6.75948 6.80618 6.69229 6.89144C6.61157 6.995 6.438 7.18501 6.438 7.18501C6.438 7.18501 6.36729 7.26929 6.39444 7.37429C6.40443 7.41429 6.43729 7.47215 6.46729 7.52072L6.50943 7.58857C6.69229 7.89358 6.938 8.20287 7.238 8.49429C7.32372 8.57715 7.40729 8.66214 7.49729 8.74143C7.83158 9.03643 8.21014 9.27714 8.61872 9.45572L8.62229 9.45714C8.68301 9.48357 8.71372 9.49786 8.80229 9.53571C8.84657 9.55429 8.89229 9.57071 8.93872 9.58285C8.98669 9.59508 9.03722 9.59278 9.08389 9.57624C9.13057 9.55971 9.17127 9.5297 9.20086 9.49C9.71801 8.86357 9.76515 8.82286 9.76944 8.82286V8.82428C9.80536 8.79078 9.84804 8.76534 9.89461 8.7497C9.94119 8.73406 9.99056 8.72855 10.0394 8.73358C10.0823 8.73643 10.1259 8.74429 10.1659 8.76215C10.5452 8.93572 11.1659 9.20643 11.1659 9.20643L11.5816 9.39286C11.6515 9.42644 11.7152 9.50571 11.7173 9.58215C11.7201 9.63 11.7244 9.70714 11.708 9.84857C11.6852 10.0336 11.6295 10.2557 11.5738 10.3721C11.5356 10.4516 11.4849 10.5244 11.4237 10.5879C11.3516 10.6635 11.2727 10.7324 11.188 10.7936C11.1587 10.8156 11.1289 10.837 11.0987 10.8579C11.0099 10.9142 10.9186 10.9667 10.8251 11.015C10.6412 11.1127 10.4381 11.1688 10.2302 11.1793C10.098 11.1865 9.96586 11.1964 9.833 11.1892C9.82729 11.1892 9.42729 11.1271 9.42729 11.1271C8.41176 10.86 7.47257 10.3596 6.68443 9.66572C6.52301 9.52357 6.37372 9.37071 6.22087 9.21857C5.58515 8.58644 5.10515 7.90429 4.81373 7.26001C4.66456 6.94379 4.58398 6.59958 4.57729 6.25C4.57435 5.81632 4.71611 5.39405 4.98015 5.05C5.0323 4.98286 5.08158 4.91286 5.16658 4.83215C5.2573 4.74644 5.31444 4.70072 5.37658 4.66929C5.4592 4.62788 5.55005 4.60431 5.64229 4.59858Z" fill="#292B2E"/>
</g>
</g>
</g>
<defs>
<clipPath id="clip0_1_1076">
<rect width="15" height="15" fill="white" transform="translate(0.719971 0.449997)"/>
</clipPath>
<clipPath id="clip1_1_1076">
<rect width="15" height="15" fill="white" transform="translate(0.719971 0.449997)"/>
</clipPath>
<clipPath id="clip2_1_1076">
<rect width="15" height="15" fill="white" transform="translate(0.719971 0.449997)"/>
</clipPath>
</defs>
</svg>
